<svg width="20" height="22" viewBox="0 0 20 22" fill="none" xmlns="http://www.w3.org/2000/svg">
<path d="M12.5948 12.9057C12.5236 12.9057 12.4537 12.887 12.3921 12.8513L9.7953 11.3522C9.74873 11.3258 9.70785 11.2903 9.67502 11.248C9.6422 11.2056 9.61807 11.1572 9.60404 11.1055C9.59 11.0538 9.58633 10.9999 9.59323 10.9467C9.60014 10.8936 9.61748 10.8424 9.64427 10.796C9.67106 10.7496 9.70676 10.7089 9.74932 10.6764C9.79188 10.6438 9.84046 10.62 9.89226 10.6063C9.94405 10.5926 9.99805 10.5893 10.0511 10.5966C10.1042 10.6038 10.1553 10.6215 10.2016 10.6486L12.7983 12.1477C12.8758 12.1924 12.9363 12.2615 12.9705 12.3441C13.0047 12.4268 13.0107 12.5184 12.9875 12.6048C12.9643 12.6912 12.9132 12.7676 12.8422 12.822C12.7712 12.8764 12.6842 12.9058 12.5948 12.9057Z" fill="#00509D"/>
<path d="M5.77773 13.8438C5.68827 13.8438 5.60128 13.8144 5.53027 13.76C5.45926 13.7056 5.40819 13.6292 5.38499 13.5428C5.36179 13.4564 5.36776 13.3648 5.40197 13.2821C5.43619 13.1995 5.49673 13.1304 5.5742 13.0857L9.79595 10.6482C9.84217 10.6211 9.89329 10.6034 9.94638 10.5962C9.99946 10.5889 10.0535 10.5922 10.1052 10.6059C10.157 10.6196 10.2056 10.6434 10.2482 10.6759C10.2907 10.7085 10.3264 10.7491 10.3532 10.7955C10.38 10.8419 10.3974 10.8932 10.4043 10.9463C10.4112 10.9994 10.4075 11.0534 10.3935 11.1051C10.3794 11.1568 10.3553 11.2052 10.3225 11.2476C10.2897 11.2899 10.2488 11.3253 10.2022 11.3518L5.98045 13.7893C5.91893 13.8252 5.84895 13.844 5.77773 13.8438Z" fill="#00509D"/>
<path d="M10 11.4063C9.89226 11.4063 9.78892 11.3635 9.71274 11.2873C9.63655 11.2111 9.59375 11.1077 9.59375 11V6.125C9.59375 6.01726 9.63655 5.91393 9.71274 5.83774C9.78892 5.76156 9.89226 5.71875 10 5.71875C10.1077 5.71875 10.2111 5.76156 10.2873 5.83774C10.3634 5.91393 10.4062 6.01726 10.4062 6.125V11C10.4062 11.1077 10.3634 11.2111 10.2873 11.2873C10.2111 11.3635 10.1077 11.4063 10 11.4063ZM19.1471 6.125C19.0759 6.12503 19.006 6.10625 18.9444 6.07057L17.5372 5.25807C17.4906 5.23159 17.4497 5.19616 17.4169 5.15381C17.3841 5.11147 17.3599 5.06305 17.3459 5.01135C17.3319 4.95964 17.3282 4.90567 17.3351 4.85254C17.342 4.79941 17.3593 4.74818 17.3861 4.70178C17.4129 4.65538 17.4486 4.61474 17.4912 4.58219C17.5337 4.54965 17.5823 4.52585 17.6341 4.51215C17.6859 4.49846 17.7399 4.49514 17.793 4.5024C17.8461 4.50966 17.8972 4.52735 17.9434 4.55444L19.3507 5.36694C19.4281 5.41168 19.4887 5.48073 19.5229 5.56339C19.5571 5.64605 19.5631 5.7377 19.5399 5.8241C19.5167 5.9105 19.4656 5.98683 19.3946 6.04124C19.3236 6.09564 19.2366 6.12509 19.1471 6.125Z" fill="#00509D"/>
<path d="M19.1465 7.75C19.0387 7.75 18.9354 7.7072 18.8592 7.63101C18.783 7.55483 18.7402 7.45149 18.7402 7.34375V5.71875C18.7402 5.61101 18.783 5.50767 18.8592 5.43149C18.9354 5.3553 19.0387 5.3125 19.1465 5.3125C19.2542 5.3125 19.3576 5.3553 19.4337 5.43149C19.5099 5.50767 19.5527 5.61101 19.5527 5.71875V7.34375C19.5527 7.45149 19.5099 7.55483 19.4337 7.63101C19.3576 7.7072 19.2542 7.75 19.1465 7.75Z" fill="#00509D"/>
<path d="M15.8459 8.03074C15.7564 8.03083 15.6694 8.00138 15.5984 7.94697C15.5274 7.89257 15.4763 7.81624 15.4531 7.72984C15.4299 7.64344 15.4359 7.55179 15.4701 7.46913C15.5043 7.38647 15.5649 7.31742 15.6423 7.27268L18.9431 5.36737C18.9893 5.34027 19.0405 5.32259 19.0935 5.31533C19.1466 5.30807 19.2006 5.31138 19.2524 5.32508C19.3042 5.33877 19.3528 5.36258 19.3954 5.39512C19.4379 5.42767 19.4736 5.46831 19.5004 5.51471C19.5272 5.5611 19.5445 5.61234 19.5514 5.66547C19.5583 5.7186 19.5547 5.77257 19.5406 5.82428C19.5266 5.87598 19.5025 5.9244 19.4696 5.96674C19.4368 6.00908 19.3959 6.04451 19.3494 6.07099L16.0486 7.97631C15.987 8.01199 15.9171 8.03077 15.8459 8.03074ZM2.25803 17.5C2.18684 17.5 2.11691 17.4813 2.05531 17.4456L0.648058 16.6331C0.555512 16.5788 0.488182 16.4902 0.460761 16.3865C0.433341 16.2827 0.448057 16.1724 0.501696 16.0795C0.555336 15.9866 0.643546 15.9187 0.747075 15.8906C0.850605 15.8625 0.96105 15.8764 1.05431 15.9295L2.46156 16.742C2.53903 16.7867 2.59957 16.8558 2.63378 16.9384C2.668 17.0211 2.67397 17.1127 2.65077 17.1991C2.62757 17.2855 2.5765 17.3618 2.50549 17.4163C2.43448 17.4707 2.34749 17.5001 2.25803 17.5Z" fill="#00509D"/>
<path d="M0.851562 16.6875C0.743818 16.6875 0.640487 16.6447 0.5643 16.5685C0.488114 16.4923 0.445312 16.389 0.445312 16.2812V14.6562C0.445312 14.5485 0.488114 14.4452 0.5643 14.369C0.640487 14.2928 0.743818 14.25 0.851562 14.25C0.959307 14.25 1.06264 14.2928 1.13882 14.369C1.21501 14.4452 1.25781 14.5485 1.25781 14.6562V16.2812C1.25781 16.389 1.21501 16.4923 1.13882 16.5685C1.06264 16.6447 0.959307 16.6875 0.851562 16.6875Z" fill="#00509D"/>
<path d="M0.851951 16.6875C0.76249 16.6876 0.675502 16.6582 0.604488 16.6038C0.533474 16.5494 0.482406 16.473 0.459208 16.3866C0.436011 16.3002 0.441981 16.2086 0.476194 16.1259C0.510406 16.0433 0.570947 15.9742 0.64842 15.9295L3.9492 14.0242C4.04246 13.9711 4.1529 13.9572 4.25643 13.9853C4.35996 14.0134 4.44817 14.0813 4.50181 14.1742C4.55545 14.2671 4.57017 14.3774 4.54275 14.4812C4.51533 14.5849 4.448 14.6735 4.35545 14.7278L1.05467 16.6331C0.993168 16.669 0.923172 16.6878 0.851951 16.6875ZM19.1466 16.6875C19.0389 16.6875 18.9355 16.6447 18.8593 16.5685C18.7832 16.4924 18.7404 16.389 18.7404 16.2813V14.6563C18.7404 14.5485 18.7832 14.4452 18.8593 14.369C18.9355 14.2928 19.0389 14.25 19.1466 14.25C19.2544 14.25 19.3577 14.2928 19.4339 14.369C19.5101 14.4452 19.5529 14.5485 19.5529 14.6563V16.2813C19.5529 16.389 19.5101 16.4924 19.4339 16.5685C19.3577 16.6447 19.2544 16.6875 19.1466 16.6875Z" fill="#00509D"/>
<path d="M17.7406 17.5C17.6512 17.5001 17.5642 17.4706 17.4932 17.4162C17.4221 17.3618 17.3711 17.2855 17.3479 17.1991C17.3247 17.1127 17.3307 17.021 17.3649 16.9384C17.3991 16.8557 17.4596 16.7867 17.5371 16.7419L18.9443 15.9294C19.0376 15.8764 19.148 15.8624 19.2516 15.8905C19.3551 15.9186 19.4433 15.9866 19.497 16.0795C19.5506 16.1724 19.5653 16.2827 19.5379 16.3864C19.5105 16.4901 19.4431 16.5788 19.3506 16.6331L17.9433 17.4456C17.8818 17.4814 17.8118 17.5002 17.7406 17.5Z" fill="#00509D"/>
<path d="M19.1462 16.6875C19.075 16.6875 19.0051 16.6687 18.9435 16.6331L15.6427 14.7277C15.5961 14.7013 15.5553 14.6658 15.5224 14.6235C15.4896 14.5812 15.4655 14.5327 15.4515 14.481C15.4374 14.4293 15.4337 14.3754 15.4406 14.3222C15.4476 14.2691 15.4649 14.2179 15.4917 14.1715C15.5185 14.1251 15.5542 14.0844 15.5967 14.0519C15.6393 14.0193 15.6879 13.9955 15.7397 13.9818C15.7915 13.9681 15.8455 13.9648 15.8985 13.9721C15.9516 13.9793 16.0027 13.997 16.049 14.0241L19.3497 15.9294C19.4272 15.9742 19.4878 16.0432 19.522 16.1259C19.5562 16.2085 19.5622 16.3002 19.539 16.3866C19.5158 16.473 19.4647 16.5493 19.3937 16.6037C19.3227 16.6581 19.2357 16.6876 19.1462 16.6875ZM0.851562 7.75C0.743818 7.75 0.640487 7.7072 0.5643 7.63101C0.488114 7.55483 0.445312 7.45149 0.445312 7.34375V5.71875C0.445312 5.61101 0.488114 5.50767 0.5643 5.43149C0.640487 5.3553 0.743818 5.3125 0.851562 5.3125C0.959307 5.3125 1.06264 5.3553 1.13882 5.43149C1.21501 5.50767 1.25781 5.61101 1.25781 5.71875V7.34375C1.25781 7.45149 1.21501 7.55483 1.13882 7.63101C1.06264 7.7072 0.959307 7.75 0.851562 7.75Z" fill="#00509D"/>
<path d="M0.851951 6.125C0.76249 6.12508 0.675502 6.09564 0.604488 6.04123C0.533474 5.98682 0.482406 5.91049 0.459208 5.82409C0.436011 5.73769 0.441981 5.64605 0.476194 5.56339C0.510406 5.48072 0.570947 5.41167 0.64842 5.36693L2.05567 4.55443C2.14893 4.50141 2.25937 4.48743 2.3629 4.51554C2.46643 4.54364 2.55464 4.61156 2.60828 4.70446C2.66192 4.79737 2.67664 4.90772 2.64922 5.01143C2.6218 5.11515 2.55447 5.2038 2.46192 5.25806L1.05467 6.07056C0.993168 6.10647 0.923172 6.12527 0.851951 6.125Z" fill="#00509D"/>
<path d="M4.15243 8.03074C4.08125 8.03072 4.01133 8.01195 3.94972 7.9763L0.648934 6.07099C0.56193 6.01403 0.500027 5.92593 0.475927 5.82476C0.451827 5.7236 0.467357 5.61705 0.519332 5.52698C0.571307 5.43691 0.655785 5.37014 0.755429 5.34039C0.855074 5.31063 0.962328 5.32014 1.05518 5.36696L4.35597 7.27227C4.43364 7.31691 4.49438 7.38598 4.52873 7.46873C4.56308 7.55147 4.56912 7.64325 4.5459 7.72978C4.52268 7.81631 4.47151 7.89274 4.40034 7.94717C4.32918 8.0016 4.24203 8.03098 4.15243 8.03074ZM10 21.9688C9.91054 21.9689 9.82355 21.9394 9.75253 21.885C9.68152 21.8306 9.63045 21.7543 9.60725 21.6679C9.58406 21.5815 9.59003 21.4898 9.62424 21.4072C9.65845 21.3245 9.71899 21.2554 9.79647 21.2107L11.2037 20.3982C11.2499 20.3711 11.3011 20.3534 11.3541 20.3462C11.4072 20.3389 11.4612 20.3422 11.513 20.3559C11.5648 20.3696 11.6134 20.3934 11.6559 20.426C11.6985 20.4585 11.7342 20.4991 11.761 20.5455C11.7878 20.5919 11.8051 20.6432 11.812 20.6963C11.8189 20.7494 11.8153 20.8034 11.8012 20.8551C11.7872 20.9068 11.7631 20.9552 11.7302 20.9976C11.6974 21.0399 11.6565 21.0754 11.61 21.1018L10.2027 21.9143C10.1412 21.9502 10.0712 21.969 10 21.9688Z" fill="#00509D"/>
<path d="M9.99902 21.9688C9.92783 21.9688 9.8579 21.95 9.7963 21.9143L8.38905 21.1018C8.34248 21.0753 8.3016 21.0399 8.26878 20.9976C8.23595 20.9552 8.21182 20.9068 8.19779 20.8551C8.18375 20.8034 8.18008 20.7494 8.18698 20.6963C8.19389 20.6432 8.21123 20.5919 8.23802 20.5455C8.26481 20.4991 8.30051 20.4585 8.34307 20.4259C8.38563 20.3934 8.43421 20.3696 8.48601 20.3559C8.5378 20.3422 8.5918 20.3389 8.64488 20.3462C8.69796 20.3534 8.74908 20.3711 8.7953 20.3982L10.2026 21.2107C10.28 21.2554 10.3406 21.3245 10.3748 21.4071C10.409 21.4898 10.415 21.5814 10.3918 21.6678C10.3686 21.7542 10.3175 21.8306 10.2465 21.885C10.1755 21.9394 10.0885 21.9688 9.99902 21.9688Z" fill="#00509D"/>
<path d="M9.99903 21.9688C9.89129 21.9688 9.78795 21.926 9.71177 21.8498C9.63558 21.7736 9.59278 21.6702 9.59278 21.5625V17.7515C9.59278 17.6437 9.63558 17.5404 9.71177 17.4642C9.78795 17.388 9.89129 17.3452 9.99903 17.3452C10.1068 17.3452 10.2101 17.388 10.2863 17.4642C10.3625 17.5404 10.4053 17.6437 10.4053 17.7515V21.5625C10.4053 21.6702 10.3625 21.7736 10.2863 21.8498C10.2101 21.926 10.1068 21.9688 9.99903 21.9688ZM8.59219 1.65625C8.50272 1.65634 8.41574 1.62689 8.34472 1.57249C8.27371 1.51808 8.22264 1.44175 8.19944 1.35535C8.17624 1.26895 8.18222 1.1773 8.21643 1.09464C8.25064 1.01198 8.31118 0.942926 8.38865 0.898192L9.7959 0.0856921C9.84212 0.0585962 9.89325 0.0409102 9.94633 0.0336523C9.99941 0.0263943 10.0534 0.0297078 10.1052 0.0434019C10.157 0.0570961 10.2056 0.0809006 10.2481 0.113445C10.2907 0.145989 10.3264 0.18663 10.3532 0.233028C10.38 0.279426 10.3973 0.330665 10.4042 0.383794C10.4111 0.436923 10.4075 0.490894 10.3934 0.542598C10.3794 0.594303 10.3553 0.64272 10.3224 0.685063C10.2896 0.727405 10.2487 0.762837 10.2022 0.789317L8.7949 1.60182C8.7334 1.63773 8.66341 1.65653 8.59219 1.65625Z" fill="#00509D"/>
<path d="M11.4053 1.65625C11.3341 1.65628 11.2642 1.6375 11.2026 1.60182L9.7953 0.789317C9.74873 0.762837 9.70785 0.727405 9.67502 0.685063C9.6422 0.64272 9.61807 0.594303 9.60404 0.542598C9.59 0.490894 9.58633 0.436923 9.59323 0.383794C9.60014 0.330665 9.61748 0.279426 9.64427 0.233028C9.67106 0.18663 9.70676 0.145989 9.74932 0.113445C9.79188 0.0809006 9.84046 0.0570961 9.89226 0.0434019C9.94405 0.0297078 9.99805 0.0263943 10.0511 0.0336523C10.1042 0.0409102 10.1553 0.0585962 10.2016 0.0856921L11.6088 0.898192C11.6863 0.942926 11.7468 1.01198 11.781 1.09464C11.8152 1.1773 11.8212 1.26895 11.798 1.35535C11.7748 1.44175 11.7237 1.51808 11.6527 1.57249C11.5817 1.62689 11.4947 1.65634 11.4053 1.65625Z" fill="#00509D"/>
<path d="M9.99909 4.65519C9.89135 4.65519 9.78802 4.61239 9.71183 4.5362C9.63564 4.46001 9.59284 4.35668 9.59284 4.24894V0.4375C9.59284 0.329756 9.63564 0.226425 9.71183 0.150238C9.78802 0.0740513 9.89135 0.03125 9.99909 0.03125C10.1068 0.03125 10.2102 0.0740513 10.2864 0.150238C10.3625 0.226425 10.4053 0.329756 10.4053 0.4375V4.24853C10.4054 4.30191 10.3949 4.35479 10.3745 4.40412C10.3541 4.45346 10.3242 4.49829 10.2865 4.53606C10.2488 4.57382 10.204 4.60378 10.1547 4.62422C10.1053 4.64467 10.0525 4.65519 9.99909 4.65519ZM9.99909 16.2812C9.92776 16.2814 9.85767 16.2626 9.79597 16.2268L5.57422 13.7893C5.51246 13.7537 5.46118 13.7024 5.42552 13.6406C5.38987 13.5789 5.3711 13.5088 5.37109 13.4375V8.5625C5.37109 8.41747 5.44828 8.283 5.57422 8.21069L9.79597 5.77319C9.8577 5.73745 9.92777 5.71863 9.99909 5.71863C10.0704 5.71863 10.1405 5.73745 10.2022 5.77319L14.424 8.21069C14.4857 8.24634 14.537 8.29763 14.5727 8.35938C14.6083 8.42114 14.6271 8.49119 14.6271 8.5625V13.4375C14.6271 13.5825 14.5499 13.717 14.424 13.7893L10.2022 16.2268C10.1405 16.2626 10.0704 16.2814 9.99909 16.2812ZM6.18359 13.2031L9.99909 15.4062L13.8146 13.2035V8.79731L9.99909 6.59422L6.18359 8.79691V13.2031Z" fill="#00509D"/>
</svg>
