<svg width="22" height="22" viewBox="0 0 22 22" fill="none" xmlns="http://www.w3.org/2000/svg">
<path d="M13.9707 12.0916C13.863 12.0916 13.7596 12.0488 13.6834 11.9726C13.6073 11.8964 13.5645 11.7931 13.5645 11.6854V8.02911C13.5645 7.92137 13.6073 7.81804 13.6834 7.74185C13.7596 7.66566 13.863 7.62286 13.9707 7.62286C14.0784 7.62286 14.1818 7.66566 14.258 7.74185C14.3342 7.81804 14.377 7.92137 14.377 8.02911V11.6854C14.377 11.7931 14.3342 11.8964 14.258 11.9726C14.1818 12.0488 14.0784 12.0916 13.9707 12.0916Z" fill="#00509D"/>
<path d="M13.9707 8.43536H10.3145C10.2067 8.43536 10.1034 8.39256 10.0272 8.31638C9.951 8.24019 9.9082 8.13686 9.9082 8.02911C9.9082 7.92137 9.951 7.81804 10.0272 7.74185C10.1034 7.66566 10.2067 7.62286 10.3145 7.62286H13.9707C14.0784 7.62286 14.1818 7.66566 14.258 7.74185C14.3342 7.81804 14.377 7.92137 14.377 8.02911C14.377 8.13686 14.3342 8.24019 14.258 8.31638C14.1818 8.39256 14.0784 8.43536 13.9707 8.43536Z" fill="#00509D"/>
<path d="M9.37549 13.0313C9.29507 13.0314 9.21641 13.0077 9.14949 12.9631C9.08257 12.9185 9.03041 12.855 8.99964 12.7807C8.96886 12.7064 8.96086 12.6247 8.97664 12.5458C8.99242 12.4669 9.03127 12.3945 9.08827 12.3378L13.6842 7.74189C13.7219 7.70418 13.7667 7.67426 13.816 7.65384C13.8652 7.63343 13.9181 7.62292 13.9714 7.62292C14.0247 7.62292 14.0776 7.63343 14.1268 7.65384C14.1761 7.67426 14.2209 7.70418 14.2586 7.74189C14.2963 7.77961 14.3263 7.82439 14.3467 7.87367C14.3671 7.92295 14.3776 7.97577 14.3776 8.02911C14.3776 8.08246 14.3671 8.13527 14.3467 8.18456C14.3263 8.23384 14.2963 8.27861 14.2586 8.31633L9.66271 12.9122C9.62503 12.95 9.58027 12.98 9.53098 13.0004C9.48169 13.0208 9.42885 13.0313 9.37549 13.0313Z" fill="#00509D"/>
<path d="M9.375 13.0312H1.25C1.14226 13.0312 1.03892 12.9884 0.962738 12.9123C0.886551 12.8361 0.84375 12.7327 0.84375 12.625C0.84375 12.5173 0.886551 12.4139 0.962738 12.3377C1.03892 12.2616 1.14226 12.2188 1.25 12.2188H9.375C9.48274 12.2188 9.58608 12.2616 9.66226 12.3377C9.73845 12.4139 9.78125 12.5173 9.78125 12.625C9.78125 12.7327 9.73845 12.8361 9.66226 12.9123C9.58608 12.9884 9.48274 13.0312 9.375 13.0312ZM9.375 21.1562H1.25C1.14226 21.1562 1.03892 21.1134 0.962738 21.0373C0.886551 20.9611 0.84375 20.8577 0.84375 20.75C0.84375 20.6423 0.886551 20.5389 0.962738 20.4627C1.03892 20.3866 1.14226 20.3438 1.25 20.3438H9.375C9.48274 20.3438 9.58608 20.3866 9.66226 20.4627C9.73845 20.5389 9.78125 20.6423 9.78125 20.75C9.78125 20.8577 9.73845 20.9611 9.66226 21.0373C9.58608 21.1134 9.48274 21.1562 9.375 21.1562Z" fill="#00509D"/>
<path d="M9.375 21.1562C9.26726 21.1562 9.16392 21.1134 9.08774 21.0373C9.01155 20.9611 8.96875 20.8577 8.96875 20.75V12.625C8.96875 12.5173 9.01155 12.4139 9.08774 12.3377C9.16392 12.2616 9.26726 12.2188 9.375 12.2188C9.48274 12.2188 9.58608 12.2616 9.66226 12.3377C9.73845 12.4139 9.78125 12.5173 9.78125 12.625V20.75C9.78125 20.8577 9.73845 20.9611 9.66226 21.0373C9.58608 21.1134 9.48274 21.1562 9.375 21.1562ZM1.25 14.6562C1.14226 14.6562 1.03892 14.6134 0.962738 14.5373C0.886551 14.4611 0.84375 14.3577 0.84375 14.25V12.625C0.84375 12.5173 0.886551 12.4139 0.962738 12.3377C1.03892 12.2616 1.14226 12.2188 1.25 12.2188C1.35774 12.2188 1.46108 12.2616 1.53726 12.3377C1.61345 12.4139 1.65625 12.5173 1.65625 12.625V14.25C1.65625 14.3577 1.61345 14.4611 1.53726 14.5373C1.46108 14.6134 1.35774 14.6562 1.25 14.6562ZM1.25 21.1562C1.14226 21.1562 1.03892 21.1134 0.962738 21.0373C0.886551 20.9611 0.84375 20.8577 0.84375 20.75V17.5C0.84375 17.3923 0.886551 17.2889 0.962738 17.2127C1.03892 17.1366 1.14226 17.0938 1.25 17.0938C1.35774 17.0938 1.46108 17.1366 1.53726 17.2127C1.61345 17.2889 1.65625 17.3923 1.65625 17.5V20.75C1.65625 20.8577 1.61345 20.9611 1.53726 21.0373C1.46108 21.1134 1.35774 21.1562 1.25 21.1562Z" fill="#00509D"/>
<path d="M20.75 17.0938H9.375C9.26726 17.0938 9.16392 17.0509 9.08774 16.9748C9.01155 16.8986 8.96875 16.7952 8.96875 16.6875C8.96875 16.5798 9.01155 16.4764 9.08774 16.4002C9.16392 16.3241 9.26726 16.2812 9.375 16.2812H20.75C20.8577 16.2812 20.9611 16.3241 21.0373 16.4002C21.1134 16.4764 21.1562 16.5798 21.1562 16.6875C21.1562 16.7952 21.1134 16.8986 21.0373 16.9748C20.9611 17.0509 20.8577 17.0938 20.75 17.0938ZM20.75 1.65625H5.3125C5.20476 1.65625 5.10142 1.61345 5.02524 1.53726C4.94905 1.46108 4.90625 1.35774 4.90625 1.25C4.90625 1.14226 4.94905 1.03892 5.02524 0.962738C5.10142 0.886551 5.20476 0.84375 5.3125 0.84375H20.75C20.8577 0.84375 20.9611 0.886551 21.0373 0.962738C21.1134 1.03892 21.1562 1.14226 21.1562 1.25C21.1562 1.35774 21.1134 1.46108 21.0373 1.53726C20.9611 1.61345 20.8577 1.65625 20.75 1.65625Z" fill="#00509D"/>
<path d="M5.3125 13.0312C5.20476 13.0312 5.10142 12.9884 5.02524 12.9123C4.94905 12.8361 4.90625 12.7327 4.90625 12.625V1.25C4.90625 1.14226 4.94905 1.03892 5.02524 0.962738C5.10142 0.886551 5.20476 0.84375 5.3125 0.84375C5.42024 0.84375 5.52358 0.886551 5.59976 0.962738C5.67595 1.03892 5.71875 1.14226 5.71875 1.25V12.625C5.71875 12.7327 5.67595 12.8361 5.59976 12.9123C5.52358 12.9884 5.42024 13.0312 5.3125 13.0312ZM20.75 17.0938C20.6423 17.0938 20.5389 17.0509 20.4627 16.9748C20.3866 16.8986 20.3438 16.7952 20.3438 16.6875V6.9375C20.3438 6.82976 20.3866 6.72642 20.4627 6.65024C20.5389 6.57405 20.6423 6.53125 20.75 6.53125C20.8577 6.53125 20.9611 6.57405 21.0373 6.65024C21.1134 6.72642 21.1562 6.82976 21.1562 6.9375V16.6875C21.1562 16.7952 21.1134 16.8986 21.0373 16.9748C20.9611 17.0509 20.8577 17.0938 20.75 17.0938ZM20.75 4.09375C20.6423 4.09375 20.5389 4.05095 20.4627 3.97476C20.3866 3.89858 20.3438 3.79524 20.3438 3.6875V1.25C20.3438 1.14226 20.3866 1.03892 20.4627 0.962738C20.5389 0.886551 20.6423 0.84375 20.75 0.84375C20.8577 0.84375 20.9611 0.886551 21.0373 0.962738C21.1134 1.03892 21.1562 1.14226 21.1562 1.25V3.6875C21.1562 3.79524 21.1134 3.89858 21.0373 3.97476C20.9611 4.05095 20.8577 4.09375 20.75 4.09375ZM1.25 16.2812C1.14437 16.2812 1.03834 16.2366 0.961562 16.1634C0.888031 16.0862 0.84375 15.9847 0.84375 15.875C0.84375 15.7694 0.888031 15.6633 0.961562 15.5866C1.11594 15.4363 1.38813 15.4363 1.53844 15.5866C1.61156 15.6633 1.65625 15.7694 1.65625 15.875C1.65625 15.9806 1.61156 16.0862 1.53844 16.1634C1.46125 16.2366 1.35562 16.2812 1.25 16.2812ZM20.75 5.71875C20.6444 5.71875 20.5383 5.67406 20.4616 5.60094C20.388 5.52375 20.3438 5.42219 20.3438 5.3125C20.3438 5.20241 20.388 5.10084 20.4616 5.02406C20.6119 4.87375 20.8881 4.87375 21.0384 5.02406C21.1116 5.10084 21.1562 5.20687 21.1562 5.3125C21.1562 5.41813 21.1116 5.52375 21.0384 5.60094C20.9613 5.67406 20.8556 5.71875 20.75 5.71875Z" fill="#00509D"/>
</svg>
