<svg width="22" height="22" viewBox="0 0 22 22" fill="none" xmlns="http://www.w3.org/2000/svg">
<path d="M10.9757 11.3148C10.6162 11.3149 10.2584 11.2658 9.91215 11.169C7.93128 10.6136 6.67272 8.59009 7.04769 6.56371C7.41575 4.57512 9.31375 3.10734 11.3718 3.29665C13.4173 3.48475 15.0191 5.24259 15.0191 7.29903C15.0191 7.79059 14.9314 8.27118 14.7579 8.72618C14.1705 10.2744 12.6503 11.3148 10.9757 11.3148ZM11.0123 4.0925C9.48397 4.0925 8.12344 5.21821 7.84678 6.71118C7.54778 8.32887 8.55122 9.94331 10.1319 10.3865C10.4066 10.4634 10.6905 10.5024 10.9757 10.5023C12.3147 10.5023 13.5298 9.67234 13.999 8.43734C14.1372 8.07415 14.207 7.69146 14.207 7.29862C14.207 5.65818 12.929 4.2554 11.2975 4.1055C11.2026 4.09693 11.1075 4.0926 11.0123 4.0925ZM20.7505 17.9472C20.6843 17.9474 20.6191 17.9313 20.5605 17.9004C20.502 17.8695 20.4518 17.8248 20.4145 17.7701L16.6778 12.2979C16.6478 12.2538 16.6266 12.2043 16.6157 12.152C16.6048 12.0997 16.6043 12.0459 16.6142 11.9934C16.6241 11.9409 16.6442 11.891 16.6734 11.8463C16.7027 11.8016 16.7404 11.7631 16.7845 11.733C16.8286 11.703 16.8782 11.6818 16.9304 11.6709C16.9827 11.66 17.0366 11.6595 17.089 11.6694C17.1415 11.6793 17.1915 11.6994 17.2361 11.7286C17.2808 11.7579 17.3193 11.7956 17.3494 11.8397L21.0861 17.3119C21.1278 17.3729 21.152 17.4442 21.1562 17.518C21.1604 17.5918 21.1443 17.6653 21.1098 17.7307C21.0753 17.7961 21.0236 17.8508 20.9603 17.8889C20.897 17.9271 20.8244 17.9473 20.7505 17.9472ZM1.24969 17.9472C1.17579 17.9472 1.10332 17.927 1.04006 17.8888C0.976799 17.8506 0.925151 17.7959 0.890676 17.7305C0.856202 17.6652 0.840205 17.5917 0.844408 17.5179C0.848611 17.4441 0.872854 17.3729 0.914529 17.3119L4.65162 11.8397C4.68171 11.7956 4.72019 11.7579 4.76485 11.7287C4.80951 11.6995 4.85949 11.6794 4.91192 11.6695C4.96436 11.6596 5.01823 11.6602 5.07045 11.6711C5.12268 11.682 5.17224 11.7032 5.21631 11.7332C5.26038 11.7633 5.29809 11.8018 5.32728 11.8465C5.35648 11.8911 5.3766 11.9411 5.38648 11.9935C5.39636 12.046 5.39582 12.0999 5.38489 12.1521C5.37395 12.2043 5.35284 12.2539 5.32275 12.2979L1.58565 17.7701C1.54827 17.8247 1.49814 17.8694 1.43959 17.9003C1.38105 17.9311 1.31587 17.9473 1.24969 17.9472ZM5.94634 21.1546C5.87245 21.1545 5.79997 21.1343 5.73671 21.0961C5.67345 21.058 5.62181 21.0032 5.58733 20.9379C5.55286 20.8725 5.53686 20.799 5.54106 20.7252C5.54527 20.6515 5.56951 20.5802 5.61119 20.5192L10.6645 13.1198C10.6946 13.0757 10.7331 13.038 10.7778 13.0088C10.8224 12.9796 10.8724 12.9595 10.9248 12.9496C10.9773 12.9397 11.0311 12.9403 11.0834 12.9512C11.1356 12.9621 11.1851 12.9832 11.2292 13.0133C11.2733 13.0434 11.311 13.0819 11.3402 13.1266C11.3694 13.1712 11.3895 13.2212 11.3994 13.2736C11.4093 13.3261 11.4087 13.3799 11.3978 13.4322C11.3869 13.4844 11.3657 13.534 11.3357 13.578L6.2819 20.9779C6.24461 21.0324 6.19455 21.0771 6.13606 21.1079C6.07757 21.1387 6.01244 21.1547 5.94634 21.1546Z" fill="#00509D"/>
<path d="M11.0338 13.7519C8.51059 13.7519 6.19862 12.2874 5.14318 10.0205C4.32703 8.26714 4.36115 6.24036 5.23703 4.46098C6.1129 2.68161 7.69768 1.41939 9.58431 0.997293C10.0369 0.896121 10.4993 0.844898 10.9631 0.844543C14.4829 0.844543 17.4562 3.80001 17.4562 7.29864C17.4562 10.2964 15.336 12.9459 12.4151 13.6C11.9616 13.701 11.4984 13.7519 11.0338 13.7519ZM10.9635 1.65745C10.5617 1.65745 10.1575 1.70214 9.76184 1.7907C8.11653 2.15876 6.73284 3.26295 5.96625 4.82011C5.19925 6.37807 5.16797 8.14851 5.88012 9.67804C6.80231 11.6593 8.82543 12.9394 11.0334 12.9394C11.4388 12.9394 11.8443 12.8951 12.2379 12.807C14.7908 12.2358 16.6441 9.91936 16.6441 7.29864C16.6445 4.24079 14.0429 1.65745 10.9635 1.65745Z" fill="#00509D"/>
<path d="M16.0539 21.1546C15.9877 21.1547 15.9224 21.1386 15.8639 21.1078C15.8053 21.0769 15.7552 21.0322 15.7179 20.9775L10.665 13.5784C10.6349 13.5344 10.6138 13.4848 10.6028 13.4326C10.5919 13.3804 10.5913 13.3265 10.6012 13.2741C10.6111 13.2216 10.6312 13.1716 10.6604 13.127C10.6896 13.0823 10.7273 13.0438 10.7714 13.0138C10.8155 12.9837 10.865 12.9626 10.9173 12.9516C10.9695 12.9407 11.0234 12.9401 11.0758 12.95C11.1282 12.9599 11.1782 12.98 11.2229 13.0092C11.2675 13.0384 11.306 13.0761 11.3361 13.1202L16.3894 20.5196C16.431 20.5807 16.4552 20.6519 16.4593 20.7256C16.4634 20.7994 16.4474 20.8729 16.4129 20.9382C16.3783 21.0035 16.3267 21.0581 16.2634 21.0963C16.2002 21.1344 16.1277 21.1546 16.0539 21.1546ZM1.25012 17.9473C1.14394 17.9473 1.04196 17.9057 0.966031 17.8315C0.890099 17.7573 0.846243 17.6563 0.843853 17.5501C0.841463 17.444 0.88073 17.3411 0.953246 17.2636C1.02576 17.186 1.12576 17.1399 1.23184 17.1352L4.78693 16.9719C4.89429 16.968 4.99889 17.0063 5.07827 17.0787C5.15765 17.1511 5.20547 17.2517 5.21146 17.359C5.21392 17.4123 5.20585 17.4656 5.18773 17.5157C5.1696 17.5659 5.14177 17.612 5.10581 17.6515C5.06986 17.6909 5.0265 17.7228 4.9782 17.7455C4.9299 17.7682 4.8776 17.7811 4.82431 17.7835L1.26881 17.9468L1.25012 17.9473Z" fill="#00509D"/>
<path d="M5.94785 21.1546C5.86289 21.1545 5.78008 21.1279 5.71107 21.0783C5.64205 21.0288 5.59032 20.9588 5.56313 20.8783L4.42157 17.5077C4.40368 17.457 4.39604 17.4032 4.39909 17.3495C4.40214 17.2959 4.41581 17.2433 4.43932 17.195C4.46282 17.1466 4.4957 17.1034 4.53603 17.0678C4.57636 17.0323 4.62335 17.0051 4.67427 16.9878C4.72519 16.9705 4.77904 16.9636 4.83268 16.9673C4.88632 16.971 4.93869 16.9853 4.98675 17.0094C5.03482 17.0335 5.07762 17.0669 5.11269 17.1077C5.14775 17.1484 5.17437 17.1957 5.191 17.2469L6.33257 20.6179C6.35319 20.6791 6.35897 20.7442 6.34944 20.808C6.33991 20.8718 6.31534 20.9324 6.27775 20.9849C6.24017 21.0373 6.19065 21.08 6.13328 21.1095C6.07592 21.139 6.01236 21.1545 5.94785 21.1546ZM16.0541 21.1546C15.9896 21.1546 15.926 21.1392 15.8686 21.1097C15.8112 21.0802 15.7616 21.0375 15.724 20.985C15.6864 20.9326 15.6618 20.8719 15.6523 20.8081C15.6428 20.7442 15.6487 20.6791 15.6694 20.6179L16.811 17.2469C16.8833 17.0344 17.1157 16.9202 17.3261 16.9921C17.5386 17.0645 17.6527 17.2948 17.5808 17.5077L16.4393 20.8783C16.3816 21.0477 16.2235 21.1546 16.0541 21.1546Z" fill="#00509D"/>
<path d="M20.7512 17.9473L20.7321 17.9469L17.1766 17.7836C17.1234 17.7811 17.0711 17.7682 17.0228 17.7455C16.9745 17.7229 16.9311 17.6909 16.8951 17.6515C16.8592 17.6121 16.8314 17.5659 16.8132 17.5158C16.7951 17.4656 16.787 17.4123 16.7895 17.359C16.8001 17.1348 16.9934 16.9678 17.214 16.9719L20.7695 17.1352C20.8756 17.1399 20.9756 17.186 21.0481 17.2636C21.1206 17.3411 21.1599 17.444 21.1575 17.5502C21.1551 17.6563 21.1113 17.7573 21.0353 17.8315C20.9594 17.9058 20.8574 17.9473 20.7512 17.9473Z" fill="#00509D"/>
<path d="M17.1946 17.7835C17.1284 17.7836 17.0632 17.7676 17.0046 17.7367C16.946 17.7058 16.8959 17.6611 16.8586 17.6064L15.3677 15.4232C15.3376 15.3791 15.3165 15.3295 15.3056 15.2773C15.2946 15.225 15.2941 15.1711 15.304 15.1187C15.3139 15.0662 15.3341 15.0162 15.3633 14.9716C15.3925 14.9269 15.4302 14.8884 15.4743 14.8583C15.5184 14.8282 15.568 14.8071 15.6203 14.7962C15.6725 14.7853 15.7264 14.7847 15.7789 14.7947C15.8313 14.8046 15.8813 14.8247 15.926 14.8539C15.9706 14.8831 16.0091 14.9209 16.0392 14.965L17.5302 17.1482C17.5718 17.2092 17.5961 17.2805 17.6003 17.3543C17.6045 17.4281 17.5884 17.5016 17.5539 17.567C17.5194 17.6324 17.4677 17.6871 17.4044 17.7252C17.341 17.7634 17.2685 17.7835 17.1946 17.7835ZM4.80437 17.7835C4.73048 17.7835 4.65801 17.7633 4.59475 17.7251C4.53149 17.6869 4.47984 17.6322 4.44536 17.5668C4.41089 17.5015 4.39489 17.4279 4.3991 17.3542C4.4033 17.2804 4.42754 17.2092 4.46922 17.1482L5.96015 14.965C6.02092 14.876 6.11455 14.8148 6.22045 14.7948C6.32635 14.7748 6.43585 14.7978 6.52484 14.8585C6.61384 14.9193 6.67505 15.0129 6.69501 15.1188C6.71497 15.2247 6.69205 15.3342 6.63128 15.4232L5.14034 17.6064C5.10303 17.6611 5.05292 17.7058 4.99436 17.7367C4.9358 17.7676 4.87057 17.7836 4.80437 17.7835Z" fill="#00509D"/>
</svg>
