<svg width="18" height="17" viewBox="0 0 18 17" fill="none" xmlns="http://www.w3.org/2000/svg">
<path d="M14.6213 13.6433C13.5623 14.9163 9.18698 12.2409 7.42261 10.1696L11.069 6.89014C12.9981 8.65934 15.6329 12.3056 14.6213 13.6433Z" fill="black" stroke="white"/>
<path fill-rule="evenodd" clip-rule="evenodd" d="M14.8449 3.76224C14.0767 5.25606 7.61396 10.0438 7.61396 10.0438C8.70645 11.3582 10.4743 12.6969 11.9796 13.3725C12.9184 13.7939 13.7254 14.0207 14.2933 13.6283L14.5137 13.5813C13.2358 14.8205 11.4922 15.5834 9.56994 15.5834C5.65104 15.5834 2.47412 12.4121 2.47412 8.50008C2.47412 4.58806 5.65104 1.41675 9.56994 1.41675C11.664 1.41675 13.5461 2.32218 14.8449 3.76224Z" fill="white"/>
</svg>
