<svg width="52" height="52" viewBox="0 0 52 52" fill="none" xmlns="http://www.w3.org/2000/svg">
<path d="M25.984 52.0026C24.274 52.0026 22.556 51.8346 20.855 51.4916C14.021 50.1137 7.935 45.9696 4.158 40.1196C-0.936998 32.2296 -1.331 21.8136 3.156 13.5856C7.706 5.23965 16.795 -0.107351 26.283 0.00364878C35.902 0.100649 44.907 5.71465 49.226 14.3076C53.466 22.7446 52.709 33.1886 47.3 40.9166C47.2247 41.0243 47.1289 41.116 47.0182 41.1866C46.9074 41.2572 46.7838 41.3053 46.6544 41.3281C46.5251 41.351 46.3925 41.3481 46.2643 41.3197C46.136 41.2913 46.0146 41.238 45.907 41.1626C45.7994 41.0873 45.7077 40.9916 45.637 40.8808C45.5664 40.77 45.5183 40.6465 45.4955 40.5171C45.4727 40.3877 45.4755 40.2552 45.5039 40.1269C45.5323 39.9987 45.5857 39.8773 45.661 39.7696C50.655 32.6367 51.353 22.9946 47.439 15.2066C43.453 7.27465 35.141 2.09265 26.263 2.00365L26.033 2.00265C17.346 2.00265 9.076 6.90465 4.912 14.5426C0.771001 22.1376 1.135 31.7516 5.838 39.0356C9.325 44.4336 14.942 48.2597 21.251 49.5317C24.5539 50.1952 27.9594 50.1575 31.2467 49.4209C34.5341 48.6843 37.6301 47.2652 40.334 45.2556C40.547 45.1035 40.8113 45.0409 41.0699 45.0814C41.3286 45.1219 41.561 45.2623 41.7174 45.4723C41.8737 45.6823 41.9414 45.9452 41.906 46.2046C41.8706 46.464 41.7349 46.6992 41.528 46.8596C37.0341 50.2 31.5834 52.0034 25.984 52.0026Z" fill="#808080"/>
<path d="M29.919 17.4238H16.58C16.3148 17.4238 16.0604 17.3185 15.8729 17.1309C15.6854 16.9434 15.58 16.689 15.58 16.4238C15.58 16.1586 15.6854 15.9043 15.8729 15.7167C16.0604 15.5292 16.3148 15.4238 16.58 15.4238H29.919C30.1842 15.4238 30.4386 15.5292 30.6261 15.7167C30.8136 15.9043 30.919 16.1586 30.919 16.4238C30.919 16.689 30.8136 16.9434 30.6261 17.1309C30.4386 17.3185 30.1842 17.4238 29.919 17.4238Z" fill="#808080"/>
<path d="M16.58 36.5838C10.845 36.5838 6 31.7388 6 26.0038C6 20.2688 10.845 15.4238 16.58 15.4238C16.8452 15.4238 17.0996 15.5292 17.2871 15.7167C17.4746 15.9043 17.58 16.1586 17.58 16.4238C17.58 16.689 17.4746 16.9434 17.2871 17.1309C17.0996 17.3185 16.8452 17.4238 16.58 17.4238C11.93 17.4238 8 21.3528 8 26.0038C8 30.6548 11.929 34.5838 16.58 34.5838C16.8452 34.5838 17.0996 34.6892 17.2871 34.8767C17.4746 35.0643 17.58 35.3186 17.58 35.5838C17.58 35.849 17.4746 36.1034 17.2871 36.2909C17.0996 36.4785 16.8452 36.5838 16.58 36.5838ZM35.421 36.5838H22.082C21.8168 36.5838 21.5624 36.4785 21.3749 36.2909C21.1874 36.1034 21.082 35.849 21.082 35.5838C21.082 35.3186 21.1874 35.0643 21.3749 34.8767C21.5624 34.6892 21.8168 34.5838 22.082 34.5838H35.421C35.6862 34.5838 35.9406 34.6892 36.1281 34.8767C36.3156 35.0643 36.421 35.3186 36.421 35.5838C36.421 35.849 36.3156 36.1034 36.1281 36.2909C35.9406 36.4785 35.6862 36.5838 35.421 36.5838Z" fill="#808080"/>
<path d="M35.421 36.5838C35.1558 36.5838 34.9014 36.4785 34.7139 36.2909C34.5264 36.1034 34.421 35.849 34.421 35.5838C34.421 35.3186 34.5264 35.0643 34.7139 34.8767C34.9014 34.6892 35.1558 34.5838 35.421 34.5838C40.071 34.5838 44.001 30.6548 44.001 26.0038C44.001 21.3528 40.072 17.4238 35.421 17.4238C35.1558 17.4238 34.9014 17.3185 34.7139 17.1309C34.5264 16.9434 34.421 16.689 34.421 16.4238C34.421 16.1586 34.5264 15.9043 34.7139 15.7167C34.9014 15.5292 35.1558 15.4238 35.421 15.4238C41.156 15.4238 46.001 20.2688 46.001 26.0038C46.001 31.7388 41.156 36.5838 35.421 36.5838ZM22.082 25.2618C21.884 25.2623 21.6904 25.2039 21.5257 25.0941C21.361 24.9843 21.2326 24.828 21.1568 24.6451C21.0811 24.4622 21.0614 24.2609 21.1002 24.0668C21.1391 23.8727 21.2347 23.6945 21.375 23.5548L29.212 15.7178C29.3048 15.625 29.4151 15.5513 29.5364 15.5011C29.6577 15.4508 29.7877 15.425 29.919 15.425C30.0503 15.425 30.1803 15.4508 30.3016 15.5011C30.4229 15.5513 30.5332 15.625 30.626 15.7178C30.7188 15.8107 30.7925 15.9209 30.8427 16.0422C30.893 16.1635 30.9189 16.2935 30.9189 16.4248C30.9189 16.5561 30.893 16.6861 30.8427 16.8075C30.7925 16.9288 30.7188 17.039 30.626 17.1318L22.789 24.9688C22.6964 25.062 22.5862 25.1359 22.4649 25.1862C22.3435 25.2365 22.2134 25.2622 22.082 25.2618Z" fill="#808080"/>
<path d="M29.919 17.4247C29.7877 17.4249 29.6576 17.3991 29.5363 17.3488C29.4149 17.2985 29.3047 17.2247 29.212 17.1317L21.375 9.29474C21.2822 9.2019 21.2085 9.09167 21.1583 8.97037C21.108 8.84906 21.0822 8.71904 21.0822 8.58774C21.0822 8.45644 21.108 8.32642 21.1583 8.20511C21.2085 8.08381 21.2822 7.97358 21.375 7.88074C21.4678 7.78789 21.5781 7.71425 21.6994 7.664C21.8207 7.61375 21.9507 7.58789 22.082 7.58789C22.2133 7.58789 22.3433 7.61375 22.4646 7.664C22.5859 7.71425 22.6962 7.78789 22.789 7.88074L30.626 15.7177C30.7663 15.8574 30.8619 16.0356 30.9008 16.2297C30.9396 16.4238 30.9199 16.6251 30.8442 16.808C30.7684 16.9909 30.64 17.1472 30.4753 17.257C30.3106 17.3668 30.117 17.4252 29.919 17.4247ZM22.082 36.5837C21.884 36.5842 21.6904 36.5258 21.5257 36.416C21.361 36.3062 21.2326 36.1499 21.1568 35.967C21.0811 35.7841 21.0614 35.5828 21.1002 35.3887C21.1391 35.1946 21.2347 35.0164 21.375 34.8767L29.212 27.0397C29.3048 26.9469 29.4151 26.8732 29.5364 26.823C29.6577 26.7728 29.7877 26.7469 29.919 26.7469C30.0503 26.7469 30.1803 26.7728 30.3016 26.823C30.4229 26.8732 30.5332 26.9469 30.626 27.0397C30.7188 27.1326 30.7925 27.2428 30.8427 27.3641C30.893 27.4854 30.9189 27.6154 30.9189 27.7467C30.9189 27.878 30.893 28.0081 30.8427 28.1294C30.7925 28.2507 30.7188 28.3609 30.626 28.4537L22.789 36.2907C22.6964 36.3839 22.5862 36.4578 22.4649 36.5081C22.3435 36.5584 22.2134 36.5841 22.082 36.5837Z" fill="#808080"/>
<path d="M29.919 44.4208C29.7877 44.421 29.6576 44.3952 29.5363 44.3449C29.4149 44.2946 29.3047 44.2208 29.212 44.1278L21.375 36.2908C21.1875 36.1033 21.0822 35.849 21.0822 35.5838C21.0822 35.3187 21.1875 35.0643 21.375 34.8768C21.5625 34.6893 21.8168 34.584 22.082 34.584C22.3472 34.584 22.6015 34.6893 22.789 34.8768L30.626 42.7138C30.7663 42.8535 30.8619 43.0317 30.9008 43.2258C30.9396 43.4199 30.9199 43.6212 30.8442 43.8041C30.7684 43.987 30.64 44.1433 30.4753 44.2531C30.3106 44.3629 30.117 44.4213 29.919 44.4208ZM43.94 44.4198C43.67 44.4198 43.41 44.3198 43.23 44.1298C43.1355 44.0372 43.0603 43.9268 43.0088 43.8049C42.9574 43.683 42.9306 43.5521 42.93 43.4198C42.93 43.1598 43.04 42.8998 43.23 42.7098C43.6 42.3498 44.27 42.3398 44.64 42.7198C44.83 42.8998 44.93 43.1598 44.93 43.4198C44.93 43.6898 44.83 43.9398 44.64 44.1298C44.46 44.3198 44.2 44.4198 43.94 44.4198Z" fill="#808080"/>
</svg>
