<svg width="54" height="54" viewBox="0 0 54 54" fill="none" xmlns="http://www.w3.org/2000/svg">
<path d="M1 49.5C0.867392 49.5 0.740215 49.4473 0.646447 49.3536C0.552679 49.2598 0.5 49.1326 0.5 49V22C0.5 21.8674 0.552679 21.7402 0.646447 21.6464C0.740215 21.5527 0.867392 21.5 1 21.5C1.13261 21.5 1.25979 21.5527 1.35355 21.6464C1.44732 21.7402 1.5 21.8674 1.5 22V49C1.5 49.1326 1.44732 49.2598 1.35355 49.3536C1.25979 49.4473 1.13261 49.5 1 49.5ZM1 19.5C0.867392 19.5 0.740215 19.4473 0.646447 19.3536C0.552679 19.2598 0.5 19.1326 0.5 19V18C0.5 17.8674 0.552679 17.7402 0.646447 17.6464C0.740215 17.5527 0.867392 17.5 1 17.5C1.13261 17.5 1.25979 17.5527 1.35355 17.6464C1.44732 17.7402 1.5 17.8674 1.5 18V19C1.5 19.1326 1.44732 19.2598 1.35355 19.3536C1.25979 19.4473 1.13261 19.5 1 19.5ZM1 15.5C0.867392 15.5 0.740215 15.4473 0.646447 15.3536C0.552679 15.2598 0.5 15.1326 0.5 15V11C0.5 10.8674 0.552679 10.7402 0.646447 10.6464C0.740215 10.5527 0.867392 10.5 1 10.5C1.13261 10.5 1.25979 10.5527 1.35355 10.6464C1.44732 10.7402 1.5 10.8674 1.5 11V15C1.5 15.1326 1.44732 15.2598 1.35355 15.3536C1.25979 15.4473 1.13261 15.5 1 15.5ZM53 40.5C52.8674 40.5 52.7402 40.4473 52.6464 40.3536C52.5527 40.2598 52.5 40.1326 52.5 40V31C52.5 30.8674 52.5527 30.7402 52.6464 30.6464C52.7402 30.5527 52.8674 30.5 53 30.5C53.1326 30.5 53.2598 30.5527 53.3536 30.6464C53.4473 30.7402 53.5 30.8674 53.5 31V40C53.5 40.1326 53.4473 40.2598 53.3536 40.3536C53.2598 40.4473 53.1326 40.5 53 40.5ZM53 44.5C52.8674 44.5 52.7402 44.4473 52.6464 44.3536C52.5527 44.2598 52.5 44.1326 52.5 44V43C52.5 42.8674 52.5527 42.7402 52.6464 42.6464C52.7402 42.5527 52.8674 42.5 53 42.5C53.1326 42.5 53.2598 42.5527 53.3536 42.6464C53.4473 42.7402 53.5 42.8674 53.5 43V44C53.5 44.1326 53.4473 44.2598 53.3536 44.3536C53.2598 44.4473 53.1326 44.5 53 44.5ZM53 49.5C52.8674 49.5 52.7402 49.4473 52.6464 49.3536C52.5527 49.2598 52.5 49.1326 52.5 49V47C52.5 46.8674 52.5527 46.7402 52.6464 46.6464C52.7402 46.5527 52.8674 46.5 53 46.5C53.1326 46.5 53.2598 46.5527 53.3536 46.6464C53.4473 46.7402 53.5 46.8674 53.5 47V49C53.5 49.1326 53.4473 49.2598 53.3536 49.3536C53.2598 49.4473 53.1326 49.5 53 49.5ZM27 31.5H17C16.8674 31.5 16.7402 31.4473 16.6464 31.3536C16.5527 31.2598 16.5 31.1326 16.5 31C16.5 30.8674 16.5527 30.7402 16.6464 30.6464C16.7402 30.5527 16.8674 30.5 17 30.5H27C27.1326 30.5 27.2598 30.5527 27.3536 30.6464C27.4473 30.7402 27.5 30.8674 27.5 31C27.5 31.1326 27.4473 31.2598 27.3536 31.3536C27.2598 31.4473 27.1326 31.5 27 31.5ZM27 35.5H17C16.8674 35.5 16.7402 35.4473 16.6464 35.3536C16.5527 35.2598 16.5 35.1326 16.5 35C16.5 34.8674 16.5527 34.7402 16.6464 34.6464C16.7402 34.5527 16.8674 34.5 17 34.5H27C27.1326 34.5 27.2598 34.5527 27.3536 34.6464C27.4473 34.7402 27.5 34.8674 27.5 35C27.5 35.1326 27.4473 35.2598 27.3536 35.3536C27.2598 35.4473 27.1326 35.5 27 35.5ZM27 42.5H17C16.8674 42.5 16.7402 42.4473 16.6464 42.3536C16.5527 42.2598 16.5 42.1326 16.5 42C16.5 41.8674 16.5527 41.7402 16.6464 41.6464C16.7402 41.5527 16.8674 41.5 17 41.5H27C27.1326 41.5 27.2598 41.5527 27.3536 41.6464C27.4473 41.7402 27.5 41.8674 27.5 42C27.5 42.1326 27.4473 42.2598 27.3536 42.3536C27.2598 42.4473 27.1326 42.5 27 42.5ZM27 46.5H17C16.8674 46.5 16.7402 46.4473 16.6464 46.3536C16.5527 46.2598 16.5 46.1326 16.5 46C16.5 45.8674 16.5527 45.7402 16.6464 45.6464C16.7402 45.5527 16.8674 45.5 17 45.5H27C27.1326 45.5 27.2598 45.5527 27.3536 45.6464C27.4473 45.7402 27.5 45.8674 27.5 46C27.5 46.1326 27.4473 46.2598 27.3536 46.3536C27.2598 46.4473 27.1326 46.5 27 46.5ZM38 24.5H17C16.8674 24.5 16.7402 24.4473 16.6464 24.3536C16.5527 24.2598 16.5 24.1326 16.5 24C16.5 23.8674 16.5527 23.7402 16.6464 23.6464C16.7402 23.5527 16.8674 23.5 17 23.5H38C38.1326 23.5 38.2598 23.5527 38.3536 23.6464C38.4473 23.7402 38.5 23.8674 38.5 24C38.5 24.1326 38.4473 24.2598 38.3536 24.3536C38.2598 24.4473 38.1326 24.5 38 24.5ZM38 20.5H17C16.8674 20.5 16.7402 20.4473 16.6464 20.3536C16.5527 20.2598 16.5 20.1326 16.5 20C16.5 19.8674 16.5527 19.7402 16.6464 19.6464C16.7402 19.5527 16.8674 19.5 17 19.5H38C38.1326 19.5 38.2598 19.5527 38.3536 19.6464C38.4473 19.7402 38.5 19.8674 38.5 20C38.5 20.1326 38.4473 20.2598 38.3536 20.3536C38.2598 20.4473 38.1326 20.5 38 20.5ZM13 41.5H7C6.86739 41.5 6.74021 41.4473 6.64645 41.3536C6.55268 41.2598 6.5 41.1326 6.5 41C6.5 40.8674 6.55268 40.7402 6.64645 40.6464C6.74021 40.5527 6.86739 40.5 7 40.5H13C13.1326 40.5 13.2598 40.5527 13.3536 40.6464C13.4473 40.7402 13.5 40.8674 13.5 41C13.5 41.1326 13.4473 41.2598 13.3536 41.3536C13.2598 41.4473 13.1326 41.5 13 41.5Z" fill="black"/>
<path d="M13 47.5C12.8674 47.5 12.7402 47.4473 12.6464 47.3536C12.5527 47.2598 12.5 47.1326 12.5 47V41C12.5 40.8674 12.5527 40.7402 12.6464 40.6464C12.7402 40.5527 12.8674 40.5 13 40.5C13.1326 40.5 13.2598 40.5527 13.3536 40.6464C13.4473 40.7402 13.5 40.8674 13.5 41V47C13.5 47.1326 13.4473 47.2598 13.3536 47.3536C13.2598 47.4473 13.1326 47.5 13 47.5Z" fill="black"/>
<path d="M13 47.5H7C6.86739 47.5 6.74021 47.4473 6.64645 47.3536C6.55268 47.2598 6.5 47.1326 6.5 47C6.5 46.8674 6.55268 46.7402 6.64645 46.6464C6.74021 46.5527 6.86739 46.5 7 46.5H13C13.1326 46.5 13.2598 46.5527 13.3536 46.6464C13.4473 46.7402 13.5 46.8674 13.5 47C13.5 47.1326 13.4473 47.2598 13.3536 47.3536C13.2598 47.4473 13.1326 47.5 13 47.5Z" fill="black"/>
<path d="M7 47.5C6.86739 47.5 6.74021 47.4473 6.64645 47.3536C6.55268 47.2598 6.5 47.1326 6.5 47V41C6.5 40.8674 6.55268 40.7402 6.64645 40.6464C6.74021 40.5527 6.86739 40.5 7 40.5C7.13261 40.5 7.25979 40.5527 7.35355 40.6464C7.44732 40.7402 7.5 40.8674 7.5 41V47C7.5 47.1326 7.44732 47.2598 7.35355 47.3536C7.25979 47.4473 7.13261 47.5 7 47.5ZM13 30.5H7C6.86739 30.5 6.74021 30.4473 6.64645 30.3536C6.55268 30.2598 6.5 30.1326 6.5 30C6.5 29.8674 6.55268 29.7402 6.64645 29.6464C6.74021 29.5527 6.86739 29.5 7 29.5H13C13.1326 29.5 13.2598 29.5527 13.3536 29.6464C13.4473 29.7402 13.5 29.8674 13.5 30C13.5 30.1326 13.4473 30.2598 13.3536 30.3536C13.2598 30.4473 13.1326 30.5 13 30.5Z" fill="black"/>
<path d="M13 36.5C12.8674 36.5 12.7402 36.4473 12.6464 36.3536C12.5527 36.2598 12.5 36.1326 12.5 36V30C12.5 29.8674 12.5527 29.7402 12.6464 29.6464C12.7402 29.5527 12.8674 29.5 13 29.5C13.1326 29.5 13.2598 29.5527 13.3536 29.6464C13.4473 29.7402 13.5 29.8674 13.5 30V36C13.5 36.1326 13.4473 36.2598 13.3536 36.3536C13.2598 36.4473 13.1326 36.5 13 36.5Z" fill="black"/>
<path d="M13 36.5H7C6.86739 36.5 6.74021 36.4473 6.64645 36.3536C6.55268 36.2598 6.5 36.1326 6.5 36C6.5 35.8674 6.55268 35.7402 6.64645 35.6464C6.74021 35.5527 6.86739 35.5 7 35.5H13C13.1326 35.5 13.2598 35.5527 13.3536 35.6464C13.4473 35.7402 13.5 35.8674 13.5 36C13.5 36.1326 13.4473 36.2598 13.3536 36.3536C13.2598 36.4473 13.1326 36.5 13 36.5Z" fill="black"/>
<path d="M7 36.5C6.86739 36.5 6.74021 36.4473 6.64645 36.3536C6.55268 36.2598 6.5 36.1326 6.5 36V30C6.5 29.8674 6.55268 29.7402 6.64645 29.6464C6.74021 29.5527 6.86739 29.5 7 29.5C7.13261 29.5 7.25979 29.5527 7.35355 29.6464C7.44732 29.7402 7.5 29.8674 7.5 30V36C7.5 36.1326 7.44732 36.2598 7.35355 36.3536C7.25979 36.4473 7.13261 36.5 7 36.5ZM13 19.5H7C6.86739 19.5 6.74021 19.4473 6.64645 19.3536C6.55268 19.2598 6.5 19.1326 6.5 19C6.5 18.8674 6.55268 18.7402 6.64645 18.6464C6.74021 18.5527 6.86739 18.5 7 18.5H13C13.1326 18.5 13.2598 18.5527 13.3536 18.6464C13.4473 18.7402 13.5 18.8674 13.5 19C13.5 19.1326 13.4473 19.2598 13.3536 19.3536C13.2598 19.4473 13.1326 19.5 13 19.5Z" fill="black"/>
<path d="M13 25.5C12.8674 25.5 12.7402 25.4473 12.6464 25.3536C12.5527 25.2598 12.5 25.1326 12.5 25V19C12.5 18.8674 12.5527 18.7402 12.6464 18.6464C12.7402 18.5527 12.8674 18.5 13 18.5C13.1326 18.5 13.2598 18.5527 13.3536 18.6464C13.4473 18.7402 13.5 18.8674 13.5 19V25C13.5 25.1326 13.4473 25.2598 13.3536 25.3536C13.2598 25.4473 13.1326 25.5 13 25.5Z" fill="black"/>
<path d="M13 25.5H7C6.86739 25.5 6.74021 25.4473 6.64645 25.3536C6.55268 25.2598 6.5 25.1326 6.5 25C6.5 24.8674 6.55268 24.7402 6.64645 24.6464C6.74021 24.5527 6.86739 24.5 7 24.5H13C13.1326 24.5 13.2598 24.5527 13.3536 24.6464C13.4473 24.7402 13.5 24.8674 13.5 25C13.5 25.1326 13.4473 25.2598 13.3536 25.3536C13.2598 25.4473 13.1326 25.5 13 25.5Z" fill="black"/>
<path d="M7 25.5C6.86739 25.5 6.74021 25.4473 6.64645 25.3536C6.55268 25.2598 6.5 25.1326 6.5 25V19C6.5 18.8674 6.55268 18.7402 6.64645 18.6464C6.74021 18.5527 6.86739 18.5 7 18.5C7.13261 18.5 7.25979 18.5527 7.35355 18.6464C7.44732 18.7402 7.5 18.8674 7.5 19V25C7.5 25.1326 7.44732 25.2598 7.35355 25.3536C7.25979 25.4473 7.13261 25.5 7 25.5ZM32.5 5.5H27.399C27.2664 5.5 27.1392 5.44732 27.0454 5.35355C26.9517 5.25979 26.899 5.13261 26.899 5C26.899 4.86739 26.9517 4.74021 27.0454 4.64645C27.1392 4.55268 27.2664 4.5 27.399 4.5H32.5C32.6326 4.5 32.7598 4.55268 32.8536 4.64645C32.9473 4.74021 33 4.86739 33 5C33 5.13261 32.9473 5.25979 32.8536 5.35355C32.7598 5.44732 32.6326 5.5 32.5 5.5ZM17.601 5.5H12.5C12.3674 5.5 12.2402 5.44732 12.1464 5.35355C12.0527 5.25979 12 5.13261 12 5C12 4.86739 12.0527 4.74021 12.1464 4.64645C12.2402 4.55268 12.3674 4.5 12.5 4.5H17.601C17.7336 4.5 17.8608 4.55268 17.9546 4.64645C18.0483 4.74021 18.101 4.86739 18.101 5C18.101 5.13261 18.0483 5.25979 17.9546 5.35355C17.8608 5.44732 17.7336 5.5 17.601 5.5Z" fill="black"/>
<path d="M27.398 5.50052C27.2829 5.50031 27.1714 5.4604 27.0823 5.38753C26.9932 5.31466 26.932 5.21328 26.909 5.10052C26.382 2.51952 24.204 1.60352 22.498 1.60352C20.795 1.60352 18.618 2.51952 18.091 5.10052C18.064 5.23027 17.9869 5.34413 17.8764 5.41735C17.7659 5.49056 17.631 5.51722 17.501 5.49152C17.3711 5.46476 17.2571 5.3877 17.1838 5.27715C17.1106 5.16661 17.084 5.03156 17.11 4.90152C17.716 1.93252 20.254 0.603516 22.498 0.603516C24.745 0.603516 27.283 1.93252 27.89 4.90152C27.9047 4.97426 27.903 5.04937 27.8851 5.12139C27.8671 5.1934 27.8334 5.26052 27.7863 5.31788C27.7392 5.37523 27.6799 5.42137 27.6127 5.45296C27.5456 5.48455 27.4722 5.5008 27.398 5.50052ZM32.5 15.5005H12.5C12.3674 15.5005 12.2402 15.4478 12.1464 15.3541C12.0527 15.2603 12 15.1331 12 15.0005C12 14.8679 12.0527 14.7407 12.1464 14.647C12.2402 14.5532 12.3674 14.5005 12.5 14.5005H32.5C32.6326 14.5005 32.7598 14.5532 32.8536 14.647C32.9473 14.7407 33 14.8679 33 15.0005C33 15.1331 32.9473 15.2603 32.8536 15.3541C32.7598 15.4478 32.6326 15.5005 32.5 15.5005ZM10.5 7.50052H5C4.86739 7.50052 4.74021 7.44784 4.64645 7.35407C4.55268 7.2603 4.5 7.13312 4.5 7.00052C4.5 6.86791 4.55268 6.74073 4.64645 6.64696C4.74021 6.55319 4.86739 6.50052 5 6.50052H10.5C10.6326 6.50052 10.7598 6.55319 10.8536 6.64696C10.9473 6.74073 11 6.86791 11 7.00052C11 7.13312 10.9473 7.2603 10.8536 7.35407C10.7598 7.44784 10.6326 7.50052 10.5 7.50052ZM10.5 13.5005H1C0.867392 13.5005 0.740215 13.4478 0.646447 13.3541C0.552679 13.2603 0.5 13.1331 0.5 13.0005C0.5 12.8679 0.552679 12.7407 0.646447 12.647C0.740215 12.5532 0.867392 12.5005 1 12.5005H10.5C10.6326 12.5005 10.7598 12.5532 10.8536 12.647C10.9473 12.7407 11 12.8679 11 13.0005C11 13.1331 10.9473 13.2603 10.8536 13.3541C10.7598 13.4478 10.6326 13.5005 10.5 13.5005Z" fill="black"/>
<path d="M10.5 13.5C10.3674 13.5 10.2402 13.4473 10.1464 13.3536C10.0527 13.2598 10 13.1326 10 13V7C10 6.86739 10.0527 6.74021 10.1464 6.64645C10.2402 6.55268 10.3674 6.5 10.5 6.5C10.6326 6.5 10.7598 6.55268 10.8536 6.64645C10.9473 6.74021 11 6.86739 11 7V13C11 13.1326 10.9473 13.2598 10.8536 13.3536C10.7598 13.4473 10.6326 13.5 10.5 13.5Z" fill="black"/>
<path d="M12.5 15.5C11.8371 15.4995 11.2015 15.2359 10.7328 14.7672C10.2641 14.2985 10.0005 13.6629 10 13C10 12.8674 10.0527 12.7402 10.1464 12.6464C10.2402 12.5527 10.3674 12.5 10.5 12.5C10.6326 12.5 10.7598 12.5527 10.8536 12.6464C10.9473 12.7402 11 12.8674 11 13C11 13.827 11.673 14.5 12.5 14.5C12.6326 14.5 12.7598 14.5527 12.8536 14.6464C12.9473 14.7402 13 14.8674 13 15C13 15.1326 12.9473 15.2598 12.8536 15.3536C12.7598 15.4473 12.6326 15.5 12.5 15.5ZM10.5 7.5C10.3674 7.5 10.2402 7.44732 10.1464 7.35355C10.0527 7.25979 10 7.13261 10 7C10 5.621 11.121 4.5 12.5 4.5C12.6326 4.5 12.7598 4.55268 12.8536 4.64645C12.9473 4.74021 13 4.86739 13 5C13 5.13261 12.9473 5.25979 12.8536 5.35355C12.7598 5.44732 12.6326 5.5 12.5 5.5C11.673 5.5 11 6.173 11 7C11 7.13261 10.9473 7.25979 10.8536 7.35355C10.7598 7.44732 10.6326 7.5 10.5 7.5ZM44 13.5H34.5C34.3674 13.5 34.2402 13.4473 34.1464 13.3536C34.0527 13.2598 34 13.1326 34 13C34 12.8674 34.0527 12.7402 34.1464 12.6464C34.2402 12.5527 34.3674 12.5 34.5 12.5H44C44.1326 12.5 44.2598 12.5527 44.3536 12.6464C44.4473 12.7402 44.5 12.8674 44.5 13C44.5 13.1326 44.4473 13.2598 44.3536 13.3536C44.2598 13.4473 44.1326 13.5 44 13.5ZM40 7.5H34.5C34.3674 7.5 34.2402 7.44732 34.1464 7.35355C34.0527 7.25979 34 7.13261 34 7C34 6.86739 34.0527 6.74021 34.1464 6.64645C34.2402 6.55268 34.3674 6.5 34.5 6.5H40C40.1326 6.5 40.2598 6.55268 40.3536 6.64645C40.4473 6.74021 40.5 6.86739 40.5 7C40.5 7.13261 40.4473 7.25979 40.3536 7.35355C40.2598 7.44732 40.1326 7.5 40 7.5Z" fill="black"/>
<path d="M34.5 13.5C34.3674 13.5 34.2402 13.4473 34.1464 13.3536C34.0527 13.2598 34 13.1326 34 13V7C34 6.86739 34.0527 6.74021 34.1464 6.64645C34.2402 6.55268 34.3674 6.5 34.5 6.5C34.6326 6.5 34.7598 6.55268 34.8536 6.64645C34.9473 6.74021 35 6.86739 35 7V13C35 13.1326 34.9473 13.2598 34.8536 13.3536C34.7598 13.4473 34.6326 13.5 34.5 13.5Z" fill="black"/>
<path d="M32.5 15.5C32.3674 15.5 32.2402 15.4473 32.1464 15.3536C32.0527 15.2598 32 15.1326 32 15C32 14.8674 32.0527 14.7402 32.1464 14.6464C32.2402 14.5527 32.3674 14.5 32.5 14.5C33.327 14.5 34 13.827 34 13C34 12.8674 34.0527 12.7402 34.1464 12.6464C34.2402 12.5527 34.3674 12.5 34.5 12.5C34.6326 12.5 34.7598 12.5527 34.8536 12.6464C34.9473 12.7402 35 12.8674 35 13C35 14.379 33.879 15.5 32.5 15.5ZM34.5 7.5C34.3674 7.5 34.2402 7.44732 34.1464 7.35355C34.0527 7.25979 34 7.13261 34 7C34 6.173 33.327 5.5 32.5 5.5C32.3674 5.5 32.2402 5.44732 32.1464 5.35355C32.0527 5.25979 32 5.13261 32 5C32 4.86739 32.0527 4.74021 32.1464 4.64645C32.2402 4.55268 32.3674 4.5 32.5 4.5C33.879 4.5 35 5.621 35 7C35 7.13261 34.9473 7.25979 34.8536 7.35355C34.7598 7.44732 34.6326 7.5 34.5 7.5ZM1 11.5C0.867392 11.5 0.740215 11.4473 0.646447 11.3536C0.552679 11.2598 0.5 11.1326 0.5 11C0.5 8.519 2.519 6.5 5 6.5C5.13261 6.5 5.25979 6.55268 5.35355 6.64645C5.44732 6.74021 5.5 6.86739 5.5 7C5.5 7.13261 5.44732 7.25979 5.35355 7.35355C5.25979 7.44732 5.13261 7.5 5 7.5C3.07 7.5 1.5 9.07 1.5 11C1.5 11.1326 1.44732 11.2598 1.35355 11.3536C1.25979 11.4473 1.13261 11.5 1 11.5ZM44 11.5C43.8674 11.5 43.7402 11.4473 43.6464 11.3536C43.5527 11.2598 43.5 11.1326 43.5 11C43.5 9.07 41.93 7.5 40 7.5C39.8674 7.5 39.7402 7.44732 39.6464 7.35355C39.5527 7.25979 39.5 7.13261 39.5 7C39.5 6.86739 39.5527 6.74021 39.6464 6.64645C39.7402 6.55268 39.8674 6.5 40 6.5C42.481 6.5 44.5 8.519 44.5 11C44.5 11.1326 44.4473 11.2598 44.3536 11.3536C44.2598 11.4473 44.1326 11.5 44 11.5Z" fill="black"/>
<path d="M44 27.5C43.8674 27.5 43.7402 27.4473 43.6464 27.3536C43.5527 27.2598 43.5 27.1326 43.5 27V11C43.5 10.8674 43.5527 10.7402 43.6464 10.6464C43.7402 10.5527 43.8674 10.5 44 10.5C44.1326 10.5 44.2598 10.5527 44.3536 10.6464C44.4473 10.7402 44.5 10.8674 44.5 11V27C44.5 27.1326 44.4473 27.2598 44.3536 27.3536C44.2598 27.4473 44.1326 27.5 44 27.5ZM5 53.5C3.80693 53.4987 2.66311 53.0241 1.81948 52.1805C0.975854 51.3369 0.501323 50.1931 0.5 49C0.5 48.8674 0.552679 48.7402 0.646447 48.6464C0.740215 48.5527 0.867392 48.5 1 48.5C1.13261 48.5 1.25979 48.5527 1.35355 48.6464C1.44732 48.7402 1.5 48.8674 1.5 49C1.5 50.93 3.07 52.5 5 52.5C5.13261 52.5 5.25979 52.5527 5.35355 52.6464C5.44732 52.7402 5.5 52.8674 5.5 53C5.5 53.1326 5.44732 53.2598 5.35355 53.3536C5.25979 53.4473 5.13261 53.5 5 53.5Z" fill="black"/>
<path d="M31 53.5H5C4.86739 53.5 4.74021 53.4473 4.64645 53.3536C4.55268 53.2598 4.5 53.1326 4.5 53C4.5 52.8674 4.55268 52.7402 4.64645 52.6464C4.74021 52.5527 4.86739 52.5 5 52.5H31C31.1326 52.5 31.2598 52.5527 31.3536 52.6464C31.4473 52.7402 31.5 52.8674 31.5 53C31.5 53.1326 31.4473 53.2598 31.3536 53.3536C31.2598 53.4473 31.1326 53.5 31 53.5ZM45 45.5H35C34.8674 45.5 34.7402 45.4473 34.6464 45.3536C34.5527 45.2598 34.5 45.1326 34.5 45C34.5 44.8674 34.5527 44.7402 34.6464 44.6464C34.7402 44.5527 34.8674 44.5 35 44.5H45C45.1326 44.5 45.2598 44.5527 45.3536 44.6464C45.4473 44.7402 45.5 44.8674 45.5 45C45.5 45.1326 45.4473 45.2598 45.3536 45.3536C45.2598 45.4473 45.1326 45.5 45 45.5ZM49 49.5H31C30.8674 49.5 30.7402 49.4473 30.6464 49.3536C30.5527 49.2598 30.5 49.1326 30.5 49C30.5 48.8674 30.5527 48.7402 30.6464 48.6464C30.7402 48.5527 30.8674 48.5 31 48.5H49C49.1326 48.5 49.2598 48.5527 49.3536 48.6464C49.4473 48.7402 49.5 48.8674 49.5 49C49.5 49.1326 49.4473 49.2598 49.3536 49.3536C49.2598 49.4473 49.1326 49.5 49 49.5ZM44 37.81C43.8674 37.81 43.7402 37.7573 43.6464 37.6636C43.5527 37.5698 43.5 37.4426 43.5 37.31V27C43.5 26.8674 43.5527 26.7402 43.6464 26.6464C43.7402 26.5527 43.8674 26.5 44 26.5C44.1326 26.5 44.2598 26.5527 44.3536 26.6464C44.4473 26.7402 44.5 26.8674 44.5 27V37.31C44.5 37.4426 44.4473 37.5698 44.3536 37.6636C44.2598 37.7573 44.1326 37.81 44 37.81Z" fill="black"/>
<path d="M44 37.81C43.9122 37.8103 43.8259 37.7872 43.75 37.743L39.75 35.433C39.6927 35.4004 39.6424 35.3568 39.602 35.3047C39.5616 35.2526 39.5319 35.193 39.5146 35.1293C39.4973 35.0657 39.4928 34.9993 39.5013 34.9339C39.5098 34.8685 39.5311 34.8054 39.5641 34.7483C39.5971 34.6912 39.641 34.6412 39.6934 34.6012C39.7458 34.5611 39.8056 34.5318 39.8693 34.5149C39.9331 34.4981 39.9995 34.494 40.0649 34.503C40.1302 34.5119 40.1931 34.5337 40.25 34.567L44.25 36.877C44.3453 36.932 44.4198 37.017 44.4619 37.1187C44.504 37.2204 44.5114 37.3331 44.4829 37.4394C44.4545 37.5457 44.3917 37.6397 44.3044 37.7067C44.217 37.7737 44.1101 37.81 44 37.81ZM36 37.81C35.8674 37.81 35.7402 37.7573 35.6464 37.6636C35.5527 37.5698 35.5 37.4426 35.5 37.31V27C35.5 26.8674 35.5527 26.7402 35.6464 26.6464C35.7402 26.5527 35.8674 26.5 36 26.5C36.1326 26.5 36.2598 26.5527 36.3536 26.6464C36.4473 26.7402 36.5 26.8674 36.5 27V37.31C36.5 37.4426 36.4473 37.5698 36.3536 37.6636C36.2598 37.7573 36.1326 37.81 36 37.81Z" fill="black"/>
<path d="M36 37.8097C35.8899 37.8097 35.783 37.7734 35.6956 37.7064C35.6083 37.6394 35.5456 37.5454 35.5171 37.4391C35.4886 37.3328 35.496 37.2201 35.5381 37.1184C35.5802 37.0167 35.6547 36.9317 35.75 36.8767L39.75 34.5667C39.8069 34.5334 39.8698 34.5116 39.9351 34.5027C40.0005 34.4937 40.0669 34.4978 40.1307 34.5147C40.1944 34.5315 40.2542 34.5608 40.3066 34.6009C40.359 34.6409 40.4029 34.6909 40.4359 34.748C40.4689 34.8051 40.4902 34.8682 40.4987 34.9336C40.5072 34.999 40.5027 35.0654 40.4854 35.129C40.4681 35.1927 40.4384 35.2523 40.398 35.3044C40.3576 35.3565 40.3073 35.4001 40.25 35.4327L36.25 37.7427C36.1739 37.7864 36.0878 37.8095 36 37.8097ZM49 53.4997C48.8674 53.4997 48.7402 53.447 48.6465 53.3533C48.5527 53.2595 48.5 53.1323 48.5 52.9997C48.5 52.8671 48.5527 52.7399 48.6465 52.6462C48.7402 52.5524 48.8674 52.4997 49 52.4997C50.93 52.4997 52.5 50.9297 52.5 48.9997C52.5 48.8671 52.5527 48.7399 52.6465 48.6462C52.7402 48.5524 52.8674 48.4997 53 48.4997C53.1326 48.4997 53.2598 48.5524 53.3536 48.6462C53.4473 48.7399 53.5 48.8671 53.5 48.9997C53.5 51.4807 51.481 53.4997 49 53.4997Z" fill="black"/>
<path d="M49 53.5H31C30.8674 53.5 30.7402 53.4473 30.6464 53.3536C30.5527 53.2598 30.5 53.1326 30.5 53C30.5 52.8674 30.5527 52.7402 30.6464 52.6464C30.7402 52.5527 30.8674 52.5 31 52.5H49C49.1326 52.5 49.2598 52.5527 49.3536 52.6464C49.4473 52.7402 49.5 52.8674 49.5 53C49.5 53.1326 49.4473 53.2598 49.3536 53.3536C49.2598 53.4473 49.1326 53.5 49 53.5Z" fill="black"/>
<path d="M31 53.5C29.8069 53.4987 28.6631 53.0241 27.8195 52.1805C26.9759 51.3369 26.5013 50.1931 26.5 49C26.5 48.8674 26.5527 48.7402 26.6464 48.6464C26.7402 48.5527 26.8674 48.5 27 48.5C27.1326 48.5 27.2598 48.5527 27.3536 48.6464C27.4473 48.7402 27.5 48.8674 27.5 49C27.5 50.93 29.07 52.5 31 52.5C31.1326 52.5 31.2598 52.5527 31.3536 52.6464C31.4473 52.7402 31.5 52.8674 31.5 53C31.5 53.1326 31.4473 53.2598 31.3536 53.3536C31.2598 53.4473 31.1326 53.5 31 53.5Z" fill="black"/>
<path d="M27 49.5C26.8674 49.5 26.7402 49.4473 26.6464 49.3536C26.5527 49.2598 26.5 49.1326 26.5 49V31C26.5 30.8674 26.5527 30.7402 26.6464 30.6464C26.7402 30.5527 26.8674 30.5 27 30.5C27.1326 30.5 27.2598 30.5527 27.3536 30.6464C27.4473 30.7402 27.5 30.8674 27.5 31V49C27.5 49.1326 27.4473 49.2598 27.3536 49.3536C27.2598 49.4473 27.1326 49.5 27 49.5ZM53 31.5C52.8674 31.5 52.7402 31.4473 52.6464 31.3536C52.5527 31.2598 52.5 31.1326 52.5 31C52.5 29.07 50.93 27.5 49 27.5C48.8674 27.5 48.7402 27.4473 48.6464 27.3536C48.5527 27.2598 48.5 27.1326 48.5 27C48.5 26.8674 48.5527 26.7402 48.6464 26.6464C48.7402 26.5527 48.8674 26.5 49 26.5C51.481 26.5 53.5 28.519 53.5 31C53.5 31.1326 53.4473 31.2598 53.3536 31.3536C53.2598 31.4473 53.1326 31.5 53 31.5Z" fill="black"/>
<path d="M49 27.5H31C30.8674 27.5 30.7402 27.4473 30.6464 27.3536C30.5527 27.2598 30.5 27.1326 30.5 27C30.5 26.8674 30.5527 26.7402 30.6464 26.6464C30.7402 26.5527 30.8674 26.5 31 26.5H49C49.1326 26.5 49.2598 26.5527 49.3536 26.6464C49.4473 26.7402 49.5 26.8674 49.5 27C49.5 27.1326 49.4473 27.2598 49.3536 27.3536C49.2598 27.4473 49.1326 27.5 49 27.5Z" fill="black"/>
<path d="M27 31.5C26.8674 31.5 26.7402 31.4473 26.6464 31.3536C26.5527 31.2598 26.5 31.1326 26.5 31C26.5 28.519 28.519 26.5 31 26.5C31.1326 26.5 31.2598 26.5527 31.3536 26.6464C31.4473 26.7402 31.5 26.8674 31.5 27C31.5 27.1326 31.4473 27.2598 31.3536 27.3536C31.2598 27.4473 31.1326 27.5 31 27.5C29.07 27.5 27.5 29.07 27.5 31C27.5 31.1326 27.4473 31.2598 27.3536 31.3536C27.2598 31.4473 27.1326 31.5 27 31.5Z" fill="black"/>
</svg>
