<svg width="54" height="54" viewBox="0 0 54 54" fill="none" xmlns="http://www.w3.org/2000/svg">
<path d="M41.258 1.57617H17.75C17.6174 1.57617 17.4902 1.52349 17.3964 1.42973C17.3027 1.33596 17.25 1.20878 17.25 1.07617C17.25 0.943564 17.3027 0.816387 17.3964 0.722618C17.4902 0.62885 17.6174 0.576172 17.75 0.576172H41.257C41.3896 0.57604 41.5168 0.628591 41.6107 0.722265C41.7046 0.815939 41.7574 0.943064 41.7575 1.07567C41.7576 1.20828 41.7051 1.33551 41.6114 1.42937C41.5177 1.52323 41.3906 1.57604 41.258 1.57617ZM14.75 1.57617H13.75C13.6174 1.57617 13.4902 1.52349 13.3964 1.42973C13.3027 1.33596 13.25 1.20878 13.25 1.07617C13.25 0.943564 13.3027 0.816387 13.3964 0.722618C13.4902 0.62885 13.6174 0.576172 13.75 0.576172H14.75C14.8826 0.576172 15.0098 0.62885 15.1036 0.722618C15.1973 0.816387 15.25 0.943564 15.25 1.07617C15.25 1.20878 15.1973 1.33596 15.1036 1.42973C15.0098 1.52349 14.8826 1.57617 14.75 1.57617ZM10.75 1.57617H8.75C8.61739 1.57617 8.49021 1.52349 8.39645 1.42973C8.30268 1.33596 8.25 1.20878 8.25 1.07617C8.25 0.943564 8.30268 0.816387 8.39645 0.722618C8.49021 0.62885 8.61739 0.576172 8.75 0.576172H10.75C10.8826 0.576172 11.0098 0.62885 11.1036 0.722618C11.1973 0.816387 11.25 0.943564 11.25 1.07617C11.25 1.20878 11.1973 1.33596 11.1036 1.42973C11.0098 1.52349 10.8826 1.57617 10.75 1.57617ZM47.969 26.6082C47.8739 26.6081 47.7808 26.5809 47.7006 26.5298C47.6204 26.4787 47.5564 26.4057 47.5162 26.3196C47.476 26.2334 47.4612 26.1375 47.4736 26.0432C47.4859 25.9489 47.5249 25.8601 47.586 25.7872L48.229 25.0202C48.2704 24.9674 48.3219 24.9235 48.3806 24.891C48.4392 24.8586 48.5038 24.8383 48.5705 24.8313C48.6372 24.8243 48.7046 24.8308 48.7687 24.8504C48.8328 24.87 48.8923 24.9023 48.9437 24.9454C48.9951 24.9884 49.0373 25.0414 49.0678 25.1011C49.0983 25.1608 49.1165 25.226 49.1213 25.2929C49.1261 25.3598 49.1173 25.4269 49.0957 25.4904C49.074 25.5538 49.0397 25.6122 48.995 25.6622L48.352 26.4292C48.3053 26.4854 48.2467 26.5306 48.1805 26.5615C48.1143 26.5925 48.0421 26.6084 47.969 26.6082ZM40.377 35.6562C40.2819 35.6561 40.1888 35.6289 40.1086 35.5778C40.0284 35.5267 39.9644 35.4537 39.9242 35.3676C39.884 35.2814 39.8692 35.1855 39.8816 35.0912C39.8939 34.9969 39.9329 34.9081 39.994 34.8352L45.658 28.0852C45.6994 28.0324 45.7509 27.9885 45.8096 27.956C45.8682 27.9236 45.9328 27.9033 45.9995 27.8963C46.0662 27.8893 46.1336 27.8958 46.1977 27.9154C46.2618 27.935 46.3213 27.9673 46.3727 28.0104C46.4241 28.0534 46.4663 28.1064 46.4968 28.1661C46.5273 28.2258 46.5455 28.291 46.5503 28.3579C46.5551 28.4248 46.5463 28.4919 46.5247 28.5554C46.503 28.6188 46.4687 28.6772 46.424 28.7272L40.76 35.4772C40.7133 35.5334 40.6548 35.5787 40.5886 35.6096C40.5224 35.6406 40.4501 35.6565 40.377 35.6562ZM50.541 23.5442C50.4459 23.5441 50.3528 23.5169 50.2726 23.4658C50.1924 23.4147 50.1284 23.3417 50.0882 23.2556C50.048 23.1694 50.0332 23.0735 50.0456 22.9792C50.0579 22.8849 50.0969 22.7961 50.158 22.7232L51.443 21.1912C51.4844 21.1384 51.5359 21.0945 51.5946 21.062C51.6532 21.0296 51.7178 21.0093 51.7845 21.0023C51.8512 20.9953 51.9186 21.0018 51.9827 21.0214C52.0468 21.041 52.1063 21.0733 52.1577 21.1164C52.2091 21.1594 52.2513 21.2124 52.2818 21.2721C52.3123 21.3318 52.3305 21.397 52.3353 21.4639C52.3401 21.5308 52.3313 21.5979 52.3097 21.6614C52.288 21.7248 52.2537 21.7832 52.209 21.8332L50.924 23.3652C50.8772 23.4213 50.8186 23.4664 50.7524 23.4973C50.6862 23.5283 50.6141 23.5443 50.541 23.5442ZM23.758 20.3922C22.764 20.3922 21.758 19.7222 21.758 18.4412C21.758 15.8782 25.758 15.8782 25.758 18.4412C25.758 19.7222 24.752 20.3922 23.758 20.3922ZM23.758 17.4892C23.297 17.4892 22.758 17.7382 22.758 18.4402C22.758 19.1422 23.297 19.3912 23.758 19.3912C24.219 19.3912 24.758 19.1422 24.758 18.4402C24.758 17.7382 24.22 17.4892 23.758 17.4892ZM17.696 20.4402C17.6082 20.4402 17.522 20.4171 17.446 20.3732C17.37 20.3293 17.3069 20.2662 17.263 20.1902C17.2191 20.1142 17.196 20.0279 17.196 19.9402C17.196 19.8524 17.2191 19.7662 17.263 19.6902L22.879 9.96117C22.9116 9.90385 22.9552 9.85354 23.0073 9.81314C23.0594 9.77274 23.119 9.74304 23.1827 9.72577C23.2463 9.70849 23.3127 9.70397 23.3781 9.71247C23.4435 9.72097 23.5066 9.74232 23.5637 9.77529C23.6208 9.80826 23.6708 9.8522 23.7108 9.90458C23.7509 9.95696 23.7802 10.0167 23.797 10.0805C23.8139 10.1442 23.818 10.2107 23.809 10.276C23.8001 10.3414 23.7783 10.4043 23.745 10.4612L18.129 20.1902C18.0854 20.2664 18.0223 20.3297 17.9462 20.3736C17.8702 20.4175 17.7838 20.4405 17.696 20.4402ZM17.25 13.6632C16.256 13.6632 15.25 12.9932 15.25 11.7122C15.25 9.14917 19.25 9.14917 19.25 11.7122C19.25 12.9932 18.244 13.6632 17.25 13.6632ZM17.25 10.7612C16.789 10.7612 16.25 11.0102 16.25 11.7122C16.25 12.4142 16.789 12.6632 17.25 12.6632C17.711 12.6632 18.25 12.4142 18.25 11.7122C18.25 11.0102 17.712 10.7612 17.25 10.7612ZM30.004 24.5762H11.004C10.8714 24.5762 10.7442 24.5235 10.6504 24.4297C10.5567 24.336 10.504 24.2088 10.504 24.0762C10.504 23.9436 10.5567 23.8164 10.6504 23.7226C10.7442 23.6288 10.8714 23.5762 11.004 23.5762H30.004C30.1366 23.5762 30.2638 23.6288 30.3576 23.7226C30.4513 23.8164 30.504 23.9436 30.504 24.0762C30.504 24.2088 30.4513 24.336 30.3576 24.4297C30.2638 24.5235 30.1366 24.5762 30.004 24.5762ZM30.004 6.57617H11.004C10.8714 6.57617 10.7442 6.52349 10.6504 6.42973C10.5567 6.33596 10.504 6.20878 10.504 6.07617C10.504 5.94356 10.5567 5.81639 10.6504 5.72262C10.7442 5.62885 10.8714 5.57617 11.004 5.57617H30.004C30.1366 5.57617 30.2638 5.62885 30.3576 5.72262C30.4513 5.81639 30.504 5.94356 30.504 6.07617C30.504 6.20878 30.4513 6.33596 30.3576 6.42973C30.2638 6.52349 30.1366 6.57617 30.004 6.57617ZM34.512 42.6462C34.4169 42.6461 34.3238 42.6189 34.2436 42.5678C34.1634 42.5167 34.0994 42.4437 34.0592 42.3576C34.019 42.2714 34.0042 42.1755 34.0166 42.0812C34.0289 41.9869 34.0679 41.8981 34.129 41.8252L36.078 39.5032C36.1194 39.4504 36.1709 39.4065 36.2296 39.374C36.2882 39.3416 36.3528 39.3213 36.4195 39.3143C36.4862 39.3073 36.5536 39.3138 36.6177 39.3334C36.6818 39.353 36.7413 39.3853 36.7927 39.4284C36.8441 39.4714 36.8863 39.5244 36.9168 39.5841C36.9473 39.6438 36.9655 39.709 36.9703 39.7759C36.9751 39.8428 36.9664 39.9099 36.9447 39.9734C36.923 40.0368 36.8887 40.0952 36.844 40.1452L34.895 42.4672C34.8481 42.5232 34.7895 42.5682 34.7234 42.5991C34.6572 42.6301 34.585 42.6461 34.512 42.6462Z" fill="black"/>
<path d="M34.512 42.6461C34.4389 42.6461 34.3668 42.6301 34.3006 42.5992C34.2344 42.5683 34.1758 42.5232 34.129 42.4671L30.213 37.8001C30.1708 37.7498 30.139 37.6917 30.1193 37.6291C30.0996 37.5665 30.0924 37.5006 30.0982 37.4352C30.104 37.3698 30.1225 37.3062 30.1529 37.2481C30.1832 37.1899 30.2247 37.1382 30.275 37.0961C30.3253 37.0539 30.3834 37.0221 30.446 37.0024C30.5086 36.9827 30.5745 36.9755 30.6398 36.9813C30.7052 36.987 30.7688 37.0056 30.827 37.0359C30.8852 37.0663 30.9368 37.1078 30.979 37.1581L34.895 41.8251C34.9565 41.8978 34.9958 41.9867 35.0084 42.0812C35.021 42.1756 35.0063 42.2717 34.966 42.358C34.9257 42.4444 34.8616 42.5174 34.7811 42.5684C34.7007 42.6195 34.6073 42.6464 34.512 42.6461ZM8.75 29.5761C8.19586 29.5759 7.65748 29.3917 7.21944 29.0523C6.7814 28.7129 6.46853 28.2376 6.33 27.7011C6.31358 27.6375 6.30985 27.5713 6.31901 27.5063C6.32816 27.4413 6.35003 27.3788 6.38337 27.3222C6.41671 27.2657 6.46085 27.2162 6.51329 27.1767C6.56573 27.1372 6.62544 27.1085 6.689 27.0921C6.75256 27.0756 6.81873 27.0719 6.88373 27.0811C6.94874 27.0902 7.0113 27.1121 7.06785 27.1454C7.1244 27.1788 7.17383 27.2229 7.21332 27.2753C7.25281 27.3278 7.28158 27.3875 7.298 27.4511C7.38132 27.7731 7.56923 28.0583 7.83222 28.2619C8.09521 28.4655 8.41839 28.576 8.751 28.5761C8.88361 28.5762 9.01073 28.629 9.10441 28.7229C9.19808 28.8167 9.25063 28.9439 9.2505 29.0766C9.25037 29.2092 9.19756 29.3363 9.1037 29.43C9.00984 29.5236 8.88261 29.5762 8.75 29.5761Z" fill="black"/>
<path d="M37.646 29.5754H8.75C8.61739 29.5754 8.49022 29.5227 8.39645 29.429C8.30268 29.3352 8.25 29.208 8.25 29.0754C8.25 28.9428 8.30268 28.8156 8.39645 28.7218C8.49022 28.6281 8.61739 28.5754 8.75 28.5754H37.646C37.7786 28.5754 37.9058 28.6281 37.9996 28.7218C38.0933 28.8156 38.146 28.9428 38.146 29.0754C38.146 29.208 38.0933 29.3352 37.9996 29.429C37.9058 29.5227 37.7786 29.5754 37.646 29.5754ZM6.813 28.0754C6.7023 28.0753 6.59477 28.0384 6.50733 27.9705C6.41989 27.9027 6.35751 27.8076 6.33 27.7004C6.08427 26.7491 5.58821 25.881 4.89339 25.1864C4.19856 24.4917 3.33034 23.9959 2.379 23.7504C2.31419 23.7352 2.25307 23.7071 2.19924 23.668C2.14541 23.6288 2.09994 23.5793 2.0655 23.5223C2.03107 23.4653 2.00836 23.402 1.99872 23.3361C1.98907 23.2702 1.99267 23.2031 2.00932 23.1386C2.02597 23.0742 2.05533 23.0137 2.09567 22.9607C2.13601 22.9078 2.18652 22.8634 2.24424 22.8302C2.30196 22.797 2.36573 22.7757 2.4318 22.7675C2.49787 22.7593 2.56492 22.7643 2.629 22.7824C3.75312 23.0729 4.77893 23.6591 5.59982 24.4802C6.42072 25.3013 7.00674 26.3272 7.297 27.4514C7.3161 27.5252 7.31803 27.6024 7.30264 27.6771C7.28725 27.7518 7.25494 27.822 7.20821 27.8822C7.16147 27.9425 7.10155 27.9912 7.03304 28.0247C6.96453 28.0582 6.88926 28.0755 6.813 28.0754Z" fill="black"/>
<path d="M2.505 23.7671C2.46282 23.7672 2.4208 23.7618 2.38 23.7511C1.8433 23.6125 1.36787 23.2995 1.02846 22.8612C0.689056 22.423 0.504919 21.8844 0.505005 21.3301C0.505005 21.1975 0.557683 21.0703 0.651452 20.9765C0.74522 20.8828 0.872397 20.8301 1.005 20.8301C1.13761 20.8301 1.26479 20.8828 1.35856 20.9765C1.45233 21.0703 1.505 21.1975 1.505 21.3301C1.505 22.0151 1.967 22.6111 2.63 22.7821C2.74865 22.8118 2.85228 22.884 2.9213 22.985C2.99031 23.0859 3.01992 23.2087 3.00452 23.33C2.98913 23.4514 2.92979 23.5629 2.83774 23.6434C2.74569 23.7239 2.62731 23.7679 2.505 23.7671Z" fill="black"/>
<path d="M1.004 21.8303C0.87139 21.8303 0.744212 21.7776 0.650444 21.6838C0.556676 21.5901 0.503998 21.4629 0.503998 21.3303V8.82227C0.503998 8.68966 0.556676 8.56248 0.650444 8.46871C0.744212 8.37494 0.87139 8.32227 1.004 8.32227C1.13661 8.32227 1.26378 8.37494 1.35755 8.46871C1.45132 8.56248 1.504 8.68966 1.504 8.82227V21.3303C1.504 21.4629 1.45132 21.5901 1.35755 21.6838C1.26378 21.7776 1.13661 21.8303 1.004 21.8303Z" fill="black"/>
<path d="M1.004 9.32295C0.87139 9.32295 0.744212 9.27027 0.650444 9.1765C0.556676 9.08273 0.503998 8.95555 0.503998 8.82295C0.503912 8.26864 0.688049 7.73002 1.02746 7.29178C1.36686 6.85354 1.84229 6.54052 2.379 6.40195C2.50625 6.37203 2.64015 6.39313 2.75203 6.46074C2.86391 6.52835 2.94486 6.63708 2.97755 6.76364C3.01024 6.89021 2.99206 7.02454 2.92691 7.13787C2.86176 7.2512 2.75482 7.3345 2.629 7.36995C2.30699 7.45291 2.02171 7.64059 1.81805 7.90345C1.61439 8.16631 1.50391 8.48942 1.504 8.82195C1.50413 8.88769 1.49129 8.95282 1.46622 9.01359C1.44116 9.07437 1.40435 9.12961 1.3579 9.17615C1.31146 9.22268 1.2563 9.2596 1.19557 9.28479C1.13484 9.30998 1.06974 9.32295 1.004 9.32295Z" fill="black"/>
<path d="M2.50399 7.38633C2.38129 7.38801 2.26227 7.34441 2.16968 7.26388C2.0771 7.18334 2.01743 7.07152 2.00209 6.94976C1.98674 6.82801 2.0168 6.70488 2.08651 6.60389C2.15623 6.5029 2.26071 6.43115 2.37999 6.40233C3.33115 6.15646 4.19916 5.66049 4.89392 4.9659C5.58869 4.27131 6.08488 3.40342 6.33099 2.45233C6.36643 2.32651 6.44974 2.21957 6.56307 2.15442C6.67639 2.08927 6.81073 2.07109 6.93729 2.10378C7.06386 2.13646 7.17259 2.21742 7.2402 2.3293C7.30781 2.44117 7.32891 2.57508 7.29899 2.70233C7.00845 3.82637 6.42232 4.85215 5.60147 5.67317C4.78062 6.4942 3.75497 7.08054 2.63099 7.37133C2.58936 7.38108 2.54675 7.38611 2.50399 7.38633Z" fill="black"/>
<path d="M6.81399 3.07617C6.7377 3.07615 6.66241 3.05867 6.59391 3.02507C6.52541 2.99147 6.46551 2.94263 6.41879 2.88231C6.37208 2.82198 6.33979 2.75177 6.3244 2.67704C6.30901 2.60231 6.31092 2.52505 6.32999 2.45117C6.46853 1.91463 6.7814 1.43933 7.21943 1.09994C7.65747 0.760546 8.19586 0.576308 8.74999 0.576172C8.8826 0.576172 9.00978 0.62885 9.10355 0.722618C9.19732 0.816386 9.24999 0.943564 9.24999 1.07617C9.24999 1.20878 9.19732 1.33596 9.10355 1.42973C9.00978 1.52349 8.8826 1.57617 8.74999 1.57617C8.06599 1.57617 7.46899 2.03917 7.29699 2.70117C7.2698 2.80857 7.2075 2.9038 7.11999 2.97174C7.03248 3.03969 6.92478 3.07644 6.81399 3.07617ZM43.195 3.07617C43.0842 3.07614 42.9765 3.0393 42.8889 2.97142C42.8013 2.90354 42.7387 2.80848 42.711 2.70117C42.6277 2.37917 42.4398 2.09396 42.1768 1.89033C41.9138 1.68671 41.5906 1.5762 41.258 1.57617C41.1254 1.57617 40.9982 1.52349 40.9044 1.42973C40.8107 1.33596 40.758 1.20878 40.758 1.07617C40.758 0.943564 40.8107 0.816386 40.9044 0.722618C40.9982 0.62885 41.1254 0.576172 41.258 0.576172C42.398 0.576172 43.394 1.34717 43.68 2.45117C43.6991 2.52513 43.701 2.60248 43.6855 2.67728C43.6701 2.75209 43.6377 2.82236 43.5909 2.88271C43.5441 2.94305 43.484 2.99186 43.4154 3.0254C43.3468 3.05894 43.2714 3.07631 43.195 3.07617Z" fill="black"/>
<path d="M47.504 7.38538C47.4618 7.38541 47.4198 7.38003 47.379 7.36938C46.255 7.07869 45.2293 6.49237 44.4084 5.67133C43.5875 4.85029 43.0014 3.82446 42.711 2.70038C42.6811 2.57313 42.7022 2.43922 42.7698 2.32734C42.8374 2.21546 42.9461 2.13451 43.0727 2.10182C43.1993 2.06914 43.3336 2.08731 43.4469 2.15246C43.5603 2.21761 43.6436 2.32455 43.679 2.45038C43.9244 3.40151 44.4201 4.26954 45.1145 4.9642C45.809 5.65885 46.6769 6.15477 47.628 6.40038C47.7465 6.43008 47.8501 6.50218 47.9191 6.60305C47.9881 6.70392 48.0178 6.82657 48.0026 6.94783C47.9873 7.0691 47.9281 7.18057 47.8363 7.26118C47.7444 7.3418 47.6262 7.38598 47.504 7.38538Z" fill="black"/>
<path d="M49.004 9.32154C48.8714 9.32154 48.7442 9.26886 48.6504 9.17509C48.5567 9.08133 48.504 8.95415 48.504 8.82154C48.504 8.13654 48.041 7.54054 47.379 7.36954C47.3142 7.3543 47.2531 7.32627 47.1992 7.2871C47.1454 7.24792 47.0999 7.19839 47.0655 7.14141C47.0311 7.08443 47.0084 7.02114 46.9987 6.95526C46.9891 6.88939 46.9927 6.82225 47.0093 6.75778C47.026 6.69332 47.0553 6.63283 47.0957 6.57986C47.136 6.5269 47.1865 6.48252 47.2442 6.44934C47.302 6.41616 47.3657 6.39483 47.4318 6.38663C47.4979 6.37842 47.5649 6.38349 47.629 6.40154C48.1657 6.54012 48.6411 6.85313 48.9805 7.29138C49.3199 7.72962 49.5041 8.26823 49.504 8.82254C49.5037 8.95498 49.4509 9.0819 49.3572 9.17545C49.2635 9.269 49.1364 9.32154 49.004 9.32154Z" fill="black"/>
<path d="M49.004 16.0403C48.8714 16.0403 48.7442 15.9876 48.6504 15.8938C48.5567 15.8001 48.504 15.6729 48.504 15.5403V8.82227C48.504 8.68966 48.5567 8.56248 48.6504 8.46871C48.7442 8.37494 48.8714 8.32227 49.004 8.32227C49.1366 8.32227 49.2638 8.37494 49.3575 8.46871C49.4513 8.56248 49.504 8.68966 49.504 8.82227V15.5403C49.504 15.6729 49.4513 15.8001 49.3575 15.8938C49.2638 15.9876 49.1366 16.0403 49.004 16.0403ZM46.336 49.8423C44.845 49.8423 43.336 48.8403 43.336 46.9243C43.336 43.0933 49.336 43.0903 49.336 46.9243C49.336 47.8213 49.006 48.5793 48.381 49.1163C47.837 49.5843 47.11 49.8423 46.336 49.8423ZM46.336 45.0063C45.34 45.0063 44.336 45.5993 44.336 46.9243C44.336 48.2493 45.34 48.8423 46.336 48.8423C46.863 48.8423 47.371 48.6663 47.729 48.3593C48.126 48.0173 48.336 47.5213 48.336 46.9243C48.336 45.5993 47.331 45.0063 46.336 45.0063ZM26.586 49.8433C25.095 49.8433 23.586 48.8403 23.586 46.9243C23.586 43.0943 29.586 43.0943 29.586 46.9243C29.586 48.8403 28.077 49.8433 26.586 49.8433ZM26.586 45.0063C25.59 45.0063 24.586 45.5993 24.586 46.9243C24.586 48.2493 25.59 48.8433 26.586 48.8433C27.581 48.8433 28.586 48.2493 28.586 46.9243C28.586 45.5993 27.582 45.0063 26.586 45.0063ZM38.408 42.6463C38.3349 42.6464 38.2628 42.6304 38.1966 42.5994C38.1304 42.5685 38.0718 42.5234 38.025 42.4673L27.06 29.3973C27.0178 29.347 26.986 29.2889 26.9663 29.2263C26.9466 29.1637 26.9394 29.0978 26.9452 29.0324C26.951 28.9671 26.9695 28.9035 26.9999 28.8453C27.0302 28.7871 27.0717 28.7354 27.122 28.6933C27.1723 28.6511 27.2304 28.6193 27.293 28.5996C27.3556 28.5799 27.4215 28.5727 27.4868 28.5785C27.5522 28.5842 27.6158 28.6028 27.674 28.6331C27.7322 28.6635 27.7838 28.705 27.826 28.7553L38.792 41.8243C38.8538 41.8971 38.8935 41.9862 38.9062 42.0809C38.9189 42.1756 38.9042 42.2719 38.8638 42.3585C38.8233 42.4451 38.7589 42.5182 38.6781 42.5692C38.5973 42.6202 38.5035 42.647 38.408 42.6463Z" fill="black"/>
<path d="M38.408 42.6464C38.3129 42.6463 38.2198 42.6191 38.1396 42.568C38.0594 42.5169 37.9954 42.444 37.9552 42.3578C37.915 42.2716 37.9002 42.1757 37.9126 42.0814C37.925 41.9871 37.9639 41.8983 38.025 41.8254L41.941 37.1584C41.9824 37.1056 42.0339 37.0617 42.0926 37.0293C42.1512 36.9968 42.2158 36.9765 42.2825 36.9695C42.3492 36.9625 42.4166 36.969 42.4807 36.9886C42.5448 37.0082 42.6043 37.0405 42.6557 37.0836C42.7071 37.1267 42.7493 37.1796 42.7798 37.2393C42.8103 37.299 42.8285 37.3642 42.8333 37.4311C42.8381 37.498 42.8294 37.5651 42.8077 37.6286C42.786 37.692 42.7517 37.7504 42.707 37.8004L38.791 42.4674C38.7442 42.5235 38.6856 42.5686 38.6194 42.5995C38.5533 42.6305 38.4811 42.6465 38.408 42.6464Z" fill="black"/>
<path d="M42.324 37.9794C42.2509 37.9795 42.1787 37.9635 42.1126 37.9326C42.0464 37.9017 41.9878 37.8566 41.941 37.8004L34.892 29.3984C34.8497 29.3482 34.8178 29.2901 34.7981 29.2275C34.7783 29.1649 34.7711 29.099 34.7769 29.0336C34.7826 28.9682 34.8013 28.9046 34.8316 28.8464C34.862 28.7882 34.9036 28.7365 34.954 28.6944C35.0041 28.6518 35.0621 28.6196 35.1248 28.5996C35.1875 28.5796 35.2535 28.5723 35.319 28.5781C35.3845 28.5839 35.4482 28.6026 35.5064 28.6332C35.5646 28.6638 35.6161 28.7057 35.658 28.7564L42.707 37.1584C42.7685 37.2312 42.8078 37.3201 42.8204 37.4145C42.833 37.509 42.8183 37.6051 42.778 37.6914C42.7377 37.7778 42.6736 37.8508 42.5931 37.9018C42.5127 37.9528 42.4193 37.9798 42.324 37.9794ZM41.166 44.3764C41.0929 44.3765 41.0207 44.3605 40.9546 44.3296C40.8884 44.2987 40.8298 44.2536 40.783 44.1974L38.668 41.6764C38.6258 41.6262 38.594 41.568 38.5743 41.5054C38.5546 41.4428 38.5474 41.377 38.5532 41.3116C38.5589 41.2462 38.5775 41.1826 38.6079 41.1244C38.6382 41.0663 38.6797 41.0146 38.73 40.9724C38.7803 40.9303 38.8384 40.8985 38.901 40.8788C38.9636 40.8591 39.0295 40.8519 39.0948 40.8576C39.1602 40.8634 39.2238 40.882 39.282 40.9123C39.3402 40.9426 39.3918 40.9842 39.434 41.0344L41.549 43.5554C41.6105 43.6282 41.6498 43.7171 41.6624 43.8115C41.675 43.906 41.6603 44.0021 41.62 44.0884C41.5797 44.1748 41.5156 44.2478 41.4351 44.2988C41.3547 44.3498 41.2613 44.3768 41.166 44.3764Z" fill="black"/>
<path d="M44.23 41.8071C44.1569 41.8072 44.0847 41.7912 44.0186 41.7603C43.9524 41.7294 43.8938 41.6842 43.847 41.6281L41.288 38.5781C41.2457 38.5279 41.2138 38.4698 41.1941 38.4072C41.1743 38.3446 41.1671 38.2787 41.1729 38.2133C41.1786 38.1479 41.1973 38.0842 41.2276 38.0261C41.258 37.9679 41.2996 37.9162 41.35 37.8741C41.4001 37.8315 41.4581 37.7993 41.5208 37.7793C41.5834 37.7593 41.6495 37.752 41.715 37.7578C41.7805 37.7635 41.8442 37.7823 41.9024 37.8129C41.9606 37.8435 42.0121 37.8854 42.054 37.9361L44.613 40.9861C44.6745 41.0589 44.7138 41.1478 44.7264 41.2422C44.739 41.3367 44.7243 41.4328 44.684 41.5191C44.6437 41.6054 44.5796 41.6785 44.4991 41.7295C44.4187 41.7805 44.3253 41.8075 44.23 41.8071Z" fill="black"/>
<path d="M46.336 53.4241C42.813 53.4241 39.836 50.4471 39.836 46.9241C39.836 43.4011 42.813 40.4241 46.336 40.4241C49.859 40.4241 52.836 43.4011 52.836 46.9241C52.836 50.4471 49.859 53.4241 46.336 53.4241ZM46.336 41.4241C43.355 41.4241 40.836 43.9431 40.836 46.9241C40.836 49.9051 43.355 52.4241 46.336 52.4241C49.317 52.4241 51.836 49.9051 51.836 46.9241C51.836 43.9431 49.317 41.4241 46.336 41.4241ZM30.596 37.9791C30.5009 37.9791 30.4078 37.9519 30.3276 37.9007C30.2474 37.8496 30.1834 37.7767 30.1432 37.6905C30.103 37.6043 30.0882 37.5085 30.1006 37.4142C30.1129 37.3199 30.1519 37.231 30.213 37.1581L32.162 34.8361C32.2033 34.7834 32.2549 34.7394 32.3136 34.707C32.3722 34.6745 32.4368 34.6542 32.5035 34.6472C32.5702 34.6403 32.6376 34.6468 32.7017 34.6664C32.7658 34.686 32.8253 34.7183 32.8767 34.7613C32.9281 34.8044 32.9703 34.8573 33.0008 34.9171C33.0313 34.9768 33.0495 35.042 33.0543 35.1089C33.0591 35.1757 33.0503 35.2429 33.0286 35.3063C33.007 35.3698 32.9727 35.4282 32.928 35.4781L30.979 37.8001C30.9321 37.8561 30.8735 37.9012 30.8073 37.9321C30.7412 37.963 30.669 37.9791 30.596 37.9791ZM31.754 44.3761C31.6589 44.3761 31.5658 44.3489 31.4856 44.2977C31.4054 44.2466 31.3414 44.1737 31.3012 44.0875C31.261 44.0013 31.2462 43.9055 31.2586 43.8112C31.2709 43.7169 31.3099 43.628 31.371 43.5551L33.476 41.0461C33.5173 40.9934 33.5689 40.9494 33.6276 40.917C33.6862 40.8845 33.7508 40.8642 33.8175 40.8572C33.8842 40.8503 33.9516 40.8568 34.0157 40.8764C34.0798 40.896 34.1393 40.9283 34.1907 40.9713C34.2421 41.0144 34.2843 41.0673 34.3148 41.1271C34.3453 41.1868 34.3635 41.252 34.3683 41.3189C34.3731 41.3857 34.3643 41.4529 34.3426 41.5163C34.321 41.5798 34.2867 41.6382 34.242 41.6881L32.137 44.1971C32.0901 44.2531 32.0315 44.2982 31.9653 44.3291C31.8992 44.36 31.827 44.3761 31.754 44.3761Z" fill="black"/>
<path d="M28.689 41.8067C28.5939 41.8067 28.5008 41.7795 28.4206 41.7284C28.3404 41.6772 28.2764 41.6043 28.2362 41.5181C28.196 41.4319 28.1812 41.3361 28.1936 41.2418C28.206 41.1475 28.245 41.0587 28.306 40.9857L30.865 37.9357C30.9064 37.883 30.9579 37.839 31.0166 37.8066C31.0752 37.7742 31.1398 37.7538 31.2065 37.7469C31.2732 37.7399 31.3406 37.7464 31.4047 37.766C31.4688 37.7856 31.5284 37.8179 31.5797 37.8609C31.6311 37.904 31.6733 37.957 31.7038 38.0167C31.7343 38.0764 31.7525 38.1416 31.7573 38.2085C31.7621 38.2753 31.7534 38.3425 31.7317 38.4059C31.71 38.4694 31.6757 38.5278 31.631 38.5777L29.072 41.6277C29.0253 41.6839 28.9667 41.729 28.9005 41.76C28.8343 41.7909 28.7621 41.8069 28.689 41.8067Z" fill="black"/>
<path d="M26.586 53.4236C23.063 53.4236 20.086 50.4466 20.086 46.9236C20.086 43.4006 23.063 40.4236 26.586 40.4236C30.109 40.4236 33.086 43.4006 33.086 46.9236C33.086 50.4466 30.109 53.4236 26.586 53.4236ZM26.586 41.4236C23.605 41.4236 21.086 43.9426 21.086 46.9236C21.086 49.9046 23.605 52.4236 26.586 52.4236C29.567 52.4236 32.086 49.9046 32.086 46.9236C32.086 43.9426 29.567 41.4236 26.586 41.4236ZM51.826 22.0116C51.7309 22.0115 51.6378 21.9843 51.5576 21.9332C51.4774 21.8821 51.4134 21.8092 51.3732 21.723C51.333 21.6368 51.3182 21.5409 51.3306 21.4466C51.3429 21.3523 51.3819 21.2635 51.443 21.1906C52.215 20.2696 52.584 19.1036 52.478 17.9066C52.372 16.7096 51.808 15.6246 50.887 14.8506C50.8342 14.8092 50.7903 14.7577 50.7579 14.699C50.7254 14.6403 50.7051 14.5758 50.6981 14.5091C50.6911 14.4424 50.6976 14.375 50.7172 14.3109C50.7368 14.2468 50.7691 14.1872 50.8122 14.1359C50.8553 14.0845 50.9082 14.0423 50.9679 14.0118C51.0276 13.9813 51.0929 13.9631 51.1597 13.9583C51.2266 13.9535 51.2938 13.9622 51.3572 13.9839C51.4206 14.0056 51.4791 14.0399 51.529 14.0846C52.0838 14.5473 52.5413 15.1155 52.875 15.7563C53.2087 16.3971 53.412 17.0977 53.473 17.8176C53.5383 18.5373 53.4601 19.2628 53.2428 19.9521C53.0254 20.6413 52.6734 21.2805 52.207 21.8326C52.1607 21.8888 52.1026 21.934 52.0367 21.965C51.9708 21.9959 51.8988 22.0119 51.826 22.0116Z" fill="black"/>
<path d="M36.461 30.9891C36.3659 30.989 36.2728 30.9618 36.1926 30.9107C36.1124 30.8596 36.0485 30.7867 36.0082 30.7005C35.968 30.6143 35.9532 30.5184 35.9656 30.4241C35.978 30.3298 36.017 30.241 36.078 30.1681L50.06 13.5041C50.1014 13.4513 50.1529 13.4074 50.2116 13.375C50.2702 13.3425 50.3348 13.3222 50.4015 13.3152C50.4682 13.3082 50.5356 13.3147 50.5997 13.3343C50.6638 13.3539 50.7234 13.3862 50.7747 13.4293C50.8261 13.4724 50.8683 13.5253 50.8988 13.585C50.9293 13.6447 50.9475 13.71 50.9523 13.7768C50.9571 13.8437 50.9484 13.9109 50.9267 13.9743C50.905 14.0377 50.8707 14.0962 50.826 14.1461L36.844 30.8111C36.7972 30.8671 36.7386 30.912 36.6724 30.9428C36.6062 30.9736 36.534 30.9894 36.461 30.9891Z" fill="black"/>
<path d="M51.209 14.9682C51.0915 14.9685 50.9777 14.927 50.888 14.8512L50.122 14.2082C50.0692 14.1668 50.0253 14.1153 49.9929 14.0566C49.9604 13.9979 49.9401 13.9333 49.9331 13.8667C49.9261 13.8 49.9326 13.7326 49.9522 13.6685C49.9718 13.6043 50.0041 13.5448 50.0472 13.4934C50.0903 13.4421 50.1432 13.3999 50.2029 13.3694C50.2626 13.3389 50.3279 13.3207 50.3947 13.3159C50.4616 13.3111 50.5288 13.3198 50.5922 13.3415C50.6556 13.3632 50.7141 13.3974 50.764 13.4422L51.53 14.0852C51.6086 14.1511 51.665 14.2396 51.6915 14.3387C51.7181 14.4378 51.7135 14.5426 51.6785 14.639C51.6434 14.7354 51.5796 14.8187 51.4956 14.8776C51.4116 14.9365 51.3116 14.9681 51.209 14.9682ZM36.004 3.57617C35.8714 3.57617 35.7442 3.52349 35.6504 3.42972C35.5567 3.33596 35.504 3.20878 35.504 3.07617V1.07617C35.504 0.943564 35.5567 0.816386 35.6504 0.722618C35.7442 0.62885 35.8714 0.576172 36.004 0.576172C36.1366 0.576172 36.2638 0.62885 36.3575 0.722618C36.4513 0.816386 36.504 0.943564 36.504 1.07617V3.07617C36.504 3.20878 36.4513 3.33596 36.3575 3.42972C36.2638 3.52349 36.1366 3.57617 36.004 3.57617ZM36.004 10.5762C35.8714 10.5762 35.7442 10.5235 35.6504 10.4297C35.5567 10.336 35.504 10.2088 35.504 10.0762V6.07617C35.504 5.94356 35.5567 5.81639 35.6504 5.72262C35.7442 5.62885 35.8714 5.57617 36.004 5.57617C36.1366 5.57617 36.2638 5.62885 36.3575 5.72262C36.4513 5.81639 36.504 5.94356 36.504 6.07617V10.0762C36.504 10.2088 36.4513 10.336 36.3575 10.4297C36.2638 10.5235 36.1366 10.5762 36.004 10.5762ZM36.004 17.5762C35.8714 17.5762 35.7442 17.5235 35.6504 17.4297C35.5567 17.336 35.504 17.2088 35.504 17.0762V13.0762C35.504 12.9436 35.5567 12.8164 35.6504 12.7226C35.7442 12.6288 35.8714 12.5762 36.004 12.5762C36.1366 12.5762 36.2638 12.6288 36.3575 12.7226C36.4513 12.8164 36.504 12.9436 36.504 13.0762V17.0762C36.504 17.2088 36.4513 17.336 36.3575 17.4297C36.2638 17.5235 36.1366 17.5762 36.004 17.5762ZM36.004 24.5762C35.8714 24.5762 35.7442 24.5235 35.6504 24.4297C35.5567 24.336 35.504 24.2088 35.504 24.0762V20.0762C35.504 19.9436 35.5567 19.8164 35.6504 19.7226C35.7442 19.6288 35.8714 19.5762 36.004 19.5762C36.1366 19.5762 36.2638 19.6288 36.3575 19.7226C36.4513 19.8164 36.504 19.9436 36.504 20.0762V24.0762C36.504 24.2088 36.4513 24.336 36.3575 24.4297C36.2638 24.5235 36.1366 24.5762 36.004 24.5762ZM36.004 29.5762C35.8714 29.5762 35.7442 29.5235 35.6504 29.4297C35.5567 29.336 35.504 29.2088 35.504 29.0762V27.0762C35.504 26.9436 35.5567 26.8164 35.6504 26.7226C35.7442 26.6288 35.8714 26.5762 36.004 26.5762C36.1366 26.5762 36.2638 26.6288 36.3575 26.7226C36.4513 26.8164 36.504 26.9436 36.504 27.0762V29.0762C36.504 29.2088 36.4513 29.336 36.3575 29.4297C36.2638 29.5235 36.1366 29.5762 36.004 29.5762Z" fill="black"/>
</svg>
