<svg width="54" height="54" viewBox="0 0 54 54" fill="none" xmlns="http://www.w3.org/2000/svg">
<path d="M1 11C0.867392 11 0.740215 10.9473 0.646447 10.8536C0.552679 10.7598 0.5 10.6326 0.5 10.5V9.5C0.5 9.36739 0.552679 9.24021 0.646447 9.14645C0.740215 9.05268 0.867392 9 1 9C1.13261 9 1.25979 9.05268 1.35355 9.14645C1.44732 9.24021 1.5 9.36739 1.5 9.5V10.5C1.5 10.6326 1.44732 10.7598 1.35355 10.8536C1.25979 10.9473 1.13261 11 1 11ZM1 20.75C0.867392 20.75 0.740215 20.6973 0.646447 20.6036C0.552679 20.5098 0.5 20.3826 0.5 20.25V13.5C0.5 13.3674 0.552679 13.2402 0.646447 13.1464C0.740215 13.0527 0.867392 13 1 13C1.13261 13 1.25979 13.0527 1.35355 13.1464C1.44732 13.2402 1.5 13.3674 1.5 13.5V20.25C1.5 20.3826 1.44732 20.5098 1.35355 20.6036C1.25979 20.6973 1.13261 20.75 1 20.75ZM1 7C0.867392 7 0.740215 6.94732 0.646447 6.85355C0.552679 6.75979 0.5 6.63261 0.5 6.5V4.5C0.5 4.36739 0.552679 4.24021 0.646447 4.14645C0.740215 4.05268 0.867392 4 1 4C1.13261 4 1.25979 4.05268 1.35355 4.14645C1.44732 4.24021 1.5 4.36739 1.5 4.5V6.5C1.5 6.63261 1.44732 6.75979 1.35355 6.85355C1.25979 6.94732 1.13261 7 1 7ZM52.939 40.77L52.909 40.769C52.7768 40.7608 52.6532 40.7005 52.5653 40.6013C52.4774 40.5022 52.4323 40.3723 52.44 40.24L52.501 39.242C52.518 38.967 52.727 38.749 53.03 38.773C53.1622 38.7812 53.2858 38.8415 53.3737 38.9407C53.4616 39.0398 53.5067 39.1697 53.499 39.302L53.438 40.3C53.4304 40.4272 53.3745 40.5466 53.2817 40.634C53.189 40.7213 53.0664 40.77 52.939 40.77ZM37.005 45.325C36.9299 45.325 36.8557 45.3082 36.788 45.2756C36.7204 45.2431 36.6609 45.1957 36.614 45.137C34.836 42.908 34.184 39.996 34.826 37.149C35.468 34.306 37.302 31.961 39.858 30.713C42.272 29.536 45.111 29.464 47.647 30.518C50.176 31.57 52.124 33.627 52.991 36.163C53.034 36.2887 53.0252 36.4263 52.9667 36.5456C52.9082 36.6649 52.8047 36.756 52.679 36.799C52.5533 36.842 52.4157 36.8332 52.2964 36.7747C52.1771 36.7162 52.086 36.6127 52.043 36.487C51.27 34.221 49.527 32.383 47.263 31.442C44.993 30.5 42.456 30.56 40.295 31.612C38.014 32.725 36.375 34.824 35.801 37.369C35.226 39.92 35.807 42.523 37.395 44.515C37.4539 44.5883 37.4909 44.6768 37.5016 44.7703C37.5123 44.8637 37.4964 44.9583 37.4556 45.043C37.4147 45.1278 37.3508 45.1993 37.271 45.2492C37.1913 45.2991 37.0991 45.3254 37.005 45.325ZM51.041 45.325C50.9467 45.3257 50.8541 45.2996 50.774 45.2497C50.694 45.1998 50.6297 45.1283 50.5887 45.0433C50.5478 44.9583 50.5318 44.8635 50.5426 44.7698C50.5535 44.6761 50.5907 44.5874 50.65 44.514C51.0429 44.0209 51.3796 43.4856 51.654 42.918C51.6826 42.8589 51.7226 42.806 51.7717 42.7624C51.8207 42.7187 51.8779 42.6852 51.94 42.6637C52.002 42.6421 52.0676 42.633 52.1332 42.6368C52.1987 42.6407 52.2629 42.6574 52.322 42.686C52.3811 42.7146 52.434 42.7546 52.4776 42.8037C52.5213 42.8527 52.5548 42.9099 52.5763 42.972C52.5979 43.034 52.607 43.0996 52.6032 43.1652C52.5993 43.2308 52.5826 43.2949 52.554 43.354C52.2469 43.9881 51.8702 44.5861 51.431 45.137C51.3845 45.1958 51.3252 45.2433 51.2576 45.2759C51.1901 45.3085 51.116 45.3253 51.041 45.325ZM32.75 17.875C32.6173 17.875 32.4901 17.8225 32.396 17.729L27.396 12.729C27.3049 12.6347 27.2545 12.5084 27.2557 12.3773C27.2568 12.2462 27.3094 12.1208 27.4021 12.0281C27.4948 11.9354 27.6202 11.8828 27.7513 11.8817C27.8824 11.8805 28.0087 11.9309 28.103 12.022L33.103 17.022C33.1727 17.0919 33.2201 17.1809 33.2393 17.2778C33.2586 17.3746 33.2486 17.475 33.2109 17.5662C33.1731 17.6574 33.1092 17.7354 33.0272 17.7904C32.9452 17.8453 32.8487 17.8748 32.75 17.875Z" fill="black"/>
<path d="M27.75 12.8742C27.6512 12.8742 27.5546 12.8449 27.4724 12.79C27.3902 12.7351 27.3262 12.6571 27.2883 12.5659C27.2504 12.4746 27.2404 12.3742 27.2596 12.2772C27.2788 12.1803 27.3262 12.0912 27.396 12.0212L32.396 7.02122C32.4903 6.93014 32.6166 6.87974 32.7477 6.88088C32.8788 6.88202 33.0042 6.9346 33.0969 7.02731C33.1896 7.12001 33.2422 7.24542 33.2433 7.37651C33.2445 7.50761 33.1941 7.63391 33.103 7.72822L28.103 12.7282C28.0567 12.7746 28.0016 12.8114 27.9411 12.8364C27.8805 12.8615 27.8156 12.8743 27.75 12.8742ZM24.399 39.9572H5C4.86739 39.9572 4.74021 39.9045 4.64645 39.8108C4.55268 39.717 4.5 39.5898 4.5 39.4572C4.5 39.3246 4.55268 39.1974 4.64645 39.1037C4.74021 39.0099 4.86739 38.9572 5 38.9572H24.399C24.5316 38.9572 24.6588 39.0099 24.7526 39.1037C24.8463 39.1974 24.899 39.3246 24.899 39.4572C24.899 39.5898 24.8463 39.717 24.7526 39.8108C24.6588 39.9045 24.5316 39.9572 24.399 39.9572Z" fill="black"/>
<path d="M24.399 39.959C24.2664 39.959 24.1393 39.9063 24.0455 39.8125C23.9517 39.7188 23.899 39.5916 23.899 39.459C23.899 39.3264 23.9517 39.1992 24.0455 39.1054C24.1393 39.0116 24.2664 38.959 24.399 38.959C26.329 38.959 27.899 37.389 27.899 35.459C27.899 35.3264 27.9517 35.1992 28.0455 35.1054C28.1393 35.0116 28.2664 34.959 28.399 34.959C28.5317 34.959 28.6588 35.0116 28.7526 35.1054C28.8464 35.1992 28.899 35.3264 28.899 35.459C28.899 37.94 26.881 39.959 24.399 39.959ZM49 26.418H32.399C32.2664 26.418 32.1393 26.3653 32.0455 26.2715C31.9517 26.1778 31.899 26.0506 31.899 25.918C31.899 25.7854 31.9517 25.6582 32.0455 25.5644C32.1393 25.4706 32.2664 25.418 32.399 25.418H49C49.1327 25.418 49.2598 25.4706 49.3536 25.5644C49.4474 25.6582 49.5 25.7854 49.5 25.918C49.5 26.0506 49.4474 26.1778 49.3536 26.2715C49.2598 26.3653 49.1327 26.418 49 26.418Z" fill="black"/>
<path d="M28.399 30.418C28.2664 30.418 28.1393 30.3653 28.0455 30.2715C27.9517 30.1778 27.899 30.0506 27.899 29.918C27.899 27.437 29.918 25.418 32.399 25.418C32.5317 25.418 32.6588 25.4706 32.7526 25.5644C32.8464 25.6582 32.899 25.7854 32.899 25.918C32.899 26.0506 32.8464 26.1778 32.7526 26.2715C32.6588 26.3653 32.5317 26.418 32.399 26.418C30.469 26.418 28.899 27.988 28.899 29.918C28.899 30.0506 28.8464 30.1778 28.7526 30.2715C28.6588 30.3653 28.5317 30.418 28.399 30.418Z" fill="black"/>
<path d="M28.399 35.958C28.2664 35.958 28.1392 35.9053 28.0454 35.8116C27.9517 35.7178 27.899 35.5906 27.899 35.458V29.917C27.899 29.7844 27.9517 29.6572 28.0454 29.5634C28.1392 29.4697 28.2664 29.417 28.399 29.417C28.5316 29.417 28.6588 29.4697 28.7526 29.5634C28.8463 29.6572 28.899 29.7844 28.899 29.917V35.458C28.899 35.5906 28.8463 35.7178 28.7526 35.8116C28.6588 35.9053 28.5316 35.958 28.399 35.958ZM49 12.875H27.75C27.6174 12.875 27.4902 12.8223 27.3964 12.7286C27.3027 12.6348 27.25 12.5076 27.25 12.375C27.25 12.2424 27.3027 12.1152 27.3964 12.0214C27.4902 11.9277 27.6174 11.875 27.75 11.875H49C49.1326 11.875 49.2598 11.9277 49.3536 12.0214C49.4473 12.1152 49.5 12.2424 49.5 12.375C49.5 12.5076 49.4473 12.6348 49.3536 12.7286C49.2598 12.8223 49.1326 12.875 49 12.875ZM38.408 53.5H5C4.86739 53.5 4.74021 53.4473 4.64645 53.3536C4.55268 53.2598 4.5 53.1326 4.5 53C4.5 52.8674 4.55268 52.7402 4.64645 52.6464C4.74021 52.5527 4.86739 52.5 5 52.5H38.408C38.5406 52.5 38.6678 52.5527 38.7616 52.6464C38.8553 52.7402 38.908 52.8674 38.908 53C38.908 53.1326 38.8553 53.2598 38.7616 53.3536C38.6678 53.4473 38.5406 53.5 38.408 53.5Z" fill="black"/>
<path d="M5 53.5C3.80693 53.4987 2.66311 53.0241 1.81948 52.1805C0.975854 51.3369 0.501323 50.1931 0.5 49C0.5 48.8674 0.552679 48.7402 0.646447 48.6464C0.740215 48.5527 0.867392 48.5 1 48.5C1.13261 48.5 1.25979 48.5527 1.35355 48.6464C1.44732 48.7402 1.5 48.8674 1.5 49C1.5 50.93 3.07 52.5 5 52.5C5.13261 52.5 5.25979 52.5527 5.35355 52.6464C5.44732 52.7402 5.5 52.8674 5.5 53C5.5 53.1326 5.44732 53.2598 5.35355 53.3536C5.25979 53.4473 5.13261 53.5 5 53.5Z" fill="black"/>
<path d="M1 49.499C0.867392 49.499 0.740215 49.4464 0.646447 49.3526C0.552679 49.2588 0.5 49.1316 0.5 48.999V43.457C0.5 43.3244 0.552679 43.1972 0.646447 43.1035C0.740215 43.0097 0.867392 42.957 1 42.957C1.13261 42.957 1.25979 43.0097 1.35355 43.1035C1.44732 43.1972 1.5 43.3244 1.5 43.457V48.999C1.5 49.1316 1.44732 49.2588 1.35355 49.3526C1.25979 49.4464 1.13261 49.499 1 49.499Z" fill="black"/>
<path d="M1 43.959C0.867392 43.959 0.740215 43.9063 0.646447 43.8125C0.552679 43.7188 0.5 43.5916 0.5 43.459C0.5 40.978 2.519 38.959 5 38.959C5.13261 38.959 5.25979 39.0116 5.35355 39.1054C5.44732 39.1992 5.5 39.3264 5.5 39.459C5.5 39.5916 5.44732 39.7188 5.35355 39.8125C5.25979 39.9063 5.13261 39.959 5 39.959C3.07 39.959 1.5 41.529 1.5 43.459C1.5 43.5916 1.44732 43.7188 1.35355 43.8125C1.25979 43.9063 1.13261 43.959 1 43.959ZM49 26.418C48.8674 26.418 48.7402 26.3653 48.6464 26.2715C48.5527 26.1778 48.5 26.0506 48.5 25.918C48.5 25.7854 48.5527 25.6582 48.6464 25.5644C48.7402 25.4706 48.8674 25.418 49 25.418C50.93 25.418 52.5 23.848 52.5 21.918C52.5 21.7854 52.5527 21.6582 52.6464 21.5644C52.7402 21.4706 52.8674 21.418 53 21.418C53.1326 21.418 53.2598 21.4706 53.3536 21.5644C53.4473 21.6582 53.5 21.7854 53.5 21.918C53.5 24.399 51.481 26.418 49 26.418Z" fill="black"/>
<path d="M53 22.417C52.8674 22.417 52.7402 22.3643 52.6464 22.2706C52.5527 22.1768 52.5 22.0496 52.5 21.917V16.375C52.5 16.2424 52.5527 16.1152 52.6464 16.0214C52.7402 15.9277 52.8674 15.875 53 15.875C53.1326 15.875 53.2598 15.9277 53.3536 16.0214C53.4473 16.1152 53.5 16.2424 53.5 16.375V21.917C53.5 22.0496 53.4473 22.1768 53.3536 22.2706C53.2598 22.3643 53.1326 22.417 53 22.417Z" fill="black"/>
<path d="M53 16.875C52.8674 16.875 52.7403 16.8223 52.6465 16.7286C52.5527 16.6348 52.5 16.5076 52.5 16.375C52.5 14.445 50.93 12.875 49 12.875C48.8674 12.875 48.7403 12.8223 48.6465 12.7286C48.5527 12.6348 48.5 12.5076 48.5 12.375C48.5 12.2424 48.5527 12.1152 48.6465 12.0214C48.7403 11.9277 48.8674 11.875 49 11.875C51.481 11.875 53.5 13.894 53.5 16.375C53.5 16.5076 53.4474 16.6348 53.3536 16.7286C53.2598 16.8223 53.1327 16.875 53 16.875ZM44.022 44.704C41.053 44.704 38.545 42.196 38.545 39.227C38.545 36.258 41.053 33.749 44.022 33.749C46.991 33.749 49.5 36.258 49.5 39.227C49.5 42.196 46.991 44.704 44.022 44.704ZM44.022 34.75C41.595 34.75 39.545 36.801 39.545 39.228C39.545 41.655 41.595 43.705 44.022 43.705C46.449 43.705 48.5 41.655 48.5 39.228C48.5 36.801 46.449 34.75 44.022 34.75ZM44.024 53.494C43.55 53.494 43.113 53.286 42.823 52.922C42.7821 52.8707 42.7517 52.8119 42.7336 52.7489C42.7154 52.6858 42.7098 52.6198 42.7172 52.5546C42.7245 52.4895 42.7446 52.4263 42.7763 52.3689C42.808 52.3115 42.8508 52.2609 42.902 52.22C42.9533 52.1791 43.0122 52.1487 43.0752 52.1305C43.1382 52.1124 43.2042 52.1068 43.2694 52.1141C43.3346 52.1214 43.3977 52.1416 43.4551 52.1733C43.5125 52.205 43.5631 52.2477 43.604 52.299C43.704 52.423 43.856 52.494 44.024 52.494H44.025C44.19 52.494 44.341 52.424 44.438 52.3C44.5239 52.2073 44.6416 52.1505 44.7676 52.1407C44.8936 52.131 45.0186 52.1692 45.1177 52.2476C45.2168 52.3259 45.2827 52.4388 45.3022 52.5636C45.3217 52.6885 45.2935 52.8161 45.223 52.921C45.0799 53.1007 44.898 53.2456 44.6908 53.3448C44.4837 53.4441 44.2567 53.4951 44.027 53.494H44.024Z" fill="black"/>
<path d="M44.831 53.11C44.7367 53.1107 44.6441 53.0846 44.564 53.0347C44.484 52.9848 44.4197 52.9133 44.3787 52.8283C44.3378 52.7433 44.3218 52.6485 44.3326 52.5548C44.3435 52.4611 44.3807 52.3724 44.44 52.299L50.65 44.514C50.6909 44.4627 50.7415 44.42 50.7989 44.3883C50.8563 44.3566 50.9195 44.3364 50.9846 44.3291C51.0498 44.3218 51.1158 44.3274 51.1789 44.3455C51.2419 44.3637 51.3007 44.3941 51.352 44.435C51.4033 44.4759 51.446 44.5265 51.4777 44.5839C51.5094 44.6413 51.5296 44.7045 51.5369 44.7696C51.5442 44.8348 51.5387 44.9008 51.5205 44.9639C51.5023 45.0269 51.4719 45.0857 51.431 45.137L45.221 52.922C45.1745 52.9808 45.1152 53.0283 45.0476 53.0609C44.9801 53.0935 44.906 53.1103 44.831 53.11ZM43.214 53.11C43.1389 53.11 43.0647 53.0932 42.997 53.0606C42.9294 53.0281 42.8699 52.9807 42.823 52.922L36.614 45.137C36.5731 45.0857 36.5427 45.0269 36.5245 44.9639C36.5064 44.9008 36.5008 44.8348 36.5081 44.7696C36.5154 44.7045 36.5355 44.6413 36.5673 44.5839C36.599 44.5265 36.6417 44.4759 36.693 44.435C36.7443 44.3941 36.8031 44.3637 36.8661 44.3455C36.9292 44.3274 36.9952 44.3218 37.0604 44.3291C37.1255 44.3364 37.1887 44.3566 37.2461 44.3883C37.3035 44.42 37.3541 44.4627 37.395 44.514L43.604 52.299C43.6632 52.3723 43.7005 52.4609 43.7113 52.5545C43.7222 52.6481 43.7063 52.7429 43.6655 52.8278C43.6246 52.9128 43.5605 52.9844 43.4806 53.0343C43.4007 53.0843 43.3082 53.1105 43.214 53.11ZM16.75 17.25H8C7.86739 17.25 7.74021 17.1973 7.64645 17.1036C7.55268 17.0098 7.5 16.8826 7.5 16.75C7.5 16.6174 7.55268 16.4902 7.64645 16.3964C7.74021 16.3027 7.86739 16.25 8 16.25H16.75C16.8826 16.25 17.0098 16.3027 17.1036 16.3964C17.1973 16.4902 17.25 16.6174 17.25 16.75C17.25 16.8826 17.1973 17.0098 17.1036 17.1036C17.0098 17.1973 16.8826 17.25 16.75 17.25ZM20.25 20.75H4.5C4.36739 20.75 4.24021 20.6973 4.14645 20.6036C4.05268 20.5098 4 20.3826 4 20.25C4 20.1174 4.05268 19.9902 4.14645 19.8964C4.24021 19.8027 4.36739 19.75 4.5 19.75H20.25C20.3826 19.75 20.5098 19.8027 20.6036 19.8964C20.6973 19.9902 20.75 20.1174 20.75 20.25C20.75 20.3826 20.6973 20.5098 20.6036 20.6036C20.5098 20.6973 20.3826 20.75 20.25 20.75ZM15.875 10.521C15.7424 10.521 15.6152 10.4683 15.5214 10.3746C15.4277 10.2808 15.375 10.1536 15.375 10.021V1C15.375 0.867392 15.4277 0.740215 15.5214 0.646447C15.6152 0.552679 15.7424 0.5 15.875 0.5C16.0076 0.5 16.1348 0.552679 16.2286 0.646447C16.3223 0.740215 16.375 0.867392 16.375 1V10.021C16.375 10.1536 16.3223 10.2808 16.2286 10.3746C16.1348 10.4683 16.0076 10.521 15.875 10.521Z" fill="black"/>
<path d="M15.875 10.521C15.7872 10.5213 15.7009 10.4982 15.625 10.454L12.125 8.433C12.0677 8.40041 12.0174 8.3568 11.977 8.30469C11.9366 8.25257 11.9069 8.19298 11.8896 8.12935C11.8723 8.06571 11.8678 7.99928 11.8763 7.93389C11.8848 7.8685 11.9061 7.80544 11.9391 7.74834C11.9721 7.69123 12.016 7.64121 12.0684 7.60116C12.1208 7.5611 12.1806 7.53181 12.2443 7.51495C12.3081 7.4981 12.3745 7.49402 12.4399 7.50295C12.5052 7.51188 12.5681 7.53365 12.625 7.567L16.125 9.588C16.2203 9.64304 16.2948 9.72798 16.3369 9.82967C16.379 9.93136 16.3864 10.0441 16.3579 10.1504C16.3295 10.2567 16.2667 10.3507 16.1794 10.4177C16.092 10.4847 15.9851 10.521 15.875 10.521ZM8.875 10.521C8.74239 10.521 8.61521 10.4683 8.52145 10.3746C8.42768 10.2808 8.375 10.1536 8.375 10.021V1C8.375 0.867392 8.42768 0.740215 8.52145 0.646447C8.61521 0.552679 8.74239 0.5 8.875 0.5C9.00761 0.5 9.13479 0.552679 9.22855 0.646447C9.32232 0.740215 9.375 0.867392 9.375 1V10.021C9.375 10.1536 9.32232 10.2808 9.22855 10.3746C9.13479 10.4683 9.00761 10.521 8.875 10.521Z" fill="black"/>
<path d="M8.87498 10.521C8.76492 10.521 8.65793 10.4847 8.57061 10.4177C8.48329 10.3507 8.42052 10.2567 8.39204 10.1504C8.36355 10.0441 8.37094 9.93135 8.41306 9.82966C8.45517 9.72797 8.52966 9.64303 8.62498 9.58799L12.125 7.56699C12.1818 7.53416 12.2446 7.51285 12.3097 7.50428C12.3748 7.49571 12.441 7.50004 12.5044 7.51703C12.5678 7.53403 12.6273 7.56335 12.6793 7.60332C12.7314 7.64329 12.7751 7.69313 12.808 7.74999C12.8408 7.80685 12.8621 7.86962 12.8707 7.93472C12.8793 7.99982 12.8749 8.06597 12.8579 8.12939C12.8409 8.19281 12.8116 8.25227 12.7716 8.30436C12.7317 8.35645 12.6818 8.40016 12.625 8.43299L9.12498 10.454C9.0489 10.4977 8.96272 10.5208 8.87498 10.521ZM20.25 24.25C20.1174 24.25 19.9902 24.1973 19.8964 24.1035C19.8027 24.0098 19.75 23.8826 19.75 23.75C19.75 23.6174 19.8027 23.4902 19.8964 23.3964C19.9902 23.3027 20.1174 23.25 20.25 23.25C21.904 23.25 23.25 21.904 23.25 20.25C23.25 20.1174 23.3027 19.9902 23.3964 19.8964C23.4902 19.8027 23.6174 19.75 23.75 19.75C23.8826 19.75 24.0098 19.8027 24.1035 19.8964C24.1973 19.9902 24.25 20.1174 24.25 20.25C24.25 22.456 22.456 24.25 20.25 24.25Z" fill="black"/>
<path d="M23.75 20.75C23.6174 20.75 23.4902 20.6973 23.3964 20.6036C23.3027 20.5098 23.25 20.3826 23.25 20.25V4.5C23.25 4.36739 23.3027 4.24021 23.3964 4.14645C23.4902 4.05268 23.6174 4 23.75 4C23.8826 4 24.0098 4.05268 24.1036 4.14645C24.1973 4.24021 24.25 4.36739 24.25 4.5V20.25C24.25 20.3826 24.1973 20.5098 24.1036 20.6036C24.0098 20.6973 23.8826 20.75 23.75 20.75ZM20.25 24.25H4.5C4.36739 24.25 4.24021 24.1973 4.14645 24.1036C4.05268 24.0098 4 23.8826 4 23.75C4 23.6174 4.05268 23.4902 4.14645 23.3964C4.24021 23.3027 4.36739 23.25 4.5 23.25H20.25C20.3826 23.25 20.5098 23.3027 20.6036 23.3964C20.6973 23.4902 20.75 23.6174 20.75 23.75C20.75 23.8826 20.6973 24.0098 20.6036 24.1036C20.5098 24.1973 20.3826 24.25 20.25 24.25Z" fill="black"/>
<path d="M4.5 24.25C2.294 24.25 0.5 22.456 0.5 20.25C0.5 20.1174 0.552679 19.9902 0.646447 19.8964C0.740215 19.8027 0.867392 19.75 1 19.75C1.13261 19.75 1.25979 19.8027 1.35355 19.8964C1.44732 19.9902 1.5 20.1174 1.5 20.25C1.5 21.904 2.846 23.25 4.5 23.25C4.63261 23.25 4.75979 23.3027 4.85355 23.3964C4.94732 23.4902 5 23.6174 5 23.75C5 23.8826 4.94732 24.0098 4.85355 24.1036C4.75979 24.1973 4.63261 24.25 4.5 24.25ZM23.75 5C23.6174 5 23.4902 4.94732 23.3964 4.85355C23.3027 4.75979 23.25 4.63261 23.25 4.5C23.25 2.846 21.904 1.5 20.25 1.5C20.1174 1.5 19.9902 1.44732 19.8964 1.35355C19.8027 1.25979 19.75 1.13261 19.75 1C19.75 0.867392 19.8027 0.740215 19.8964 0.646447C19.9902 0.552679 20.1174 0.5 20.25 0.5C22.456 0.5 24.25 2.294 24.25 4.5C24.25 4.63261 24.1973 4.75979 24.1036 4.85355C24.0098 4.94732 23.8826 5 23.75 5Z" fill="black"/>
<path d="M20.25 1.5H4.5C4.36739 1.5 4.24021 1.44732 4.14645 1.35355C4.05268 1.25979 4 1.13261 4 1C4 0.867392 4.05268 0.740215 4.14645 0.646447C4.24021 0.552679 4.36739 0.5 4.5 0.5H20.25C20.3826 0.5 20.5098 0.552679 20.6036 0.646447C20.6973 0.740215 20.75 0.867392 20.75 1C20.75 1.13261 20.6973 1.25979 20.6036 1.35355C20.5098 1.44732 20.3826 1.5 20.25 1.5Z" fill="black"/>
<path d="M1 5C0.867392 5 0.740215 4.94732 0.646447 4.85355C0.552679 4.75979 0.5 4.63261 0.5 4.5C0.5 2.294 2.294 0.5 4.5 0.5C4.63261 0.5 4.75979 0.552679 4.85355 0.646447C4.94732 0.740215 5 0.867392 5 1C5 1.13261 4.94732 1.25979 4.85355 1.35355C4.75979 1.44732 4.63261 1.5 4.5 1.5C2.846 1.5 1.5 2.846 1.5 4.5C1.5 4.63261 1.44732 4.75979 1.35355 4.85355C1.25979 4.94732 1.13261 5 1 5Z" fill="black"/>
</svg>
