<svg width="54" height="40" viewBox="0 0 54 40" fill="none" xmlns="http://www.w3.org/2000/svg">
<path d="M1 5C0.867392 5 0.740215 4.94732 0.646447 4.85355C0.552679 4.75979 0.5 4.63261 0.5 4.5V2.5C0.5 2.36739 0.552679 2.24021 0.646447 2.14645C0.740215 2.05268 0.867392 2 1 2C1.13261 2 1.25979 2.05268 1.35355 2.14645C1.44732 2.24021 1.5 2.36739 1.5 2.5V4.5C1.5 4.63261 1.44732 4.75979 1.35355 4.85355C1.25979 4.94732 1.13261 5 1 5ZM1 9C0.867392 9 0.740215 8.94732 0.646447 8.85355C0.552679 8.75979 0.5 8.63261 0.5 8.5V7.5C0.5 7.36739 0.552679 7.24021 0.646447 7.14645C0.740215 7.05268 0.867392 7 1 7C1.13261 7 1.25979 7.05268 1.35355 7.14645C1.44732 7.24021 1.5 7.36739 1.5 7.5V8.5C1.5 8.63261 1.44732 8.75979 1.35355 8.85355C1.25979 8.94732 1.13261 9 1 9ZM1 35C0.867392 35 0.740215 34.9473 0.646447 34.8536C0.552679 34.7598 0.5 34.6326 0.5 34.5V11.38C0.5 11.2474 0.552679 11.1202 0.646447 11.0264C0.740215 10.9327 0.867392 10.88 1 10.88C1.13261 10.88 1.25979 10.9327 1.35355 11.0264C1.44732 11.1202 1.5 11.2474 1.5 11.38V34.5C1.5 34.6326 1.44732 34.7598 1.35355 34.8536C1.25979 34.9473 1.13261 35 1 35ZM35 37H33.231C33.0984 37 32.9712 36.9473 32.8774 36.8536C32.7837 36.7598 32.731 36.6326 32.731 36.5C32.731 36.3674 32.7837 36.2402 32.8774 36.1464C32.9712 36.0527 33.0984 36 33.231 36H35C35.1326 36 35.2598 36.0527 35.3536 36.1464C35.4473 36.2402 35.5 36.3674 35.5 36.5C35.5 36.6326 35.4473 36.7598 35.3536 36.8536C35.2598 36.9473 35.1326 37 35 37ZM30.231 37H14.768C14.6354 37 14.5082 36.9473 14.4144 36.8536C14.3207 36.7598 14.268 36.6326 14.268 36.5C14.268 36.3674 14.3207 36.2402 14.4144 36.1464C14.5082 36.0527 14.6354 36 14.768 36H30.231C30.3636 36 30.4908 36.0527 30.5846 36.1464C30.6783 36.2402 30.731 36.3674 30.731 36.5C30.731 36.6326 30.6783 36.7598 30.5846 36.8536C30.4908 36.9473 30.3636 37 30.231 37ZM39.231 37H37.231C37.0984 37 36.9712 36.9473 36.8774 36.8536C36.7837 36.7598 36.731 36.6326 36.731 36.5C36.731 36.3674 36.7837 36.2402 36.8774 36.1464C36.9712 36.0527 37.0984 36 37.231 36H39.231C39.3636 36 39.4908 36.0527 39.5846 36.1464C39.6783 36.2402 39.731 36.3674 39.731 36.5C39.731 36.6326 39.6783 36.7598 39.5846 36.8536C39.4908 36.9473 39.3636 37 39.231 37ZM26.84 12.92C26.7074 12.92 26.5802 12.8673 26.4864 12.7736C26.3927 12.6798 26.34 12.5526 26.34 12.42C26.34 11.57 27.031 10.88 27.88 10.88C28.0126 10.88 28.1398 10.9327 28.2336 11.0264C28.3273 11.1202 28.38 11.2474 28.38 11.38C28.38 11.5126 28.3273 11.6398 28.2336 11.7336C28.1398 11.8273 28.0126 11.88 27.88 11.88C27.7368 11.88 27.5994 11.9369 27.4982 12.0382C27.3969 12.1394 27.34 12.2768 27.34 12.42C27.34 12.5526 27.2873 12.6798 27.1936 12.7736C27.0998 12.8673 26.9726 12.92 26.84 12.92Z" fill="black"/>
<path d="M26.84 17.0799C26.7074 17.0799 26.5802 17.0272 26.4865 16.9335C26.3927 16.8397 26.34 16.7125 26.34 16.5799V12.4199C26.34 12.2873 26.3927 12.1601 26.4865 12.0664C26.5802 11.9726 26.7074 11.9199 26.84 11.9199C26.9726 11.9199 27.0998 11.9726 27.1936 12.0664C27.2873 12.1601 27.34 12.2873 27.34 12.4199V16.5799C27.34 16.7125 27.2873 16.8397 27.1936 16.9335C27.0998 17.0272 26.9726 17.0799 26.84 17.0799Z" fill="black"/>
<path d="M27.88 18.1209C27.031 18.1209 26.34 17.4309 26.34 16.5809C26.34 16.4483 26.3927 16.3211 26.4865 16.2273C26.5802 16.1335 26.7074 16.0809 26.84 16.0809C26.9726 16.0809 27.0998 16.1335 27.1936 16.2273C27.2873 16.3211 27.34 16.4483 27.34 16.5809C27.34 16.8789 27.582 17.1209 27.88 17.1209C28.0126 17.1209 28.1398 17.1735 28.2336 17.2673C28.3273 17.3611 28.38 17.4883 28.38 17.6209C28.38 17.7535 28.3273 17.8806 28.2336 17.9744C28.1398 18.0682 28.0126 18.1209 27.88 18.1209ZM31 11.8809H27.88C27.7474 11.8809 27.6202 11.8282 27.5265 11.7344C27.4327 11.6406 27.38 11.5135 27.38 11.3809C27.38 11.2483 27.4327 11.1211 27.5265 11.0273C27.6202 10.9335 27.7474 10.8809 27.88 10.8809H31C31.1326 10.8809 31.2598 10.9335 31.3536 11.0273C31.4473 11.1211 31.5 11.2483 31.5 11.3809C31.5 11.5135 31.4473 11.6406 31.3536 11.7344C31.2598 11.8282 31.1326 11.8809 31 11.8809Z" fill="black"/>
<path d="M31 18.12H27.88C27.7474 18.12 27.6202 18.0673 27.5264 17.9736C27.4327 17.8798 27.38 17.7526 27.38 17.62C27.38 17.4874 27.4327 17.3602 27.5264 17.2664C27.6202 17.1727 27.7474 17.12 27.88 17.12H31C31.1326 17.12 31.2598 17.1727 31.3536 17.2664C31.4473 17.3602 31.5 17.4874 31.5 17.62C31.5 17.7526 31.4473 17.8798 31.3536 17.9736C31.2598 18.0673 31.1326 18.12 31 18.12ZM29.96 15H26.84C26.7074 15 26.5802 14.9473 26.4864 14.8536C26.3927 14.7598 26.34 14.6326 26.34 14.5C26.34 14.3674 26.3927 14.2402 26.4864 14.1464C26.5802 14.0527 26.7074 14 26.84 14H29.96C30.0926 14 30.2198 14.0527 30.3136 14.1464C30.4073 14.2402 30.46 14.3674 30.46 14.5C30.46 14.6326 30.4073 14.7598 30.3136 14.8536C30.2198 14.9473 30.0926 15 29.96 15ZM16.44 18.12C16.3349 18.1198 16.2325 18.0865 16.1473 18.025C16.062 17.9634 15.9983 17.8767 15.965 17.777L14.929 14.657C14.8892 14.5317 14.9004 14.3958 14.9601 14.2786C15.0199 14.1615 15.1233 14.0726 15.2481 14.0312C15.3728 13.9898 15.5089 13.9992 15.6268 14.0574C15.7447 14.1155 15.8349 14.2178 15.878 14.342L16.914 17.462C16.939 17.5371 16.9458 17.6171 16.9339 17.6954C16.922 17.7737 16.8916 17.848 16.8453 17.9123C16.799 17.9765 16.7382 18.0288 16.6677 18.065C16.5972 18.1011 16.5192 18.1199 16.44 18.12Z" fill="black"/>
<path d="M15.404 15.0008C15.2714 15.0008 15.1442 14.9482 15.0504 14.8544C14.9567 14.7606 14.904 14.6335 14.904 14.5008C14.904 14.3682 14.9567 14.2411 15.0504 14.1473C15.1442 14.0535 15.2714 14.0008 15.404 14.0008C15.699 14.0008 15.94 13.7608 15.94 13.4648C15.94 13.3322 15.9927 13.2051 16.0864 13.1113C16.1802 13.0175 16.3074 12.9648 16.44 12.9648C16.5726 12.9648 16.6998 13.0175 16.7935 13.1113C16.8873 13.2051 16.94 13.3322 16.94 13.4648C16.94 14.3118 16.251 15.0008 15.404 15.0008Z" fill="black"/>
<path d="M15.404 15H12.28C12.1474 15 12.0202 14.9473 11.9265 14.8536C11.8327 14.7598 11.78 14.6326 11.78 14.5C11.78 14.3674 11.8327 14.2402 11.9265 14.1465C12.0202 14.0527 12.1474 14 12.28 14H15.405C15.4707 14.0001 15.5357 14.0131 15.5963 14.0383C15.657 14.0635 15.7121 14.1003 15.7584 14.1468C15.8048 14.1933 15.8416 14.2484 15.8667 14.3091C15.8917 14.3698 15.9046 14.4349 15.9045 14.5005C15.9045 14.5662 15.8915 14.6312 15.8663 14.6918C15.8411 14.7525 15.8042 14.8075 15.7577 14.8539C15.7113 14.9003 15.6561 14.9371 15.5954 14.9621C15.5347 14.9872 15.4697 15.0001 15.404 15ZM16.44 13.964C16.3074 13.964 16.1802 13.9113 16.0865 13.8176C15.9927 13.7238 15.94 13.5966 15.94 13.464V12.416C15.94 12.2834 15.9927 12.1562 16.0865 12.0625C16.1802 11.9687 16.3074 11.916 16.44 11.916C16.5726 11.916 16.6998 11.9687 16.7936 12.0625C16.8874 12.1562 16.94 12.2834 16.94 12.416V13.464C16.94 13.5966 16.8874 13.7238 16.7936 13.8176C16.6998 13.9113 16.5726 13.964 16.44 13.964Z" fill="black"/>
<path d="M16.44 12.9169C16.3074 12.9169 16.1802 12.8642 16.0864 12.7704C15.9927 12.6766 15.94 12.5495 15.94 12.4169C15.94 12.2747 15.8835 12.1384 15.783 12.0379C15.6825 11.9373 15.5461 11.8809 15.404 11.8809C15.2714 11.8809 15.1442 11.8282 15.0504 11.7344C14.9567 11.6406 14.904 11.5135 14.904 11.3809C14.904 11.2483 14.9567 11.1211 15.0504 11.0273C15.1442 10.9335 15.2714 10.8809 15.404 10.8809C16.251 10.8809 16.94 11.5699 16.94 12.4169C16.94 12.5495 16.8873 12.6766 16.7935 12.7704C16.6998 12.8642 16.5726 12.9169 16.44 12.9169Z" fill="black"/>
<path d="M15.404 11.8809H12.28C12.1474 11.8809 12.0202 11.8282 11.9265 11.7344C11.8327 11.6406 11.78 11.5135 11.78 11.3809C11.78 11.2483 11.8327 11.1211 11.9265 11.0273C12.0202 10.9335 12.1474 10.8809 12.28 10.8809H15.405C15.4707 10.8809 15.5357 10.8939 15.5963 10.9191C15.657 10.9443 15.7121 10.9812 15.7584 11.0277C15.8048 11.0741 15.8416 11.1293 15.8667 11.19C15.8917 11.2507 15.9046 11.3157 15.9045 11.3814C15.9045 11.447 15.8915 11.512 15.8663 11.5727C15.8411 11.6333 15.8042 11.6884 15.7577 11.7348C15.7113 11.7812 15.6561 11.8179 15.5954 11.843C15.5347 11.8681 15.4697 11.8809 15.404 11.8809Z" fill="black"/>
<path d="M12.28 18.1209C12.1474 18.1209 12.0202 18.0682 11.9264 17.9744C11.8327 17.8806 11.78 17.7535 11.78 17.6209V11.3809C11.78 11.2483 11.8327 11.1211 11.9264 11.0273C12.0202 10.9335 12.1474 10.8809 12.28 10.8809C12.4126 10.8809 12.5398 10.9335 12.6336 11.0273C12.7273 11.1211 12.78 11.2483 12.78 11.3809V17.6209C12.78 17.7535 12.7273 17.8806 12.6336 17.9744C12.5398 18.0682 12.4126 18.1209 12.28 18.1209ZM8.12 15.0009H5C4.86739 15.0009 4.74021 14.9482 4.64645 14.8544C4.55268 14.7606 4.5 14.6335 4.5 14.5009C4.5 14.3683 4.55268 14.2411 4.64645 14.1473C4.74021 14.0535 4.86739 14.0009 5 14.0009H8.12C8.25261 14.0009 8.37979 14.0535 8.47355 14.1473C8.56732 14.2411 8.62 14.3683 8.62 14.5009C8.62 14.6335 8.56732 14.7606 8.47355 14.8544C8.37979 14.9482 8.25261 15.0009 8.12 15.0009ZM5 12.9169C4.86739 12.9169 4.74021 12.8642 4.64645 12.7704C4.55268 12.6766 4.5 12.5495 4.5 12.4169C4.5 11.5699 5.189 10.8809 6.036 10.8809C6.16861 10.8809 6.29578 10.9335 6.38955 11.0273C6.48332 11.1211 6.536 11.2483 6.536 11.3809C6.536 11.5135 6.48332 11.6406 6.38955 11.7344C6.29578 11.8282 6.16861 11.8809 6.036 11.8809C5.89393 11.8811 5.75775 11.9377 5.65728 12.0381C5.55682 12.1386 5.50026 12.2748 5.5 12.4169C5.5 12.5495 5.44732 12.6766 5.35355 12.7704C5.25979 12.8642 5.13261 12.9169 5 12.9169Z" fill="black"/>
<path d="M9.16 11.8809H6.035C5.90239 11.8809 5.77522 11.8282 5.68145 11.7344C5.58768 11.6406 5.535 11.5135 5.535 11.3809C5.535 11.2483 5.58768 11.1211 5.68145 11.0273C5.77522 10.9335 5.90239 10.8809 6.035 10.8809H9.16C9.29261 10.8809 9.41979 10.9335 9.51355 11.0273C9.60732 11.1211 9.66 11.2483 9.66 11.3809C9.66 11.5135 9.60732 11.6406 9.51355 11.7344C9.41979 11.8282 9.29261 11.8809 9.16 11.8809ZM5 18.1209C4.86739 18.1209 4.74021 18.0682 4.64645 17.9744C4.55268 17.8806 4.5 17.7535 4.5 17.6209V12.4169C4.5 12.2843 4.55268 12.1571 4.64645 12.0633C4.74021 11.9695 4.86739 11.9169 5 11.9169C5.13261 11.9169 5.25979 11.9695 5.35355 12.0633C5.44732 12.1571 5.5 12.2843 5.5 12.4169V17.6209C5.5 17.7535 5.44732 17.8806 5.35355 17.9744C5.25979 18.0682 5.13261 18.1209 5 18.1209ZM19.56 12.9209C19.4274 12.9209 19.3002 12.8682 19.2064 12.7744C19.1127 12.6806 19.06 12.5535 19.06 12.4209C19.06 11.5709 19.751 10.8809 20.6 10.8809C20.7326 10.8809 20.8598 10.9335 20.9536 11.0273C21.0473 11.1211 21.1 11.2483 21.1 11.3809C21.1 11.5135 21.0473 11.6406 20.9536 11.7344C20.8598 11.8282 20.7326 11.8809 20.6 11.8809C20.4568 11.8809 20.3194 11.9378 20.2182 12.039C20.1169 12.1403 20.06 12.2776 20.06 12.4209C20.06 12.5535 20.0073 12.6806 19.9136 12.7744C19.8198 12.8682 19.6926 12.9209 19.56 12.9209Z" fill="black"/>
<path d="M19.56 17.0799C19.4274 17.0799 19.3002 17.0272 19.2064 16.9335C19.1127 16.8397 19.06 16.7125 19.06 16.5799V12.4199C19.06 12.2873 19.1127 12.1601 19.2064 12.0664C19.3002 11.9726 19.4274 11.9199 19.56 11.9199C19.6926 11.9199 19.8198 11.9726 19.9136 12.0664C20.0073 12.1601 20.06 12.2873 20.06 12.4199V16.5799C20.06 16.7125 20.0073 16.8397 19.9136 16.9335C19.8198 17.0272 19.6926 17.0799 19.56 17.0799Z" fill="black"/>
<path d="M20.6 18.1209C19.751 18.1209 19.06 17.4309 19.06 16.5809C19.06 16.4483 19.1127 16.3211 19.2064 16.2273C19.3002 16.1335 19.4274 16.0809 19.56 16.0809C19.6926 16.0809 19.8198 16.1335 19.9136 16.2273C20.0073 16.3211 20.06 16.4483 20.06 16.5809C20.06 16.8789 20.302 17.1209 20.6 17.1209C20.7326 17.1209 20.8598 17.1735 20.9536 17.2673C21.0473 17.3611 21.1 17.4883 21.1 17.6209C21.1 17.7535 21.0473 17.8806 20.9536 17.9744C20.8598 18.0682 20.7326 18.1209 20.6 18.1209ZM23.72 11.8809H20.6C20.4674 11.8809 20.3402 11.8282 20.2464 11.7344C20.1527 11.6406 20.1 11.5135 20.1 11.3809C20.1 11.2483 20.1527 11.1211 20.2464 11.0273C20.3402 10.9335 20.4674 10.8809 20.6 10.8809H23.72C23.8526 10.8809 23.9798 10.9335 24.0736 11.0273C24.1673 11.1211 24.22 11.2483 24.22 11.3809C24.22 11.5135 24.1673 11.6406 24.0736 11.7344C23.9798 11.8282 23.8526 11.8809 23.72 11.8809Z" fill="black"/>
<path d="M23.72 18.12H20.6C20.4674 18.12 20.3402 18.0673 20.2464 17.9736C20.1527 17.8798 20.1 17.7526 20.1 17.62C20.1 17.4874 20.1527 17.3602 20.2464 17.2664C20.3402 17.1727 20.4674 17.12 20.6 17.12H23.72C23.8526 17.12 23.9798 17.1727 24.0736 17.2664C24.1673 17.3602 24.22 17.4874 24.22 17.62C24.22 17.7526 24.1673 17.8798 24.0736 17.9736C23.9798 18.0673 23.8526 18.12 23.72 18.12ZM22.68 15H19.56C19.4274 15 19.3002 14.9473 19.2064 14.8536C19.1127 14.7598 19.06 14.6326 19.06 14.5C19.06 14.3674 19.1127 14.2402 19.2064 14.1464C19.3002 14.0527 19.4274 14 19.56 14H22.68C22.8126 14 22.9398 14.0527 23.0336 14.1464C23.1273 14.2402 23.18 14.3674 23.18 14.5C23.18 14.6326 23.1273 14.7598 23.0336 14.8536C22.9398 14.9473 22.8126 15 22.68 15ZM39.181 11H35C34.8674 11 34.7402 10.9473 34.6464 10.8536C34.5527 10.7598 34.5 10.6326 34.5 10.5C34.5 10.3674 34.5527 10.2402 34.6464 10.1464C34.7402 10.0527 34.8674 10 35 10H39.181C39.3136 10 39.4408 10.0527 39.5346 10.1464C39.6283 10.2402 39.681 10.3674 39.681 10.5C39.681 10.6326 39.6283 10.7598 39.5346 10.8536C39.4408 10.9473 39.3136 11 39.181 11ZM47 23H39C38.8674 23 38.7402 22.9473 38.6464 22.8536C38.5527 22.7598 38.5 22.6326 38.5 22.5C38.5 22.3674 38.5527 22.2402 38.6464 22.1464C38.7402 22.0527 38.8674 22 39 22H47C47.1326 22 47.2598 22.0527 47.3536 22.1464C47.4473 22.2402 47.5 22.3674 47.5 22.5C47.5 22.6326 47.4473 22.7598 47.3536 22.8536C47.2598 22.9473 47.1326 23 47 23ZM35 29H1C0.867392 29 0.740215 28.9473 0.646447 28.8536C0.552679 28.7598 0.5 28.6326 0.5 28.5C0.5 28.3674 0.552679 28.2402 0.646447 28.1464C0.740215 28.0527 0.867392 28 1 28H35C35.1326 28 35.2598 28.0527 35.3536 28.1464C35.4473 28.2402 35.5 28.3674 35.5 28.5C35.5 28.6326 35.4473 28.7598 35.3536 28.8536C35.2598 28.9473 35.1326 29 35 29ZM33 1H3C2.86739 1 2.74021 0.947322 2.64645 0.853554C2.55268 0.759786 2.5 0.632608 2.5 0.5C2.5 0.367392 2.55268 0.240214 2.64645 0.146446C2.74021 0.052678 2.86739 0 3 0H33C33.1326 0 33.2598 0.052678 33.3536 0.146446C33.4473 0.240214 33.5 0.367392 33.5 0.5C33.5 0.632608 33.4473 0.759786 33.3536 0.853554C33.2598 0.947322 33.1326 1 33 1Z" fill="black"/>
<path d="M35 29C34.8674 29 34.7402 28.9473 34.6464 28.8536C34.5527 28.7598 34.5 28.6326 34.5 28.5V2.5C34.5 2.36739 34.5527 2.24021 34.6464 2.14645C34.7402 2.05268 34.8674 2 35 2C35.1326 2 35.2598 2.05268 35.3536 2.14645C35.4473 2.24021 35.5 2.36739 35.5 2.5V28.5C35.5 28.6326 35.4473 28.7598 35.3536 28.8536C35.2598 28.9473 35.1326 29 35 29Z" fill="black"/>
<path d="M35 3C34.8674 3 34.7402 2.94732 34.6464 2.85355C34.5527 2.75979 34.5 2.63261 34.5 2.5C34.5 1.673 33.827 1 33 1C32.8674 1 32.7402 0.947322 32.6464 0.853554C32.5527 0.759786 32.5 0.632608 32.5 0.5C32.5 0.367392 32.5527 0.240214 32.6464 0.146446C32.7402 0.052678 32.8674 0 33 0C34.379 0 35.5 1.121 35.5 2.5C35.5 2.63261 35.4473 2.75979 35.3536 2.85355C35.2598 2.94732 35.1326 3 35 3ZM47 23C46.8899 23 46.7828 22.9636 46.6955 22.8965C46.6082 22.8294 46.5454 22.7354 46.517 22.629L44.494 15.076C44.4598 14.9479 44.4779 14.8115 44.5443 14.6967C44.6107 14.5819 44.7199 14.4982 44.848 14.464C44.976 14.432 45.1115 14.451 45.2257 14.5171C45.3399 14.5831 45.4239 14.6911 45.46 14.818L47.483 22.371C47.5028 22.4451 47.5053 22.5227 47.4903 22.5978C47.4753 22.673 47.4432 22.7437 47.3965 22.8045C47.3498 22.8653 47.2898 22.9146 47.221 22.9485C47.1523 22.9824 47.0767 23 47 23ZM1 3C0.867392 3 0.740215 2.94732 0.646447 2.85355C0.552679 2.75979 0.5 2.63261 0.5 2.5C0.5 1.121 1.622 0 3 0C3.13261 0 3.25979 0.052678 3.35355 0.146446C3.44732 0.240214 3.5 0.367392 3.5 0.5C3.5 0.632608 3.44732 0.759786 3.35355 0.853554C3.25979 0.947322 3.13261 1 3 1C2.173 1 1.5 1.673 1.5 2.5C1.5 2.63261 1.44732 2.75979 1.35355 2.85355C1.25979 2.94732 1.13261 3 1 3ZM51 37H46.978C46.8454 37 46.7182 36.9473 46.6244 36.8536C46.5307 36.7598 46.478 36.6326 46.478 36.5C46.478 36.3674 46.5307 36.2402 46.6244 36.1464C46.7182 36.0527 46.8454 36 46.978 36H51C51.1326 36 51.2598 36.0527 51.3536 36.1464C51.4473 36.2402 51.5 36.3674 51.5 36.5C51.5 36.6326 51.4473 36.7598 51.3536 36.8536C51.2598 36.9473 51.1326 37 51 37ZM7.022 37H3C2.86739 37 2.74021 36.9473 2.64645 36.8536C2.55268 36.7598 2.5 36.6326 2.5 36.5C2.5 36.3674 2.55268 36.2402 2.64645 36.1464C2.74021 36.0527 2.86739 36 3 36H7.022C7.15461 36 7.28179 36.0527 7.37555 36.1464C7.46932 36.2402 7.522 36.3674 7.522 36.5C7.522 36.6326 7.46932 36.7598 7.37555 36.8536C7.28179 36.9473 7.15461 37 7.022 37Z" fill="black"/>
<path d="M10.895 40C8.45602 40 6.39502 37.939 6.39502 35.5C6.39502 33.061 8.45602 31 10.895 31C13.334 31 15.395 33.061 15.395 35.5C15.395 37.939 13.334 40 10.895 40ZM10.895 32C8.99802 32 7.39502 33.603 7.39502 35.5C7.39502 37.397 8.99802 39 10.895 39C12.792 39 14.395 37.397 14.395 35.5C14.395 33.603 12.792 32 10.895 32ZM43.104 40C40.665 40 38.604 37.939 38.604 35.5C38.604 33.061 40.665 31 43.104 31C45.543 31 47.604 33.061 47.604 35.5C47.604 37.939 45.544 40 43.104 40ZM43.104 32C41.207 32 39.604 33.603 39.604 35.5C39.604 37.397 41.207 39 43.104 39C45.001 39 46.604 37.397 46.604 35.5C46.604 33.603 45.002 32 43.104 32ZM44.977 15.447C44.867 15.447 44.7601 15.4108 44.6728 15.3439C44.5854 15.277 44.5226 15.1832 44.494 15.077C44.1792 13.9082 43.4883 12.8756 42.528 12.1387C41.5677 11.4018 40.3915 11.0016 39.181 11C39.0484 11 38.9212 10.9473 38.8275 10.8536C38.7337 10.7598 38.681 10.6326 38.681 10.5C38.681 10.3674 38.7337 10.2402 38.8275 10.1464C38.9212 10.0527 39.0484 10 39.181 10C40.6115 10.0015 42.0016 10.4742 43.1365 11.3449C44.2714 12.2155 45.088 13.4358 45.46 14.817C45.48 14.8911 45.4826 14.9688 45.4677 15.0441C45.4528 15.1194 45.4207 15.1903 45.374 15.2512C45.3273 15.3121 45.2672 15.3615 45.1984 15.3954C45.1295 15.4294 45.0538 15.447 44.977 15.447ZM53 29C52.8674 29 52.7402 28.9473 52.6465 28.8536C52.5527 28.7598 52.5 28.6326 52.5 28.5C52.5 25.468 50.032 23 47 23C46.8674 23 46.7402 22.9473 46.6465 22.8536C46.5527 22.7598 46.5 22.6326 46.5 22.5C46.5 22.3674 46.5527 22.2402 46.6465 22.1464C46.7402 22.0527 46.8674 22 47 22C50.584 22 53.5 24.916 53.5 28.5C53.5 28.6326 53.4473 28.7598 53.3536 28.8536C53.2598 28.9473 53.1326 29 53 29Z" fill="black"/>
<path d="M53 35C52.8674 35 52.7402 34.9473 52.6464 34.8536C52.5527 34.7598 52.5 34.6326 52.5 34.5V28.5C52.5 28.3674 52.5527 28.2402 52.6464 28.1464C52.7402 28.0527 52.8674 28 53 28C53.1326 28 53.2598 28.0527 53.3536 28.1464C53.4473 28.2402 53.5 28.3674 53.5 28.5V34.5C53.5 34.6326 53.4473 34.7598 53.3536 34.8536C53.2598 34.9473 53.1326 35 53 35Z" fill="black"/>
<path d="M51 37C50.8674 37 50.7402 36.9473 50.6464 36.8536C50.5527 36.7598 50.5 36.6326 50.5 36.5C50.5 36.3674 50.5527 36.2402 50.6464 36.1464C50.7402 36.0527 50.8674 36 51 36C51.827 36 52.5 35.327 52.5 34.5C52.5 34.3674 52.5527 34.2402 52.6464 34.1464C52.7402 34.0527 52.8674 34 53 34C53.1326 34 53.2598 34.0527 53.3536 34.1464C53.4473 34.2402 53.5 34.3674 53.5 34.5C53.5 35.879 52.379 37 51 37ZM3 37C2.3372 36.9992 1.70178 36.7356 1.23311 36.2669C0.764441 35.7982 0.500794 35.1628 0.5 34.5C0.5 34.3674 0.552679 34.2402 0.646447 34.1464C0.740215 34.0527 0.867392 34 1 34C1.13261 34 1.25979 34.0527 1.35355 34.1464C1.44732 34.2402 1.5 34.3674 1.5 34.5C1.5 35.327 2.173 36 3 36C3.13261 36 3.25979 36.0527 3.35355 36.1464C3.44732 36.2402 3.5 36.3674 3.5 36.5C3.5 36.6326 3.44732 36.7598 3.35355 36.8536C3.25979 36.9473 3.13261 37 3 37Z" fill="black"/>
</svg>
