<svg width="50" height="54" viewBox="0 0 50 54" fill="none" xmlns="http://www.w3.org/2000/svg">
<path d="M7.00002 33.5719C6.9012 33.5719 6.80461 33.5426 6.72243 33.4877C6.64026 33.4328 6.57619 33.3548 6.53831 33.2636C6.50044 33.1723 6.49045 33.0719 6.50962 32.9749C6.52879 32.878 6.57625 32.7889 6.64602 32.7189L13.717 25.6479C13.8113 25.5568 13.9376 25.5064 14.0687 25.5076C14.1998 25.5087 14.3252 25.5613 14.4179 25.654C14.5106 25.7467 14.5632 25.8721 14.5644 26.0032C14.5655 26.1343 14.5151 26.2606 14.424 26.3549L7.35302 33.4259C7.30668 33.4723 7.25165 33.5091 7.19107 33.5341C7.1305 33.5592 7.06557 33.572 7.00002 33.5719ZM7.00002 29.3289C6.9012 29.3289 6.80461 29.2996 6.72243 29.2447C6.64026 29.1898 6.57619 29.1118 6.53831 29.0206C6.50044 28.9293 6.49045 28.8289 6.50962 28.7319C6.52879 28.635 6.57625 28.5459 6.64602 28.4759L9.47502 25.6479C9.56932 25.5568 9.69562 25.5064 9.82672 25.5076C9.95781 25.5087 10.0832 25.5613 10.1759 25.654C10.2686 25.7467 10.3212 25.8721 10.3224 26.0032C10.3235 26.1343 10.2731 26.2606 10.182 26.3549L7.35302 29.1829C7.30668 29.2293 7.25165 29.2661 7.19107 29.2911C7.1305 29.3162 7.06557 29.329 7.00002 29.3289ZM20 53.5009C19.8674 53.5009 19.7402 53.4482 19.6465 53.3545C19.5527 53.2607 19.5 53.1335 19.5 53.0009V15.0009C19.5 14.8683 19.5527 14.7411 19.6465 14.6474C19.7402 14.5536 19.8674 14.5009 20 14.5009C20.1326 14.5009 20.2598 14.5536 20.3536 14.6474C20.4473 14.7411 20.5 14.8683 20.5 15.0009V53.0009C20.5 53.1335 20.4473 53.2607 20.3536 53.3545C20.2598 53.4482 20.1326 53.5009 20 53.5009ZM30 53.5009C29.8674 53.5009 29.7402 53.4482 29.6465 53.3545C29.5527 53.2607 29.5 53.1335 29.5 53.0009V15.0009C29.5 14.8683 29.5527 14.7411 29.6465 14.6474C29.7402 14.5536 29.8674 14.5009 30 14.5009C30.1326 14.5009 30.2598 14.5536 30.3536 14.6474C30.4473 14.7411 30.5 14.8683 30.5 15.0009V53.0009C30.5 53.1335 30.4473 53.2607 30.3536 53.3545C30.2598 53.4482 30.1326 53.5009 30 53.5009ZM16.917 15.5009C15.009 15.5009 13.32 14.4709 12.4 12.7449C11.492 11.0419 11.579 9.01292 12.628 7.45092C13.612 5.98392 15.286 5.14992 17.087 5.20792C18.898 5.26992 20.507 6.21992 21.391 7.75092C21.4563 7.86569 21.4735 8.00163 21.4389 8.12905C21.4043 8.25647 21.3207 8.36504 21.2064 8.43105C21.092 8.49707 20.9562 8.51518 20.8286 8.48144C20.7009 8.44769 20.5918 8.36482 20.525 8.25092C19.815 7.02192 18.518 6.25692 17.054 6.20692C15.602 6.17792 14.249 6.83092 13.458 8.00792C12.603 9.28192 12.537 10.8769 13.282 12.2749C14.025 13.6699 15.384 14.5019 16.916 14.5019C17.0446 14.5075 17.1661 14.5626 17.2552 14.6555C17.3443 14.7485 17.394 14.8722 17.3942 15.0009C17.3943 15.1297 17.3448 15.2535 17.2559 15.3466C17.167 15.4398 17.0456 15.495 16.917 15.5009ZM33.083 15.5009C32.9504 15.5009 32.8232 15.4482 32.7295 15.3545C32.6357 15.2607 32.583 15.1335 32.583 15.0009C32.583 14.8683 32.6357 14.7411 32.7295 14.6474C32.8232 14.5536 32.9504 14.5009 33.083 14.5009C34.504 14.5009 35.815 13.7589 36.59 12.5149C37.362 11.2749 37.451 9.77492 36.826 8.50292C36.15 7.12492 34.802 6.27092 33.219 6.21692C31.64 6.18592 30.24 6.92392 29.474 8.25092C29.4414 8.30824 29.3978 8.35855 29.3457 8.39895C29.2936 8.43935 29.234 8.46904 29.1704 8.48632C29.1067 8.5036 29.0403 8.50812 28.9749 8.49962C28.9095 8.49112 28.8465 8.46977 28.7894 8.4368C28.7322 8.40383 28.6822 8.35989 28.6422 8.30751C28.6021 8.25513 28.5728 8.19534 28.556 8.13159C28.5391 8.06784 28.535 8.00139 28.544 7.93605C28.5529 7.87072 28.5747 7.8078 28.608 7.75092C29.561 6.09992 31.307 5.15392 33.252 5.21792C35.182 5.28292 36.896 6.37292 37.725 8.06192C38.502 9.64692 38.396 11.5089 37.439 13.0439C36.479 14.5819 34.852 15.5009 33.083 15.5009Z" fill="black"/>
<path d="M25 15.5009C24.9122 15.5009 24.826 15.4778 24.75 15.4339C24.674 15.39 24.6109 15.3269 24.567 15.2509C24.5231 15.1749 24.5 15.0887 24.5 15.0009C24.5 14.9131 24.5231 14.8269 24.567 14.7509L28.609 7.75092C28.6416 7.6936 28.6852 7.64329 28.7373 7.60288C28.7894 7.56248 28.849 7.53279 28.9126 7.51551C28.9763 7.49824 29.0427 7.49372 29.1081 7.50222C29.1735 7.51072 29.2365 7.53207 29.2936 7.56504C29.3508 7.59801 29.4008 7.64195 29.4408 7.69433C29.4809 7.74671 29.5102 7.8065 29.527 7.87025C29.5439 7.934 29.548 8.00045 29.539 8.06578C29.5301 8.13111 29.5083 8.19403 29.475 8.25092L25.434 15.2509C25.3897 15.3268 25.3264 15.3898 25.2502 15.4336C25.1741 15.4775 25.0878 15.5007 25 15.5009Z" fill="black"/>
<path d="M25 15.4991C24.9121 15.4991 24.8258 15.4759 24.7496 15.4321C24.6735 15.3882 24.6101 15.3251 24.566 15.2491L20.524 8.24908C20.4588 8.1343 20.4416 7.99837 20.4761 7.87095C20.5107 7.74353 20.5943 7.63496 20.7087 7.56894C20.823 7.50293 20.9588 7.48482 21.0865 7.51856C21.2141 7.55231 21.3232 7.63518 21.39 7.74908L25.432 14.7491C25.4759 14.825 25.499 14.9111 25.499 14.9988C25.4991 15.0865 25.476 15.1727 25.4323 15.2486C25.3885 15.3246 25.3255 15.3878 25.2497 15.4317C25.1738 15.4757 25.0877 15.4989 25 15.4991Z" fill="black"/>
<path d="M29.041 8.49995C28.9532 8.49995 28.867 8.47685 28.791 8.43296C28.715 8.38908 28.6519 8.32596 28.608 8.24995C28.5641 8.17394 28.541 8.08772 28.541 7.99995C28.541 7.91218 28.5641 7.82596 28.608 7.74995C29.296 6.55995 29.329 5.09195 28.697 3.82295C28.067 2.55595 26.878 1.69995 25.515 1.53095C23.969 1.34095 22.455 2.05296 21.566 3.39496C20.667 4.75196 20.601 6.37995 21.392 7.74895C21.4572 7.86373 21.4744 7.99967 21.4398 8.12709C21.4053 8.25451 21.3217 8.36307 21.2073 8.42909C21.093 8.49511 20.9572 8.51322 20.8295 8.47947C20.7019 8.44573 20.5927 8.36286 20.526 8.24895C19.557 6.56895 19.636 4.49695 20.733 2.84195C21.834 1.18195 23.716 0.293955 25.639 0.537955C27.335 0.747955 28.813 1.80895 29.594 3.37695C30.375 4.94595 30.331 6.76795 29.475 8.24895C29.431 8.32516 29.3677 8.38846 29.2916 8.43251C29.2154 8.47657 29.129 8.49982 29.041 8.49995ZM47 23.5C46.8674 23.5 46.7402 23.4473 46.6464 23.3535C46.5527 23.2597 46.5 23.1326 46.5 23C46.5 22.8673 46.5527 22.7402 46.6464 22.6464C46.7402 22.5526 46.8674 22.5 47 22.5C47.827 22.5 48.5 21.827 48.5 21C48.5 20.8673 48.5527 20.7402 48.6464 20.6464C48.7402 20.5526 48.8674 20.5 49 20.5C49.1326 20.5 49.2598 20.5526 49.3535 20.6464C49.4473 20.7402 49.5 20.8673 49.5 21C49.5 22.379 48.379 23.5 47 23.5Z" fill="black"/>
<path d="M49 21.5C48.8674 21.5 48.7402 21.4473 48.6464 21.3536C48.5527 21.2598 48.5 21.1326 48.5 21V17C48.5 16.8674 48.5527 16.7402 48.6464 16.6464C48.7402 16.5527 48.8674 16.5 49 16.5C49.1326 16.5 49.2598 16.5527 49.3536 16.6464C49.4473 16.7402 49.5 16.8674 49.5 17V21C49.5 21.1326 49.4473 21.2598 49.3536 21.3536C49.2598 21.4473 49.1326 21.5 49 21.5ZM47 23.5H3C2.86739 23.5 2.74021 23.4473 2.64645 23.3536C2.55268 23.2598 2.5 23.1326 2.5 23C2.5 22.8674 2.55268 22.7402 2.64645 22.6464C2.74021 22.5527 2.86739 22.5 3 22.5H47C47.1326 22.5 47.2598 22.5527 47.3536 22.6464C47.4473 22.7402 47.5 22.8674 47.5 23C47.5 23.1326 47.4473 23.2598 47.3536 23.3536C47.2598 23.4473 47.1326 23.5 47 23.5Z" fill="black"/>
<path d="M49 17.5C48.8674 17.5 48.7402 17.4473 48.6464 17.3536C48.5527 17.2598 48.5 17.1326 48.5 17C48.5 16.173 47.827 15.5 47 15.5C46.8674 15.5 46.7402 15.4473 46.6464 15.3536C46.5527 15.2598 46.5 15.1326 46.5 15C46.5 14.8674 46.5527 14.7402 46.6464 14.6464C46.7402 14.5527 46.8674 14.5 47 14.5C48.379 14.5 49.5 15.621 49.5 17C49.5 17.1326 49.4473 17.2598 49.3536 17.3536C49.2598 17.4473 49.1326 17.5 49 17.5Z" fill="black"/>
<path d="M47 15.5H3C2.86739 15.5 2.74021 15.4473 2.64645 15.3536C2.55268 15.2598 2.5 15.1326 2.5 15C2.5 14.8674 2.55268 14.7402 2.64645 14.6464C2.74021 14.5527 2.86739 14.5 3 14.5H47C47.1326 14.5 47.2598 14.5527 47.3536 14.6464C47.4473 14.7402 47.5 14.8674 47.5 15C47.5 15.1326 47.4473 15.2598 47.3536 15.3536C47.2598 15.4473 47.1326 15.5 47 15.5Z" fill="black"/>
<path d="M1 17.5C0.867392 17.5 0.740215 17.4473 0.646447 17.3536C0.552679 17.2598 0.5 17.1326 0.5 17C0.5 15.621 1.622 14.5 3 14.5C3.13261 14.5 3.25979 14.5527 3.35355 14.6464C3.44732 14.7402 3.5 14.8674 3.5 15C3.5 15.1326 3.44732 15.2598 3.35355 15.3536C3.25979 15.4473 3.13261 15.5 3 15.5C2.173 15.5 1.5 16.173 1.5 17C1.5 17.1326 1.44732 17.2598 1.35355 17.3536C1.25979 17.4473 1.13261 17.5 1 17.5Z" fill="black"/>
<path d="M1 21.5C0.867392 21.5 0.740215 21.4473 0.646447 21.3536C0.552679 21.2598 0.5 21.1326 0.5 21V17C0.5 16.8674 0.552679 16.7402 0.646447 16.6464C0.740215 16.5527 0.867392 16.5 1 16.5C1.13261 16.5 1.25979 16.5527 1.35355 16.6464C1.44732 16.7402 1.5 16.8674 1.5 17V21C1.5 21.1326 1.44732 21.2598 1.35355 21.3536C1.25979 21.4473 1.13261 21.5 1 21.5Z" fill="black"/>
<path d="M3 23.5C2.3372 23.4992 1.70178 23.2356 1.23311 22.7669C0.764441 22.2982 0.500794 21.6628 0.5 21C0.5 20.8674 0.552679 20.7402 0.646447 20.6464C0.740215 20.5527 0.867392 20.5 1 20.5C1.13261 20.5 1.25979 20.5527 1.35355 20.6464C1.44732 20.7402 1.5 20.8674 1.5 21C1.5 21.827 2.173 22.5 3 22.5C3.13261 22.5 3.25979 22.5527 3.35355 22.6464C3.44732 22.7402 3.5 22.8674 3.5 23C3.5 23.1326 3.44732 23.2598 3.35355 23.3536C3.25979 23.4473 3.13261 23.5 3 23.5ZM42 53.5H8C7.86739 53.5 7.74021 53.4473 7.64645 53.3536C7.55268 53.2598 7.5 53.1326 7.5 53C7.5 52.8674 7.55268 52.7402 7.64645 52.6464C7.74021 52.5527 7.86739 52.5 8 52.5H42C42.1326 52.5 42.2598 52.5527 42.3536 52.6464C42.4473 52.7402 42.5 52.8674 42.5 53C42.5 53.1326 42.4473 53.2598 42.3536 53.3536C42.2598 53.4473 42.1326 53.5 42 53.5Z" fill="black"/>
<path d="M42 53.5C41.8674 53.5 41.7402 53.4473 41.6464 53.3536C41.5527 53.2598 41.5 53.1326 41.5 53C41.5 52.8674 41.5527 52.7402 41.6464 52.6464C41.7402 52.5527 41.8674 52.5 42 52.5C43.93 52.5 45.5 50.93 45.5 49C45.5 48.8674 45.5527 48.7402 45.6464 48.6464C45.7402 48.5527 45.8674 48.5 46 48.5C46.1326 48.5 46.2598 48.5527 46.3536 48.6464C46.4473 48.7402 46.5 48.8674 46.5 49C46.5 51.481 44.481 53.5 42 53.5Z" fill="black"/>
<path d="M46 49.5C45.8674 49.5 45.7402 49.4473 45.6464 49.3536C45.5527 49.2598 45.5 49.1326 45.5 49V23C45.5 22.8674 45.5527 22.7402 45.6464 22.6464C45.7402 22.5527 45.8674 22.5 46 22.5C46.1326 22.5 46.2598 22.5527 46.3536 22.6464C46.4473 22.7402 46.5 22.8674 46.5 23V49C46.5 49.1326 46.4473 49.2598 46.3536 49.3536C46.2598 49.4473 46.1326 49.5 46 49.5ZM8 53.5C6.80693 53.4987 5.66311 53.0241 4.81948 52.1805C3.97585 51.3369 3.50132 50.1931 3.5 49C3.5 48.8674 3.55268 48.7402 3.64645 48.6464C3.74021 48.5527 3.86739 48.5 4 48.5C4.13261 48.5 4.25979 48.5527 4.35355 48.6464C4.44732 48.7402 4.5 48.8674 4.5 49C4.5 50.93 6.07 52.5 8 52.5C8.13261 52.5 8.25979 52.5527 8.35355 52.6464C8.44732 52.7402 8.5 52.8674 8.5 53C8.5 53.1326 8.44732 53.2598 8.35355 53.3536C8.25979 53.4473 8.13261 53.5 8 53.5Z" fill="black"/>
<path d="M4 49.5C3.86739 49.5 3.74021 49.4473 3.64645 49.3536C3.55268 49.2598 3.5 49.1326 3.5 49V23C3.5 22.8674 3.55268 22.7402 3.64645 22.6464C3.74021 22.5527 3.86739 22.5 4 22.5C4.13261 22.5 4.25979 22.5527 4.35355 22.6464C4.44732 22.7402 4.5 22.8674 4.5 23V49C4.5 49.1326 4.44732 49.2598 4.35355 49.3536C4.25979 49.4473 4.13261 49.5 4 49.5Z" fill="black"/>
</svg>
