<svg width="39" height="40" viewBox="0 0 39 40" fill="none" xmlns="http://www.w3.org/2000/svg">
<circle cx="21.5383" cy="23.0769" r="16.9231" fill="#FFD500" fill-opacity="0.3"/>
<g clip-path="url(#clip0_399_6028)">
<path d="M31.8857 15.2759C32.5536 15.2894 33.5317 15.3932 33.5633 14.4297V11.9353C33.56 9.72796 32.6815 7.61202 31.1205 6.05143C29.5595 4.49083 27.4433 3.61294 25.236 3.61025H8.60966C6.40215 3.61264 4.28568 4.4904 2.72442 6.05103C1.16315 7.61166 0.284535 9.72777 0.28125 11.9353V14.4297C0.327506 15.3921 1.2594 15.2883 1.95889 15.2759C4.13068 15.3165 4.11489 18.533 1.95889 18.5703H1.1274C0.90299 18.5703 0.687767 18.6594 0.529083 18.8181C0.370398 18.9768 0.28125 19.192 0.28125 19.4164V21.9109C0.284535 24.1184 1.16315 26.2345 2.72442 27.7951C4.28568 29.3557 6.40215 30.2335 8.60966 30.2359H25.236C27.4439 30.2332 29.5606 29.3548 31.1217 27.7935C32.6828 26.2322 33.5609 24.1154 33.5633 21.9075V19.4164C33.5193 18.4574 32.5851 18.5556 31.8857 18.5703C29.7127 18.5308 29.7274 15.312 31.8857 15.2759ZM31.871 20.2626V21.9109C31.8683 23.6695 31.1683 25.3554 29.9245 26.5987C28.6808 27.8421 26.9947 28.5415 25.236 28.5436H8.60966C6.85079 28.5418 5.16442 27.8425 3.9204 26.5991C2.67637 25.3557 1.97624 23.6697 1.97356 21.9109V20.2626C6.37807 20.1497 6.37468 13.6953 1.97356 13.5836V11.9353C1.97624 10.1764 2.67637 8.4904 3.9204 7.24701C5.16442 6.00362 6.85079 5.30435 8.60966 5.30256H25.236C26.9953 5.30465 28.6819 6.00452 29.9257 7.24861C31.1696 8.4927 31.8692 10.1794 31.871 11.9387V13.5836C27.4676 13.6975 27.471 20.1497 31.871 20.2626Z" fill="black"/>
<path d="M12.7184 16.0871C17.1613 15.9743 17.1602 9.46113 12.7184 9.34943C8.27445 9.46338 8.27783 15.972 12.7184 16.0871ZM14.395 12.7194C14.3577 14.9239 11.078 14.9228 11.0419 12.7183C11.0814 10.516 14.3577 10.5171 14.395 12.7194ZM21.127 17.7591C16.6841 17.8696 16.6818 24.3828 21.1247 24.4967C25.5687 24.385 25.5676 17.8764 21.127 17.7591ZM19.4493 21.1279C19.4854 18.9223 22.7662 18.9234 22.8023 21.1279C22.7629 23.329 19.4877 23.3301 19.4493 21.1279ZM23.7545 10.0907C23.6761 10.0121 23.5829 9.94972 23.4803 9.90718C23.3777 9.86463 23.2677 9.84274 23.1566 9.84274C23.0455 9.84274 22.9355 9.86463 22.8329 9.90718C22.7303 9.94972 22.6371 10.0121 22.5587 10.0907L10.0897 22.5641C10.0111 22.6427 9.94879 22.736 9.90625 22.8387C9.86371 22.9414 9.84182 23.0515 9.84182 23.1626C9.84182 23.2738 9.86371 23.3838 9.90625 23.4865C9.94879 23.5892 10.0111 23.6825 10.0897 23.7611C10.1683 23.8397 10.2616 23.9021 10.3643 23.9446C10.467 23.9871 10.5771 24.009 10.6882 24.009C10.7994 24.009 10.9095 23.9871 11.0122 23.9446C11.1148 23.9021 11.2082 23.8397 11.2868 23.7611L23.7545 11.2877C23.8332 11.2091 23.8956 11.1158 23.9381 11.0131C23.9807 10.9104 24.0026 10.8003 24.0026 10.6892C24.0026 10.578 23.9807 10.4679 23.9381 10.3652C23.8956 10.2625 23.8332 10.1692 23.7545 10.0907Z" fill="black"/>
</g>
<defs>
<clipPath id="clip0_399_6028">
<rect width="33.8461" height="33.8461" fill="white"/>
</clipPath>
</defs>
</svg>
