<svg width="12" height="16" viewBox="0 0 12 16" fill="none" xmlns="http://www.w3.org/2000/svg">
<path d="M7.375 9.04822C7.28383 9.04822 7.1964 9.012 7.13193 8.94754C7.06747 8.88307 7.03125 8.79564 7.03125 8.70447V6.41406C7.03125 6.32289 7.06747 6.23546 7.13193 6.17099C7.1964 6.10653 7.28383 6.07031 7.375 6.07031C7.46617 6.07031 7.5536 6.10653 7.61807 6.17099C7.68253 6.23546 7.71875 6.32289 7.71875 6.41406V8.70447C7.71875 8.79564 7.68253 8.88307 7.61807 8.94754C7.5536 9.012 7.46617 9.04822 7.375 9.04822ZM4.625 9.04822C4.53383 9.04822 4.4464 9.012 4.38193 8.94754C4.31747 8.88307 4.28125 8.79564 4.28125 8.70447V6.41406C4.28125 6.32289 4.31747 6.23546 4.38193 6.17099C4.4464 6.10653 4.53383 6.07031 4.625 6.07031C4.71617 6.07031 4.8036 6.10653 4.86807 6.17099C4.93253 6.23546 4.96875 6.32289 4.96875 6.41406V8.70447C4.96875 8.79564 4.93253 8.88307 4.86807 8.94754C4.8036 9.012 4.71617 9.04822 4.625 9.04822Z" fill="black"/>
<path d="M7.37505 6.75652C7.32484 6.75662 7.27523 6.74568 7.22973 6.72447C7.18423 6.70326 7.14394 6.67231 7.11173 6.6338L5.73673 4.99617C5.70773 4.9616 5.68582 4.92164 5.67226 4.8786C5.6587 4.83555 5.65374 4.79026 5.65769 4.7453C5.66163 4.70034 5.67439 4.65659 5.69523 4.61657C5.71608 4.57654 5.74461 4.54101 5.77919 4.512C5.81377 4.483 5.85372 4.46109 5.89676 4.44753C5.93981 4.43396 5.98511 4.42901 6.03007 4.43295C6.07502 4.4369 6.11877 4.44966 6.1588 4.4705C6.19883 4.49135 6.23436 4.51988 6.26336 4.55446L7.63836 6.19208C7.68048 6.24217 7.70742 6.30325 7.71599 6.36813C7.72456 6.43301 7.71442 6.49899 7.68675 6.55829C7.65908 6.6176 7.61505 6.66777 7.55982 6.70289C7.5046 6.73801 7.44049 6.75661 7.37505 6.75652Z" fill="black"/>
<path d="M4.625 6.75652C4.55962 6.75647 4.4956 6.73778 4.44047 6.70263C4.38533 6.66749 4.34137 6.61735 4.31372 6.55809C4.28608 6.49884 4.27591 6.43293 4.28441 6.3681C4.2929 6.30327 4.31971 6.24221 4.36169 6.19208L5.73669 4.55446C5.79526 4.48462 5.87918 4.44092 5.96998 4.43295C6.01494 4.42901 6.06024 4.43396 6.10328 4.44753C6.14633 4.46109 6.18628 4.483 6.22086 4.512C6.25544 4.54101 6.28397 4.57654 6.30481 4.61657C6.32566 4.65659 6.33842 4.70034 6.34236 4.7453C6.34631 4.79026 6.34135 4.83555 6.32779 4.8786C6.31423 4.92164 6.29232 4.9616 6.26331 4.99617L4.88831 6.6338C4.85611 6.67231 4.81582 6.70326 4.77032 6.72447C4.72482 6.74568 4.67521 6.75662 4.625 6.75652Z" fill="black"/>
<path d="M6.00005 11.7803C5.90888 11.7803 5.82145 11.7441 5.75698 11.6796C5.69251 11.6152 5.6563 11.5277 5.6563 11.4366V4.77539C5.6563 4.68422 5.69251 4.59679 5.75698 4.53232C5.82145 4.46786 5.90888 4.43164 6.00005 4.43164C6.09122 4.43164 6.17865 4.46786 6.24312 4.53232C6.30758 4.59679 6.3438 4.68422 6.3438 4.77539V11.4366C6.3438 11.5277 6.30758 11.6152 6.24312 11.6796C6.17865 11.7441 6.09122 11.7803 6.00005 11.7803ZM7.37539 11.7803C7.32515 11.7804 7.2755 11.7694 7.22995 11.7482C7.1844 11.7271 7.14404 11.6961 7.11173 11.6577C7.07942 11.6192 7.05593 11.5741 7.04293 11.5256C7.02992 11.477 7.02771 11.4262 7.03645 11.3768C7.23583 10.2513 8.00136 9.48683 8.7418 8.74777C9.29386 8.19639 9.81533 7.6763 10.1 7.02695C10.1368 6.9437 10.2051 6.87837 10.2899 6.84521C10.3747 6.81205 10.4691 6.81375 10.5527 6.84992C10.6362 6.88649 10.7017 6.95472 10.7349 7.03962C10.7681 7.12452 10.7663 7.21913 10.7297 7.30264C10.3932 8.07058 9.80055 8.66217 9.22752 9.23383C8.53211 9.92855 7.87486 10.5844 7.71364 11.496C7.69966 11.5756 7.6581 11.6477 7.59624 11.6997C7.53438 11.7517 7.45619 11.7803 7.37539 11.7803ZM4.6247 11.7803C4.54395 11.7803 4.4658 11.7518 4.40395 11.6999C4.3421 11.6479 4.3005 11.5759 4.28645 11.4964C4.12524 10.5848 3.46799 9.92855 2.77258 9.23417C2.19955 8.66252 1.60727 8.07092 1.27039 7.30298C1.25165 7.26154 1.24133 7.21678 1.24001 7.17131C1.2387 7.12584 1.24642 7.08057 1.26273 7.0381C1.27904 6.99564 1.30362 6.95684 1.33504 6.92394C1.36646 6.89105 1.40409 6.86472 1.44576 6.84648C1.48743 6.82824 1.53231 6.81845 1.57779 6.81767C1.62327 6.8169 1.66845 6.82517 1.71072 6.84199C1.75298 6.8588 1.79149 6.88384 1.824 6.91565C1.85652 6.94746 1.8824 6.98541 1.90014 7.0273C2.18477 7.67664 2.70624 8.19673 3.2583 8.74811C3.99874 9.48717 4.76427 10.2517 4.96364 11.3771C4.97233 11.4266 4.97008 11.4773 4.95704 11.5258C4.94401 11.5743 4.92052 11.6193 4.88821 11.6578C4.8559 11.6962 4.81557 11.7271 4.77005 11.7483C4.72452 11.7694 4.67491 11.7804 4.6247 11.7803Z" fill="black"/>
<path d="M7.37499 13.1562C7.28383 13.1562 7.19639 13.12 7.13193 13.0556C7.06746 12.9911 7.03124 12.9037 7.03124 12.8125C7.03124 12.7213 7.06746 12.6339 7.13193 12.5694C7.19639 12.505 7.28383 12.4688 7.37499 12.4688C7.48018 12.4688 7.55821 12.4375 7.61321 12.3735C7.66615 12.312 7.6964 12.2216 7.6964 12.125C7.6964 12.0676 7.68093 11.7812 7.37499 11.7812C7.28383 11.7812 7.19639 11.745 7.13193 11.6806C7.06746 11.6161 7.03124 11.5287 7.03124 11.4375C7.03124 11.3463 7.06746 11.2589 7.13193 11.1944C7.19639 11.13 7.28383 11.0938 7.37499 11.0938C8.0374 11.0938 8.3839 11.6125 8.3839 12.125C8.3839 12.3873 8.29556 12.6348 8.13468 12.8218C7.94906 13.0373 7.67921 13.1562 7.37499 13.1562ZM4.62499 13.1562C3.96259 13.1562 3.61609 12.6375 3.61609 12.125C3.61609 11.8627 3.70443 11.6152 3.86531 11.4282C4.05093 11.2127 4.32078 11.0938 4.62499 11.0938C4.71616 11.0938 4.8036 11.13 4.86806 11.1944C4.93253 11.2589 4.96874 11.3463 4.96874 11.4375C4.96874 11.5287 4.93253 11.6161 4.86806 11.6806C4.8036 11.745 4.71616 11.7812 4.62499 11.7812C4.51981 11.7812 4.44178 11.8125 4.38678 11.8765C4.33076 11.947 4.30131 12.035 4.30359 12.125C4.30359 12.1824 4.31906 12.4688 4.62499 12.4688C4.71616 12.4688 4.8036 12.505 4.86806 12.5694C4.93253 12.6339 4.96874 12.7213 4.96874 12.8125C4.96874 12.9037 4.93253 12.9911 4.86806 13.0556C4.8036 13.12 4.71616 13.1562 4.62499 13.1562Z" fill="black"/>
<path d="M4.62499 14.5312C3.96259 14.5312 3.61609 14.0125 3.61609 13.5C3.61609 13.2377 3.70443 12.9902 3.86531 12.8032C4.05093 12.5877 4.32078 12.4688 4.62499 12.4688C4.71616 12.4688 4.8036 12.505 4.86806 12.5694C4.93253 12.6339 4.96874 12.7213 4.96874 12.8125C4.96874 12.9037 4.93253 12.9911 4.86806 13.0556C4.8036 13.12 4.71616 13.1562 4.62499 13.1562C4.51981 13.1562 4.44178 13.1875 4.38678 13.2515C4.33076 13.322 4.30131 13.41 4.30359 13.5C4.30359 13.5574 4.31906 13.8438 4.62499 13.8438C4.71616 13.8438 4.8036 13.88 4.86806 13.9444C4.93253 14.0089 4.96874 14.0963 4.96874 14.1875C4.96874 14.2787 4.93253 14.3661 4.86806 14.4306C4.8036 14.495 4.71616 14.5312 4.62499 14.5312ZM7.37499 14.5312C7.28383 14.5312 7.19639 14.495 7.13193 14.4306C7.06746 14.3661 7.03124 14.2787 7.03124 14.1875C7.03124 14.0963 7.06746 14.0089 7.13193 13.9444C7.19639 13.88 7.28383 13.8438 7.37499 13.8438C7.48018 13.8438 7.55821 13.8125 7.61321 13.7485C7.66615 13.687 7.6964 13.5966 7.6964 13.5C7.6964 13.4426 7.68093 13.1562 7.37499 13.1562C7.28383 13.1562 7.19639 13.12 7.13193 13.0556C7.06746 12.9911 7.03124 12.9037 7.03124 12.8125C7.03124 12.7213 7.06746 12.6339 7.13193 12.5694C7.19639 12.505 7.28383 12.4688 7.37499 12.4688C8.0374 12.4688 8.3839 12.9875 8.3839 13.5C8.3839 13.7623 8.29556 14.0098 8.13468 14.1968C7.94906 14.4123 7.67921 14.5312 7.37499 14.5312ZM7.37499 11.7812H4.62499C4.53383 11.7812 4.44639 11.745 4.38193 11.6806C4.31746 11.6161 4.28124 11.5287 4.28124 11.4375C4.28124 11.3463 4.31746 11.2589 4.38193 11.1944C4.44639 11.13 4.53383 11.0938 4.62499 11.0938H7.37499C7.46616 11.0938 7.5536 11.13 7.61806 11.1944C7.68253 11.2589 7.71874 11.3463 7.71874 11.4375C7.71874 11.5287 7.68253 11.6161 7.61806 11.6806C7.5536 11.745 7.46616 11.7812 7.37499 11.7812Z" fill="black"/>
<path d="M7.375 14.5312H4.625C4.53383 14.5312 4.4464 14.495 4.38193 14.4306C4.31747 14.3661 4.28125 14.2787 4.28125 14.1875C4.28125 14.0963 4.31747 14.0089 4.38193 13.9444C4.4464 13.88 4.53383 13.8438 4.625 13.8438H7.375C7.46617 13.8438 7.5536 13.88 7.61807 13.9444C7.68253 14.0089 7.71875 14.0963 7.71875 14.1875C7.71875 14.2787 7.68253 14.3661 7.61807 14.4306C7.5536 14.495 7.46617 14.5312 7.375 14.5312ZM7.375 13.1562H4.625C4.53383 13.1562 4.4464 13.12 4.38193 13.0556C4.31747 12.9911 4.28125 12.9037 4.28125 12.8125C4.28125 12.7213 4.31747 12.6339 4.38193 12.5694C4.4464 12.505 4.53383 12.4688 4.625 12.4688H7.375C7.46617 12.4688 7.5536 12.505 7.61807 12.5694C7.68253 12.6339 7.71875 12.7213 7.71875 12.8125C7.71875 12.9037 7.68253 12.9911 7.61807 13.0556C7.5536 13.12 7.46617 13.1562 7.375 13.1562Z" fill="black"/>
<path d="M4.62503 15.2181C4.53386 15.2181 4.44643 15.1819 4.38196 15.1174C4.3175 15.053 4.28128 14.9655 4.28128 14.8744V14.1869C4.28128 14.0957 4.3175 14.0083 4.38196 13.9438C4.44643 13.8793 4.53386 13.8431 4.62503 13.8431C4.7162 13.8431 4.80363 13.8793 4.8681 13.9438C4.93256 14.0083 4.96878 14.0957 4.96878 14.1869V14.8744C4.96878 14.9655 4.93256 15.053 4.8681 15.1174C4.80363 15.1819 4.7162 15.2181 4.62503 15.2181ZM7.37503 15.2181C7.28386 15.2181 7.19643 15.1819 7.13196 15.1174C7.06749 15.053 7.03128 14.9655 7.03128 14.8744V14.1869C7.03128 14.0957 7.06749 14.0083 7.13196 13.9438C7.19643 13.8793 7.28386 13.8431 7.37503 13.8431C7.4662 13.8431 7.55363 13.8793 7.6181 13.9438C7.68256 14.0083 7.71878 14.0957 7.71878 14.1869V14.8744C7.71878 14.9655 7.68256 15.053 7.6181 15.1174C7.55363 15.1819 7.4662 15.2181 7.37503 15.2181ZM1.58559 7.50882C1.4529 7.50882 1.3264 7.43148 1.27003 7.30189C0.472529 5.46386 0.846185 3.23808 2.19987 1.76236C3.2875 0.577106 4.89281 -0.039925 6.49262 0.11545C8.12956 0.272544 9.55887 1.19483 10.4145 2.64511C11.2701 4.09608 11.3852 5.79317 10.7304 7.30189C10.6941 7.38553 10.6261 7.45134 10.5413 7.48483C10.4565 7.51832 10.3618 7.51675 10.2782 7.48047C10.1945 7.44418 10.1287 7.37615 10.0952 7.29135C10.0617 7.20654 10.0633 7.11191 10.0996 7.02826C10.6657 5.72407 10.5647 4.2542 9.82218 2.99504C9.07968 1.73623 7.84219 0.936325 6.42697 0.799856C5.73885 0.73576 5.04522 0.831186 4.39998 1.07872C3.75473 1.32625 3.17525 1.71923 2.70656 2.22711C1.53369 3.5062 1.20987 5.43532 1.90115 7.02826C1.92395 7.08058 1.93334 7.13775 1.92849 7.1946C1.92364 7.25146 1.9047 7.30621 1.87338 7.35391C1.84206 7.40161 1.79934 7.44075 1.7491 7.4678C1.69885 7.49485 1.64266 7.50895 1.58559 7.50882Z" fill="black"/>
<path d="M5.3125 15.9062C4.74394 15.9062 4.28125 15.4436 4.28125 14.875C4.28125 14.7838 4.31747 14.6964 4.38193 14.6319C4.4464 14.5675 4.53383 14.5312 4.625 14.5312C4.71617 14.5312 4.8036 14.5675 4.86807 14.6319C4.93253 14.6964 4.96875 14.7838 4.96875 14.875C4.96875 15.0648 5.12309 15.2188 5.3125 15.2188C5.40367 15.2188 5.4911 15.255 5.55557 15.3194C5.62003 15.3839 5.65625 15.4713 5.65625 15.5625C5.65625 15.6537 5.62003 15.7411 5.55557 15.8056C5.4911 15.87 5.40367 15.9062 5.3125 15.9062Z" fill="black"/>
<path d="M6.6875 15.9062H5.3125C5.22133 15.9062 5.1339 15.87 5.06943 15.8056C5.00497 15.7411 4.96875 15.6537 4.96875 15.5625C4.96875 15.4713 5.00497 15.3839 5.06943 15.3194C5.1339 15.255 5.22133 15.2188 5.3125 15.2188H6.6875C6.77867 15.2188 6.8661 15.255 6.93057 15.3194C6.99503 15.3839 7.03125 15.4713 7.03125 15.5625C7.03125 15.6537 6.99503 15.7411 6.93057 15.8056C6.8661 15.87 6.77867 15.9062 6.6875 15.9062Z" fill="black"/>
<path d="M6.6875 15.9062C6.59633 15.9062 6.5089 15.87 6.44443 15.8056C6.37997 15.7411 6.34375 15.6537 6.34375 15.5625C6.34375 15.4713 6.37997 15.3839 6.44443 15.3194C6.5089 15.255 6.59633 15.2188 6.6875 15.2188C6.87691 15.2188 7.03125 15.0648 7.03125 14.875C7.03125 14.7838 7.06747 14.6964 7.13193 14.6319C7.1964 14.5675 7.28383 14.5312 7.375 14.5312C7.46617 14.5312 7.5536 14.5675 7.61807 14.6319C7.68253 14.6964 7.71875 14.7838 7.71875 14.875C7.71875 15.4436 7.25606 15.9062 6.6875 15.9062Z" fill="black"/>
</svg>
