<svg width="16" height="18" viewBox="0 0 16 18" fill="none" xmlns="http://www.w3.org/2000/svg">
<path d="M1.125 16.1622C1.03383 16.1622 0.946398 16.126 0.881932 16.0615C0.817466 15.997 0.78125 15.9096 0.78125 15.8184V13.427C0.78125 13.3358 0.817466 13.2484 0.881932 13.1839C0.946398 13.1194 1.03383 13.0832 1.125 13.0832C1.21617 13.0832 1.3036 13.1194 1.36807 13.1839C1.43253 13.2484 1.46875 13.3358 1.46875 13.427V15.8184C1.46875 15.9096 1.43253 15.997 1.36807 16.0615C1.3036 16.126 1.21617 16.1622 1.125 16.1622ZM1.125 11.0207C1.03383 11.0207 0.946398 10.9845 0.881932 10.92C0.817466 10.8556 0.78125 10.7681 0.78125 10.677V8.28516C0.78125 8.19399 0.817466 8.10655 0.881932 8.04209C0.946398 7.97762 1.03383 7.94141 1.125 7.94141C1.21617 7.94141 1.3036 7.97762 1.36807 8.04209C1.43253 8.10655 1.46875 8.19399 1.46875 8.28516V10.677C1.46875 10.7681 1.43253 10.8556 1.36807 10.92C1.3036 10.9845 1.21617 11.0207 1.125 11.0207ZM1.125 12.3971C1.03411 12.3962 0.947195 12.3597 0.882922 12.2954C0.81865 12.2312 0.782146 12.1442 0.78125 12.0533C0.78125 11.9602 0.819062 11.8712 0.880937 11.8093C1.01156 11.6821 1.23844 11.6821 1.36906 11.8093C1.43094 11.8712 1.46875 11.9602 1.46875 12.0533C1.46794 12.1443 1.43147 12.2312 1.36718 12.2955C1.30288 12.3598 1.21592 12.3963 1.125 12.3971Z" fill="black"/>
<path d="M2.55741 17.5945C2.08651 17.594 1.63505 17.4067 1.30208 17.0737C0.969101 16.7407 0.781796 16.2893 0.78125 15.8184C0.78125 15.7272 0.817466 15.6398 0.881932 15.5753C0.946398 15.5108 1.03383 15.4746 1.125 15.4746C1.21617 15.4746 1.3036 15.5108 1.36807 15.5753C1.43253 15.6398 1.46875 15.7272 1.46875 15.8184C1.46911 16.107 1.58393 16.3837 1.78801 16.5878C1.9921 16.7918 2.26879 16.9067 2.55741 16.907C2.64857 16.907 2.73601 16.9432 2.80047 17.0077C2.86494 17.0722 2.90116 17.1596 2.90116 17.2508C2.90116 17.3419 2.86494 17.4294 2.80047 17.4938C2.73601 17.5583 2.64857 17.5945 2.55741 17.5945Z" fill="black"/>
<path d="M13.4429 17.5938H2.55737C2.4662 17.5938 2.37877 17.5575 2.31431 17.4931C2.24984 17.4286 2.21362 17.3412 2.21362 17.25C2.21362 17.1588 2.24984 17.0714 2.31431 17.0069C2.37877 16.9425 2.4662 16.9062 2.55737 16.9062H13.4429C13.5341 16.9062 13.6215 16.9425 13.686 17.0069C13.7504 17.0714 13.7867 17.1588 13.7867 17.25C13.7867 17.3412 13.7504 17.4286 13.686 17.4931C13.6215 17.5575 13.5341 17.5938 13.4429 17.5938Z" fill="black"/>
<path d="M13.443 17.5945C13.3518 17.5945 13.2644 17.5583 13.1999 17.4938C13.1355 17.4294 13.0992 17.3419 13.0992 17.2508C13.0992 17.1596 13.1355 17.0722 13.1999 17.0077C13.2644 16.9432 13.3518 16.907 13.443 16.907C13.7316 16.9067 14.0082 16.7918 14.2123 16.5877C14.4163 16.3836 14.531 16.1069 14.5313 15.8184C14.5313 15.7272 14.5675 15.6398 14.632 15.5753C14.6965 15.5108 14.7839 15.4746 14.8751 15.4746C14.9662 15.4746 15.0537 15.5108 15.1181 15.5753C15.1826 15.6398 15.2188 15.7272 15.2188 15.8184C15.2184 16.2892 15.0311 16.7407 14.6982 17.0737C14.3653 17.4067 13.9139 17.594 13.443 17.5945Z" fill="black"/>
<path d="M14.875 16.1622C14.7838 16.1622 14.6964 16.126 14.6319 16.0615C14.5675 15.997 14.5312 15.9096 14.5312 15.8184V8.28516C14.5312 8.19399 14.5675 8.10655 14.6319 8.04209C14.6964 7.97762 14.7838 7.94141 14.875 7.94141C14.9662 7.94141 15.0536 7.97762 15.1181 8.04209C15.1825 8.10655 15.2188 8.19399 15.2188 8.28516V15.8184C15.2188 15.9096 15.1825 15.997 15.1181 16.0615C15.0536 16.126 14.9662 16.1622 14.875 16.1622Z" fill="black"/>
<path d="M14.8751 8.62772C14.7839 8.62772 14.6965 8.5915 14.632 8.52704C14.5675 8.46257 14.5313 8.37514 14.5313 8.28397C14.531 7.99538 14.4163 7.71869 14.2123 7.5146C14.0082 7.3105 13.7316 7.19568 13.443 7.19531C13.3518 7.19531 13.2644 7.1591 13.1999 7.09463C13.1355 7.03017 13.0992 6.94273 13.0992 6.85156C13.0992 6.76039 13.1355 6.67296 13.1999 6.60849C13.2644 6.54403 13.3518 6.50781 13.443 6.50781C13.9139 6.50836 14.3653 6.69567 14.6982 7.02866C15.0311 7.36165 15.2184 7.8131 15.2188 8.28397C15.2188 8.37514 15.1826 8.46257 15.1181 8.52704C15.0537 8.5915 14.9662 8.62772 14.8751 8.62772Z" fill="black"/>
<path d="M13.4429 7.19531H2.55737C2.4662 7.19531 2.37877 7.1591 2.31431 7.09463C2.24984 7.03017 2.21362 6.94273 2.21362 6.85156C2.21362 6.76039 2.24984 6.67296 2.31431 6.60849C2.37877 6.54403 2.4662 6.50781 2.55737 6.50781H13.4429C13.5341 6.50781 13.6215 6.54403 13.686 6.60849C13.7504 6.67296 13.7867 6.76039 13.7867 6.85156C13.7867 6.94273 13.7504 7.03017 13.686 7.09463C13.6215 7.1591 13.5341 7.19531 13.4429 7.19531Z" fill="black"/>
<path d="M1.125 8.62772C1.03383 8.62772 0.946398 8.5915 0.881932 8.52704C0.817466 8.46257 0.78125 8.37514 0.78125 8.28397C0.781796 7.81307 0.969101 7.36162 1.30208 7.02864C1.63505 6.69566 2.08651 6.50836 2.55741 6.50781C2.64857 6.50781 2.73601 6.54403 2.80047 6.60849C2.86494 6.67296 2.90116 6.76039 2.90116 6.85156C2.90116 6.94273 2.86494 7.03017 2.80047 7.09463C2.73601 7.1591 2.64857 7.19531 2.55741 7.19531C2.26879 7.19568 1.9921 7.31049 1.78801 7.51457C1.58393 7.71866 1.46911 7.99535 1.46875 8.28397C1.46875 8.37514 1.43253 8.46257 1.36807 8.52704C1.3036 8.5915 1.21617 8.62772 1.125 8.62772ZM8 14.7289C7.90883 14.7289 7.8214 14.6927 7.75693 14.6283C7.69247 14.5638 7.65625 14.4764 7.65625 14.3852V11.8648C7.65625 11.7736 7.69247 11.6862 7.75693 11.6217C7.8214 11.5573 7.90883 11.5211 8 11.5211C8.09117 11.5211 8.1786 11.5573 8.24307 11.6217C8.30753 11.6862 8.34375 11.7736 8.34375 11.8648V14.3852C8.34375 14.4764 8.30753 14.5638 8.24307 14.6283C8.1786 14.6927 8.09117 14.7289 8 14.7289Z" fill="black"/>
<path d="M8.00006 12.2081C7.03756 12.2081 6.22424 11.3948 6.22424 10.432C6.22424 9.46914 7.03756 8.65583 8.00006 8.65583C8.9629 8.65583 9.77621 9.46914 9.77621 10.432C9.77621 11.3948 8.9629 12.2081 8.00006 12.2081ZM8.00006 9.34333C7.41018 9.34333 6.91174 9.84177 6.91174 10.432C6.91174 11.0222 7.41018 11.5206 8.00006 11.5206C8.59027 11.5206 9.08871 11.0222 9.08871 10.432C9.08871 9.84177 8.59027 9.34333 8.00006 9.34333ZM3.98987 7.19489C3.8987 7.19489 3.81127 7.15867 3.7468 7.09421C3.68233 7.02974 3.64612 6.94231 3.64612 6.85114V4.75977C3.64612 4.6686 3.68233 4.58116 3.7468 4.5167C3.81127 4.45223 3.8987 4.41602 3.98987 4.41602C4.08104 4.41602 4.16847 4.45223 4.23294 4.5167C4.2974 4.58116 4.33362 4.6686 4.33362 4.75977V6.85114C4.33362 6.94231 4.2974 7.02974 4.23294 7.09421C4.16847 7.15867 4.08104 7.19489 3.98987 7.19489ZM12.0106 7.19489C11.9194 7.19489 11.832 7.15867 11.7675 7.09421C11.7031 7.02974 11.6668 6.94231 11.6668 6.85114V4.75977C11.6668 4.6686 11.7031 4.58116 11.7675 4.5167C11.832 4.45223 11.9194 4.41602 12.0106 4.41602C12.1018 4.41602 12.1892 4.45223 12.2537 4.5167C12.3181 4.58116 12.3543 4.6686 12.3543 4.75977V6.85114C12.3543 6.94231 12.3181 7.02974 12.2537 7.09421C12.1892 7.15867 12.1018 7.19489 12.0106 7.19489Z" fill="black"/>
<path d="M12.0106 5.10428C11.9194 5.10428 11.832 5.06807 11.7675 5.0036C11.7031 4.93913 11.6668 4.8517 11.6668 4.76053C11.6668 2.77297 9.98762 1.09375 8.00006 1.09375C6.01249 1.09375 4.33362 2.77297 4.33362 4.76053C4.33362 4.8517 4.2974 4.93913 4.23294 5.0036C4.16847 5.06807 4.08104 5.10428 3.98987 5.10428C3.8987 5.10428 3.81127 5.06807 3.7468 5.0036C3.68233 4.93913 3.64612 4.8517 3.64612 4.76053C3.64612 2.40034 5.63987 0.40625 8.00006 0.40625C10.3602 0.40625 12.3543 2.40034 12.3543 4.76053C12.3543 4.8517 12.3181 4.93913 12.2537 5.0036C12.1892 5.06807 12.1018 5.10428 12.0106 5.10428Z" fill="black"/>
</svg>
