<svg width="25" height="57" viewBox="0 0 25 57" fill="none" xmlns="http://www.w3.org/2000/svg">
<path d="M8.06777 20.3938V18.327C8.06777 13.6601 11.8509 9.87695 16.5178 9.87695C21.1846 9.87695 24.9678 13.6601 24.9678 18.327V20.3938C24.9678 21.0895 24.4038 21.6535 23.7081 21.6535H9.32745C8.63175 21.6535 8.06777 21.0895 8.06777 20.3938Z" fill="#FFD500"/>
<path d="M15.6688 0H22.9304C23.8512 0 24.5977 0.746497 24.5977 1.66728C24.5977 2.58806 23.8512 3.33456 22.9304 3.33456H19.2873V6.66112C18.7424 6.58365 18.186 6.54263 17.62 6.54263C17.054 6.54263 16.4976 6.58365 15.9527 6.66112V3.33456H15.6688C9.3806 3.33456 4.26472 8.45034 4.26472 14.7387V53.6654H15.2639C16.1847 53.6654 16.9312 54.4119 16.9312 55.3327C16.9312 56.2535 16.1847 57 15.2639 57H2.59743C1.67665 57 0.930155 56.2535 0.930155 55.3327V14.7387C0.930155 6.61166 7.54193 0 15.6688 0Z" fill="black"/>
</svg>
