<svg width="30" height="30" viewBox="0 0 30 30" fill="none" xmlns="http://www.w3.org/2000/svg">
<path fill-rule="evenodd" clip-rule="evenodd" d="M20.1321 20.6431L16.7086 22.6199L13.5303 28.1249L26.4889 20.6431H20.1321Z" fill="#007C37"/>
<path fill-rule="evenodd" clip-rule="evenodd" d="M10.3514 15L6.92879 16.9769L3.75 22.4822L16.7081 15H10.3514Z" fill="#954B97"/>
<path fill-rule="evenodd" clip-rule="evenodd" d="M20.1321 9.35742L16.7086 11.3343L13.5303 16.8392L26.4889 9.35742H20.1321Z" fill="#DA1844"/>
<path fill-rule="evenodd" clip-rule="evenodd" d="M16.7081 7.38038L13.5303 1.875V13.1617V16.8381V28.1249L16.7081 22.62V7.38038Z" fill="#FBBB21"/>
<path fill-rule="evenodd" clip-rule="evenodd" d="M13.5303 1.87549L16.7081 7.38041L20.1326 9.35726H26.4893L13.5303 1.87549Z" fill="#F07F1A"/>
<path fill-rule="evenodd" clip-rule="evenodd" d="M13.5303 13.1621V28.1252L16.7081 22.6202V18.6666L13.5303 13.1621Z" fill="#65B32E"/>
<path fill-rule="evenodd" clip-rule="evenodd" d="M3.75 7.51855V22.4816L6.92834 16.9762V13.023L3.75 7.51855Z" fill="#5C57A2"/>
<path fill-rule="evenodd" clip-rule="evenodd" d="M13.5297 13.1614L13.5329 13.1664L3.75 7.51758L6.92834 13.023L20.1321 20.6428H26.4888L13.5297 13.1614Z" fill="#0095D4"/>
</svg>
