<svg width="447" height="429" viewBox="0 0 447 429" fill="none" xmlns="http://www.w3.org/2000/svg">
<path opacity="0.4" d="M425.895 340.334V341.071C396.435 387.145 333.94 418.948 224.744 418.948C123.225 418.948 61.6382 391.458 29.229 350.565V333.396H40.9444V344.586H47.8625V357.372H61.7896V333.406H70.6267V314.49H85.9071V288.655L88.5027 286.07V314.5H93.7746V345.131H99.9252V380.288H108.065V355.251L121.195 342.122V317.166L124.851 320.812V356.312L129.224 360.695V372.814H144.625V358.978H139.071V355.251H144.635V349.919H159.209V333.184H162.946V349.919H169.369V386.145H186.75V372.834L196.85 362.735H205.02V344.061H209.767V362.704H215.604L225.774 372.885V386.145H239.156V361.644H251.478L265.617 347.505V328.013H269.606V348.828L282.362 361.583H299.622V375.995H310.075V345.657H323.335V309.591H320.871V295.644H323.335V286.07H327.244V318.519L332.849 324.114V346.727H346.433V352.585H361.582V326.761H368.5V300.502H370.793V326.761H380.326L391.557 338.122V347.788H401.071V332.346H416.503V340.334H425.895Z" fill="#FFD500"/>
<path d="M80.8476 317.742H74.5557V324.034H80.8476V317.742Z" fill="white"/>
<path d="M88.7751 317.742H82.4832V324.034H88.7751V317.742Z" fill="white"/>
<path d="M80.8476 325.781H74.5557V332.073H80.8476V325.781Z" fill="white"/>
<path d="M88.7751 325.781H82.4832V332.073H88.7751V325.781Z" fill="white"/>
<path d="M80.8476 333.812H74.5557V340.103H80.8476V333.812Z" fill="white"/>
<path d="M88.7751 333.812H82.4832V340.103H88.7751V333.812Z" fill="white"/>
<path d="M80.8476 341.848H74.5557V348.14H80.8476V341.848Z" fill="white"/>
<path d="M88.7751 341.848H82.4832V348.14H88.7751V341.848Z" fill="white"/>
<path d="M80.8476 349.887H74.5557V356.179H80.8476V349.887Z" fill="white"/>
<path d="M88.7751 349.887H82.4832V356.179H88.7751V349.887Z" fill="white"/>
<path d="M80.8476 357.928H74.5557V364.22H80.8476V357.928Z" fill="white"/>
<path d="M80.8476 365.965H74.5557V372.257H80.8476V365.965Z" fill="white"/>
<path d="M88.7751 365.965H82.4832V372.257H88.7751V365.965Z" fill="white"/>
<path d="M80.8476 374.004H74.5557V380.296H80.8476V374.004Z" fill="white"/>
<path d="M88.7751 374.004H82.4832V380.296H88.7751V374.004Z" fill="white"/>
<path d="M80.8476 382.046H74.5557V388.338H80.8476V382.046Z" fill="white"/>
<path d="M88.7751 382.046H82.4832V388.338H88.7751V382.046Z" fill="white"/>
<path d="M96.6933 349.887H90.4014V356.179H96.6933V349.887Z" fill="white"/>
<path d="M96.6933 357.928H90.4014V364.22H96.6933V357.928Z" fill="white"/>
<path d="M96.6933 365.965H90.4014V372.257H96.6933V365.965Z" fill="white"/>
<path d="M96.6933 382.046H90.4014V388.338H96.6933V382.046Z" fill="white"/>
<path d="M72.9192 341.848H66.6272V348.14H72.9192V341.848Z" fill="white"/>
<path d="M72.9192 349.887H66.6272V356.179H72.9192V349.887Z" fill="white"/>
<path d="M72.9192 357.928H66.6272V364.22H72.9192V357.928Z" fill="white"/>
<path d="M72.9192 365.965H66.6272V372.257H72.9192V365.965Z" fill="white"/>
<path d="M122.71 347.949H117.67V354.241H122.71V347.949Z" fill="white"/>
<path d="M122.71 355.896H117.67V362.188H122.71V355.896Z" fill="white"/>
<path d="M122.71 363.836H117.67V370.128H122.71V363.836Z" fill="white"/>
<path d="M122.71 371.775H117.67V378.067H122.71V371.775Z" fill="white"/>
<path d="M122.71 379.711H117.67V386.003H122.71V379.711Z" fill="white"/>
<path d="M122.71 387.652H117.67V393.944H122.71V387.652Z" fill="white"/>
<path d="M116.105 355.938H111.065V362.229H116.105V355.938Z" fill="white"/>
<path d="M116.105 363.876H111.065V370.168H116.105V363.876Z" fill="white"/>
<path d="M116.105 371.805H111.065V378.097H116.105V371.805Z" fill="white"/>
<path d="M116.105 379.742H111.065V386.034H116.105V379.742Z" fill="white"/>
<path d="M116.105 387.669H111.065V393.961H116.105V387.669Z" fill="white"/>
<path d="M116.105 395.61H111.065V401.902H116.105V395.61Z" fill="white"/>
<path d="M44.1363 348.826H39.0967V355.118H44.1363V348.826Z" fill="white"/>
<path d="M44.1363 356.867H39.0967V363.159H44.1363V356.867Z" fill="white"/>
<path d="M44.1363 364.906H39.0967V371.198H44.1363V364.906Z" fill="white"/>
<path d="M44.1363 380.973H39.0967V387.265H44.1363V380.973Z" fill="white"/>
<path d="M44.1363 389.015H39.0967V395.307H44.1363V389.015Z" fill="white"/>
<path d="M37.5311 348.826H32.4915V355.118H37.5311V348.826Z" fill="white"/>
<path d="M37.5311 356.867H32.4915V363.159H37.5311V356.867Z" fill="white"/>
<path d="M37.5311 364.906H32.4915V371.198H37.5311V364.906Z" fill="white"/>
<path d="M37.5311 372.935H32.4915V379.227H37.5311V372.935Z" fill="white"/>
<path d="M37.5311 380.973H32.4915V387.265H37.5311V380.973Z" fill="white"/>
<path d="M159.623 352.957H154.129V359.249H159.623V352.957Z" fill="white"/>
<path d="M166.541 352.957H161.047V359.249H166.541V352.957Z" fill="white"/>
<path d="M159.623 360.885H154.129V367.177H159.623V360.885Z" fill="white"/>
<path d="M166.541 360.885H161.047V367.177H166.541V360.885Z" fill="white"/>
<path d="M159.623 368.814H154.129V375.106H159.623V368.814Z" fill="white"/>
<path d="M166.541 368.814H161.047V375.106H166.541V368.814Z" fill="white"/>
<path d="M159.623 376.742H154.129V383.034H159.623V376.742Z" fill="white"/>
<path d="M166.541 376.742H161.047V383.034H166.541V376.742Z" fill="white"/>
<path d="M159.623 384.671H154.129V390.963H159.623V384.671Z" fill="white"/>
<path d="M166.541 384.671H161.047V390.963H166.541V384.671Z" fill="white"/>
<path d="M159.623 392.599H154.129V398.891H159.623V392.599Z" fill="white"/>
<path d="M166.541 392.599H161.047V398.891H166.541V392.599Z" fill="white"/>
<path d="M152.716 352.957H147.221V359.249H152.716V352.957Z" fill="white"/>
<path d="M152.716 360.885H147.221V367.177H152.716V360.885Z" fill="white"/>
<path d="M152.716 368.814H147.221V375.106H152.716V368.814Z" fill="white"/>
<path d="M152.716 376.742H147.221V383.034H152.716V376.742Z" fill="white"/>
<path d="M205.747 372.915H199.455V379.207H205.747V372.915Z" fill="white"/>
<path d="M213.675 372.915H207.383V379.207H213.675V372.915Z" fill="white"/>
<path d="M205.747 380.803H199.455V387.095H205.747V380.803Z" fill="white"/>
<path d="M213.675 380.803H207.383V387.095H213.675V380.803Z" fill="white"/>
<path d="M205.747 388.689H199.455V394.981H205.747V388.689Z" fill="white"/>
<path d="M213.675 388.689H207.383V394.981H213.675V388.689Z" fill="white"/>
<path d="M205.747 396.568H199.455V402.86H205.747V396.568Z" fill="white"/>
<path d="M213.675 396.568H207.383V402.86H213.675V396.568Z" fill="white"/>
<path d="M205.747 404.456H199.455V410.748H205.747V404.456Z" fill="white"/>
<path d="M213.675 404.456H207.383V410.748H213.675V404.456Z" fill="white"/>
<path d="M221.593 372.915H215.301V379.207H221.593V372.915Z" fill="white"/>
<path d="M221.593 380.803H215.301V387.095H221.593V380.803Z" fill="white"/>
<path d="M221.593 396.568H215.301V402.86H221.593V396.568Z" fill="white"/>
<path d="M221.593 404.456H215.301V410.748H221.593V404.456Z" fill="white"/>
<path d="M197.829 372.915H191.537V379.207H197.829V372.915Z" fill="white"/>
<path d="M197.829 380.803H191.537V387.095H197.829V380.803Z" fill="white"/>
<path d="M197.829 388.689H191.537V394.981H197.829V388.689Z" fill="white"/>
<path d="M327.739 349.887H321.447V356.179H327.739V349.887Z" fill="white"/>
<path d="M335.667 349.887H329.375V356.179H335.667V349.887Z" fill="white"/>
<path d="M327.739 357.946H321.447V364.238H327.739V357.946Z" fill="white"/>
<path d="M335.667 357.946H329.375V364.238H335.667V357.946Z" fill="white"/>
<path d="M327.739 365.998H321.447V372.29H327.739V365.998Z" fill="white"/>
<path d="M335.667 365.998H329.375V372.29H335.667V365.998Z" fill="white"/>
<path d="M327.739 374.057H321.447V380.349H327.739V374.057Z" fill="white"/>
<path d="M335.667 374.057H329.375V380.349H335.667V374.057Z" fill="white"/>
<path d="M327.739 382.116H321.447V388.408H327.739V382.116Z" fill="white"/>
<path d="M335.667 382.116H329.375V388.408H335.667V382.116Z" fill="white"/>
<path d="M343.594 349.887H337.302V356.179H343.594V349.887Z" fill="white"/>
<path d="M343.594 357.946H337.302V364.238H343.594V357.946Z" fill="white"/>
<path d="M343.594 382.116H337.302V388.408H343.594V382.116Z" fill="white"/>
<path d="M371.692 339.021H365.4V345.313H371.692V339.021Z" fill="white"/>
<path d="M379.619 339.021H373.327V345.313H379.619V339.021Z" fill="white"/>
<path d="M371.692 347.08H365.4V353.372H371.692V347.08Z" fill="white"/>
<path d="M379.619 347.08H373.327V353.372H379.619V347.08Z" fill="white"/>
<path d="M371.692 355.13H365.4V361.422H371.692V355.13Z" fill="white"/>
<path d="M379.619 355.13H373.327V361.422H379.619V355.13Z" fill="white"/>
<path d="M371.692 363.189H365.4V369.481H371.692V363.189Z" fill="white"/>
<path d="M379.619 363.189H373.327V369.481H379.619V363.189Z" fill="white"/>
<path d="M371.692 371.25H365.4V377.541H371.692V371.25Z" fill="white"/>
<path d="M379.619 371.25H373.327V377.541H379.619V371.25Z" fill="white"/>
<path d="M387.537 339.021H381.245V345.313H387.537V339.021Z" fill="white"/>
<path d="M387.537 347.08H381.245V353.372H387.537V347.08Z" fill="white"/>
<path d="M387.537 355.13H381.245V361.422H387.537V355.13Z" fill="white"/>
<path d="M387.537 363.189H381.245V369.481H387.537V363.189Z" fill="white"/>
<path d="M387.537 371.25H381.245V377.541H387.537V371.25Z" fill="white"/>
<path d="M409.019 343.172H403.737V349.464H409.019V343.172Z" fill="white"/>
<path d="M415.937 343.172H410.655V349.464H415.937V343.172Z" fill="white"/>
<path d="M409.019 351.211H403.737V357.503H409.019V351.211Z" fill="white"/>
<path d="M415.937 351.211H410.655V357.503H415.937V351.211Z" fill="white"/>
<path d="M409.019 359.25H403.737V365.542H409.019V359.25Z" fill="white"/>
<path d="M415.937 359.25H410.655V365.542H415.937V359.25Z" fill="white"/>
<path d="M415.937 367.292H410.655V373.583H415.937V367.292Z" fill="white"/>
<path d="M409.019 375.328H403.737V381.62H409.019V375.328Z" fill="white"/>
<path d="M422.855 343.172H417.573V349.464H422.855V343.172Z" fill="white"/>
<path d="M422.855 367.292H417.573V373.583H422.855V367.292Z" fill="white"/>
<path d="M319.82 349.887H313.528V356.179H319.82V349.887Z" fill="white"/>
<path d="M319.82 357.946H313.528V364.238H319.82V357.946Z" fill="white"/>
<path d="M319.82 365.998H313.528V372.29H319.82V365.998Z" fill="white"/>
<path d="M319.82 374.057H313.528V380.349H319.82V374.057Z" fill="white"/>
<path d="M280.392 373.945H274.1V380.237H280.392V373.945Z" fill="white"/>
<path d="M272.677 373.945H266.385V380.237H272.677V373.945Z" fill="white"/>
<path d="M264.97 373.945H258.678V380.237H264.97V373.945Z" fill="white"/>
<path d="M257.255 373.945H250.963V380.237H257.255V373.945Z" fill="white"/>
<path d="M249.539 373.945H243.247V380.237H249.539V373.945Z" fill="white"/>
<path d="M288.108 373.945H281.816V380.237H288.108V373.945Z" fill="white"/>
<path d="M295.825 373.945H289.533V380.237H295.825V373.945Z" fill="white"/>
<path d="M280.392 381.962H274.1V388.254H280.392V381.962Z" fill="white"/>
<path d="M272.677 381.962H266.385V388.254H272.677V381.962Z" fill="white"/>
<path d="M264.97 381.962H258.678V388.254H264.97V381.962Z" fill="white"/>
<path d="M257.255 381.962H250.963V388.254H257.255V381.962Z" fill="white"/>
<path d="M249.539 381.962H243.247V388.254H249.539V381.962Z" fill="white"/>
<path d="M288.108 381.962H281.816V388.254H288.108V381.962Z" fill="white"/>
<path d="M295.825 381.962H289.533V388.254H295.825V381.962Z" fill="white"/>
<path d="M280.392 389.993H274.1V396.285H280.392V389.993Z" fill="white"/>
<path d="M272.677 389.993H266.385V396.285H272.677V389.993Z" fill="white"/>
<path d="M264.97 389.993H258.678V396.285H264.97V389.993Z" fill="white"/>
<path d="M257.255 389.993H250.963V396.285H257.255V389.993Z" fill="white"/>
<path d="M288.108 389.993H281.816V396.285H288.108V389.993Z" fill="white"/>
<path d="M280.392 398.012H274.1V404.304H280.392V398.012Z" fill="white"/>
<path d="M272.677 398.012H266.385V404.304H272.677V398.012Z" fill="white"/>
<path d="M257.255 398.012H250.963V404.304H257.255V398.012Z" fill="white"/>
<path d="M288.108 398.012H281.816V404.304H288.108V398.012Z" fill="white"/>
<path d="M280.392 406.031H274.1V412.323H280.392V406.031Z" fill="white"/>
<path d="M272.677 406.031H266.385V412.323H272.677V406.031Z" fill="white"/>
<path d="M264.97 406.031H258.678V412.323H264.97V406.031Z" fill="white"/>
<path d="M257.255 406.031H250.963V412.323H257.255V406.031Z" fill="white"/>
<path d="M249.539 406.031H243.247V412.323H249.539V406.031Z" fill="white"/>
<path d="M288.108 406.031H281.816V412.323H288.108V406.031Z" fill="white"/>
<path d="M295.825 406.031H289.533V412.323H295.825V406.031Z" fill="white"/>
<path d="M280.392 414.049H274.1V420.341H280.392V414.049Z" fill="white"/>
<path d="M264.97 414.049H258.678V420.341H264.97V414.049Z" fill="white"/>
<path d="M257.255 414.049H250.963V420.341H257.255V414.049Z" fill="white"/>
<path d="M249.539 414.049H243.247V420.341H249.539V414.049Z" fill="white"/>
<path d="M280.392 422.079H274.1V428.371H280.392V422.079Z" fill="white"/>
<path d="M257.255 422.079H250.963V428.371H257.255V422.079Z" fill="white"/>
<path d="M295.825 422.079H289.533V428.371H295.825V422.079Z" fill="white"/>
<path d="M280.392 365.926H274.1V372.218H280.392V365.926Z" fill="white"/>
<path d="M272.677 365.926H266.385V372.218H272.677V365.926Z" fill="white"/>
<path d="M264.97 365.926H258.678V372.218H264.97V365.926Z" fill="white"/>
<path d="M257.255 365.926H250.963V372.218H257.255V365.926Z" fill="white"/>
<path d="M249.539 365.926H243.247V372.218H249.539V365.926Z" fill="white"/>
<path d="M288.108 365.926H281.816V372.218H288.108V365.926Z" fill="white"/>
<path d="M295.825 365.926H289.533V372.218H295.825V365.926Z" fill="white"/>
<path d="M379.619 379.297H373.327V385.589H379.619V379.297Z" fill="white"/>
<path d="M379.619 387.356H373.327V393.648H379.619V387.356Z" fill="white"/>
<path d="M371.692 395.406H365.4V401.698H371.692V395.406Z" fill="white"/>
<path d="M387.537 379.297H381.245V385.589H387.537V379.297Z" fill="white"/>
<path d="M387.537 387.356H381.245V393.648H387.537V387.356Z" fill="white"/>
<path d="M335.667 390.163H329.375V396.455H335.667V390.163Z" fill="white"/>
<path d="M327.739 398.224H321.447V404.516H327.739V398.224Z" fill="white"/>
<path d="M335.667 398.224H329.375V404.516H335.667V398.224Z" fill="white"/>
<path d="M327.739 406.283H321.447V412.575H327.739V406.283Z" fill="white"/>
<path d="M335.667 406.283H329.375V412.575H335.667V406.283Z" fill="white"/>
<path d="M343.594 390.163H337.302V396.455H343.594V390.163Z" fill="white"/>
<path d="M343.594 398.224H337.302V404.516H343.594V398.224Z" fill="white"/>
<path d="M319.82 390.163H313.528V396.455H319.82V390.163Z" fill="white"/>
<path d="M205.747 412.333H199.455V418.625H205.747V412.333Z" fill="white"/>
<path d="M213.675 412.333H207.383V418.625H213.675V412.333Z" fill="white"/>
<path d="M205.747 420.221H199.455V426.513H205.747V420.221Z" fill="white"/>
<path d="M197.829 412.333H191.537V418.625H197.829V412.333Z" fill="white"/>
<path d="M159.623 400.526H154.129V406.818H159.623V400.526Z" fill="white"/>
<path d="M166.541 400.526H161.047V406.818H166.541V400.526Z" fill="white"/>
<path d="M166.541 408.456H161.047V414.748H166.541V408.456Z" fill="white"/>
<path d="M152.716 400.526H147.221V406.818H152.716V400.526Z" fill="white"/>
<path d="M152.716 416.383H147.221V422.675H152.716V416.383Z" fill="white"/>
<path d="M122.71 411.464H117.67V417.756H122.71V411.464Z" fill="white"/>
<path d="M122.71 419.414H117.67V425.706H122.71V419.414Z" fill="white"/>
<path d="M116.105 403.548H111.065V409.84H116.105V403.548Z" fill="white"/>
<path d="M116.105 411.475H111.065V417.767H116.105V411.475Z" fill="white"/>
<path d="M88.7751 390.163H82.4832V396.455H88.7751V390.163Z" fill="white"/>
<path d="M80.8476 398.205H74.5557V404.497H80.8476V398.205Z" fill="white"/>
<path d="M224.754 43.0436C224.754 41.8014 224.754 40.5591 224.704 39.3169" stroke="#263238" stroke-linecap="round" stroke-linejoin="round"/>
<path d="M224.704 80.1905C224.818 72.5621 224.865 64.9336 224.845 57.3052" stroke="#263238" stroke-linecap="round" stroke-linejoin="round"/>
<path d="M224.704 100.47V94.0059" stroke="#263238" stroke-linecap="round" stroke-linejoin="round"/>
<path d="M276.717 53.1437C277.727 50.9118 278.737 48.6899 279.838 46.4983" stroke="#263238" stroke-linecap="round" stroke-linejoin="round"/>
<path d="M262.173 87.7021C266.324 78.7136 269.819 69.4524 273.626 60.3225" stroke="#263238" stroke-linecap="round" stroke-linejoin="round"/>
<path d="M253.962 106.862C255.746 102.688 257.53 98.5234 259.315 94.3691" stroke="#263238" stroke-linecap="round" stroke-linejoin="round"/>
<path d="M246.569 100.468L257.356 62.1409" stroke="#263238" stroke-linecap="round" stroke-linejoin="round"/>
<path d="M184.629 69.5737C188.305 81.0467 191.426 92.7318 195.143 104.023" stroke="#263238" stroke-linecap="round" stroke-linejoin="round"/>
<path d="M177.59 46.4983C179.24 51.8847 180.883 57.271 182.519 62.6574" stroke="#263238" stroke-linecap="round" stroke-linejoin="round"/>
<path d="M186.235 103.498L187.75 106.861" stroke="#263238" stroke-linecap="round" stroke-linejoin="round"/>
<path d="M175.742 80.1904L183.398 97.1878" stroke="#263238" stroke-linecap="round" stroke-linejoin="round"/>
<path d="M132.647 121.224C136.546 125.728 140.414 130.263 144.181 134.888" stroke="#263238" stroke-linecap="round" stroke-linejoin="round"/>
<path d="M115.236 100.631C119.276 105.752 123.589 110.731 127.871 115.7" stroke="#263238" stroke-linecap="round" stroke-linejoin="round"/>
<path d="M107.218 91.1592L110.247 94.7849" stroke="#263238" stroke-linecap="round" stroke-linejoin="round"/>
<path d="M117.226 120.517L137.859 140.433" stroke="#263238" stroke-linecap="round" stroke-linejoin="round"/>
<path d="M119.418 185.94L125.7 187.546" stroke="#263238" stroke-linecap="round" stroke-linejoin="round"/>
<path d="M74.4849 174.458L113.055 184.355" stroke="#263238" stroke-linecap="round" stroke-linejoin="round"/>
<path d="M63.0227 171.528L67.1938 172.598" stroke="#263238" stroke-linecap="round" stroke-linejoin="round"/>
<path d="M111.025 172.902L125.699 179.537" stroke="#263238" stroke-linecap="round" stroke-linejoin="round"/>
<path d="M94.3608 165.377L104.46 169.942" stroke="#263238" stroke-linecap="round" stroke-linejoin="round"/>
<path d="M350.311 95.6117L352.826 93.5312" stroke="#263238" stroke-linecap="round" stroke-linejoin="round"/>
<path d="M338.596 105.327L344.454 100.469" stroke="#263238" stroke-linecap="round" stroke-linejoin="round"/>
<path d="M314.488 125.305L332.768 110.156" stroke="#263238" stroke-linecap="round" stroke-linejoin="round"/>
<path d="M299.541 137.685L308.953 129.888" stroke="#263238" stroke-linecap="round" stroke-linejoin="round"/>
<path d="M301.703 91.1592L281.373 119.185" stroke="#263238" stroke-linecap="round" stroke-linejoin="round"/>
<path d="M382.286 155.623L386.699 154.29" stroke="#263238" stroke-linecap="round" stroke-linejoin="round"/>
<path d="M341.201 168.063C352.705 164.7 364.248 161.468 375.61 157.651" stroke="#263238" stroke-linecap="round" stroke-linejoin="round"/>
<path d="M320.79 174.307C325.194 172.863 329.627 171.5 334.071 170.167" stroke="#263238" stroke-linecap="round" stroke-linejoin="round"/>
<path d="M323.255 185.396L360.825 180.488" stroke="#263238" stroke-linecap="round" stroke-linejoin="round"/>
<path d="M377.418 250.609L383.013 252.407" stroke="#263238" stroke-linecap="round" stroke-linejoin="round"/>
<path d="M322.022 232.833C338.555 237.509 354.118 243.731 370.671 248.427" stroke="#263238" stroke-linecap="round" stroke-linejoin="round"/>
<path d="M347.716 229.805L369.763 232.835" stroke="#263238" stroke-linecap="round" stroke-linejoin="round"/>
<path d="M323.255 226.367L340.253 228.791" stroke="#263238" stroke-linecap="round" stroke-linejoin="round"/>
<path d="M339.111 319.192L341.949 322.737" stroke="#263238" stroke-linecap="round" stroke-linejoin="round"/>
<path d="M299.541 269.716C311.307 284.228 322.982 299.004 334.889 313.88" stroke="#263238" stroke-linecap="round" stroke-linejoin="round"/>
<path d="M316.933 277.604C320.346 280.93 323.757 284.256 327.164 287.582" stroke="#263238" stroke-linecap="round" stroke-linejoin="round"/>
<path d="M304.167 265.151L312.671 273.443" stroke="#263238" stroke-linecap="round" stroke-linejoin="round"/>
<path d="M121.013 319.737L118.771 322.828" stroke="#263238" stroke-linecap="round" stroke-linejoin="round"/>
<path d="M134.85 300.793C131.678 305.247 128.467 309.68 125.164 314.043" stroke="#263238" stroke-linecap="round" stroke-linejoin="round"/>
<path d="M154.22 274.17C148.978 280.907 144.029 287.875 139.071 294.844" stroke="#263238" stroke-linecap="round" stroke-linejoin="round"/>
<path d="M136.121 279.593L124.618 289.934" stroke="#263238" stroke-linecap="round" stroke-linejoin="round"/>
<path d="M148.019 268.897L141.222 275.007" stroke="#263238" stroke-linecap="round" stroke-linejoin="round"/>
<path d="M88.957 255.285L75.656 261.92" stroke="#263238" stroke-linecap="round" stroke-linejoin="round"/>
<path d="M128.971 235.358C118.286 240.64 106.611 246.084 95.3396 252.123" stroke="#263238" stroke-linecap="round" stroke-linejoin="round"/>
<path d="M125.699 219.188L96.5928 224.269" stroke="#263238" stroke-linecap="round" stroke-linejoin="round"/>
<path d="M309.994 154.289L327.163 143.815" stroke="#263238" stroke-linecap="round" stroke-linejoin="round"/>
<path d="M152.948 102.548L163.421 119.182" stroke="#263238" stroke-linecap="round" stroke-linejoin="round"/>
<path d="M290.301 295.307L296.774 309.083" stroke="#263238" stroke-linecap="round" stroke-linejoin="round"/>
<path d="M284.766 283.503C285.664 285.422 286.573 287.351 287.472 289.28" stroke="#263238" stroke-linecap="round" stroke-linejoin="round"/>
<path d="M345.18 261.162L348.816 263.303" stroke="#263238" stroke-linecap="round" stroke-linejoin="round"/>
<path d="M318.579 245.456L338.98 257.495" stroke="#263238" stroke-linecap="round" stroke-linejoin="round"/>
<path d="M368.378 210.18H378.074" stroke="#263238" stroke-linecap="round" stroke-linejoin="round"/>
<path d="M326.183 210.18C337.778 210.281 349.412 210.281 361.461 210.18" stroke="#263238" stroke-linecap="round" stroke-linejoin="round"/>
<path d="M79.4842 210.613L61.8 210.906" stroke="#263238" stroke-linecap="round" stroke-linejoin="round"/>
<path d="M113.943 210.099C104.601 210.291 95.2593 210.331 85.9072 210.453" stroke="#263238" stroke-linecap="round" stroke-linejoin="round"/>
<path d="M124.618 209.817L120.841 209.938" stroke="#263238" stroke-linecap="round" stroke-linejoin="round"/>
<path d="M107.763 138.02L93.2297 128.698" stroke="#263238" stroke-linecap="round" stroke-linejoin="round"/>
<path d="M133.143 154.288L114.085 142.078" stroke="#263238" stroke-linecap="round" stroke-linejoin="round"/>
<path d="M221.312 115.235C173.956 115.901 135.467 154.734 135.123 202.09C135.022 215.253 137.901 228.269 143.543 240.162C149.185 252.055 157.445 262.518 167.704 270.766C171.284 273.699 173.936 277.607 175.339 282.017L179.379 294.51H265.709L269.84 281.765C271.216 277.484 273.806 273.695 277.293 270.857C291.492 259.455 301.776 243.903 306.71 226.374C311.643 208.845 310.98 190.212 304.813 173.078C298.646 155.943 287.283 141.162 272.31 130.798C257.336 120.434 239.501 115.003 221.292 115.265L221.312 115.235Z" fill="white"/>
<mask id="mask0_93_361" style="mask-type:luminance" maskUnits="userSpaceOnUse" x="135" y="115" width="175" height="180">
<path d="M221.313 115.239C173.957 115.905 135.468 154.738 135.124 202.094C135.023 215.257 137.902 228.273 143.544 240.166C149.186 252.06 157.446 262.522 167.705 270.77C171.285 273.703 173.937 277.611 175.34 282.021L179.38 294.514H265.71L269.841 281.769C271.217 277.488 273.807 273.699 277.294 270.861C291.493 259.459 301.777 243.907 306.711 226.378C311.644 208.849 310.981 190.216 304.814 173.082C298.647 155.948 287.284 141.166 272.311 130.802C257.337 120.438 239.501 115.007 221.293 115.269L221.313 115.239Z" fill="white"/>
</mask>
<g mask="url(#mask0_93_361)">
<path d="M201.286 287.281C201.337 289.473 201.286 290.715 201.286 290.715" stroke="#263238" stroke-linecap="round" stroke-linejoin="round"/>
<path d="M199.166 260.53C200.246 268.468 200.792 275.729 201.064 281.143" stroke="#263238" stroke-linecap="round" stroke-linejoin="round"/>
<path d="M191.378 216.145H185.238C191.59 225.769 195.428 239.03 197.751 251.715" stroke="#263238" stroke-linecap="round" stroke-linejoin="round"/>
<path d="M203.599 213.628L202.882 216.143H193.449" stroke="#263238" stroke-linecap="round" stroke-linejoin="round"/>
<path d="M210.346 220.768L209.528 223.536L204.811 209.366L204.064 211.982" stroke="#263238" stroke-linecap="round" stroke-linejoin="round"/>
<path d="M220.091 217.425L218.223 223.536L213.688 209.366L211.254 217.668" stroke="#263238" stroke-linecap="round" stroke-linejoin="round"/>
<path d="M233.332 215.82L231.443 209.366L226.909 223.536L222.566 209.366L221.293 213.517" stroke="#263238" stroke-linecap="round" stroke-linejoin="round"/>
<path d="M245.036 216.143H242.239L240.32 209.366L235.593 223.536L234.109 218.455" stroke="#263238" stroke-linecap="round" stroke-linejoin="round"/>
<path d="M248.703 245.17C251.087 234.596 254.621 224.113 259.883 216.145H247.966" stroke="#263238" stroke-linecap="round" stroke-linejoin="round"/>
<path d="M246.127 259.217C246.612 255.813 247.208 252.288 247.915 248.754" stroke="#263238" stroke-linecap="round" stroke-linejoin="round"/>
<path d="M244.38 275.882C244.633 272.327 244.996 268.317 245.511 264.035" stroke="#263238" stroke-linecap="round" stroke-linejoin="round"/>
<path d="M243.957 283.506C243.957 282.577 244.048 281.567 244.098 280.476" stroke="#263238" stroke-linecap="round" stroke-linejoin="round"/>
<path d="M243.805 290.717C243.805 290.717 243.805 289.061 243.865 286.203" stroke="#263238" stroke-linecap="round" stroke-linejoin="round"/>
<path opacity="0.2" d="M221.313 115.239C173.957 115.905 135.468 154.738 135.124 202.094C135.023 215.257 137.902 228.273 143.544 240.166C149.186 252.06 157.446 262.522 167.705 270.77C171.285 273.703 173.937 277.611 175.34 282.021L179.38 294.514H265.71L269.841 281.769C271.217 277.488 273.807 273.699 277.294 270.861C291.493 259.459 301.777 243.907 306.711 226.378C311.644 208.849 310.981 190.216 304.814 173.082C298.647 155.948 287.284 141.166 272.311 130.802C257.337 120.438 239.501 115.007 221.293 115.269L221.313 115.239ZM222.565 258.348C209.325 258.35 196.381 254.425 185.371 247.07C174.361 239.715 165.78 229.26 160.713 217.028C155.645 204.795 154.319 191.335 156.903 178.348C159.486 165.362 165.863 153.434 175.226 144.072C184.589 134.71 196.518 128.336 209.505 125.754C222.491 123.173 235.952 124.501 248.184 129.57C260.415 134.639 270.869 143.222 278.222 154.233C285.576 165.244 289.499 178.188 289.495 191.429C289.492 209.178 282.439 226.199 269.888 238.749C257.337 251.298 240.314 258.348 222.565 258.348Z" fill="#FFD500"/>
</g>
<path d="M221.312 115.235C173.956 115.901 135.467 154.734 135.123 202.09C135.022 215.253 137.901 228.269 143.543 240.162C149.185 252.055 157.445 262.518 167.704 270.766C171.284 273.699 173.936 277.607 175.339 282.017L179.379 294.51H265.709L269.84 281.765C271.216 277.484 273.806 273.695 277.293 270.857C291.492 259.455 301.776 243.903 306.71 226.374C311.643 208.845 310.98 190.212 304.813 173.078C298.646 155.943 287.283 141.162 272.31 130.798C257.336 120.434 239.501 115.003 221.292 115.265L221.312 115.235Z" stroke="#263238" stroke-linecap="round" stroke-linejoin="round"/>
<path d="M232.674 378.539H212.476C211.975 378.539 211.482 378.407 211.049 378.155C210.616 377.903 210.258 377.541 210.011 377.105L206.981 371.772L195.296 364.995H249.965L238.29 371.772L235.26 377.105C235.001 377.557 234.623 377.929 234.167 378.182C233.711 378.435 233.195 378.558 232.674 378.539Z" fill="#263238" stroke="#263238" stroke-linecap="round" stroke-linejoin="round"/>
<path d="M255.276 360.974H189.852C191.011 363.391 192.828 365.432 195.096 366.861C197.363 368.29 199.988 369.05 202.668 369.053H242.45C245.132 369.05 247.758 368.29 250.027 366.861C252.296 365.431 254.115 363.391 255.276 360.974Z" fill="#757575" stroke="#263238" stroke-linecap="round" stroke-linejoin="round"/>
<path d="M255.277 360.974H189.852L182.066 305.528H263.063L255.277 360.974Z" fill="#999999"/>
<mask id="mask1_93_361" style="mask-type:luminance" maskUnits="userSpaceOnUse" x="182" y="305" width="82" height="56">
<path d="M255.275 360.974H189.851L182.064 305.528H263.062L255.275 360.974Z" fill="white"/>
</mask>
<g mask="url(#mask1_93_361)">
<path opacity="0.4" d="M193.205 342.732L193.922 349.085L251.701 344.611L252.438 338.026L193.205 342.732Z" fill="white"/>
<path opacity="0.4" d="M214.969 359.072H245.116C246.088 359.07 247.041 358.812 247.882 358.324C248.722 357.837 249.419 357.137 249.903 356.294L214.969 359.072Z" fill="white"/>
<path opacity="0.4" d="M194.225 351.781L194.487 354.154C194.656 355.59 195.381 356.903 196.507 357.81L250.711 353.609L251.428 347.236L194.225 351.781Z" fill="white"/>
<path opacity="0.4" d="M253.751 326.381L253.973 324.381H222.049H220.736H191.155L191.912 331.178L253.751 326.381Z" fill="white"/>
<path opacity="0.4" d="M192.215 333.873L192.912 340.024L252.741 335.388L253.448 329.016L192.215 333.873Z" fill="white"/>
</g>
<path d="M255.277 360.974H189.852L182.066 305.528H263.063L255.277 360.974Z" stroke="#263238" stroke-linecap="round" stroke-linejoin="round"/>
<path d="M185.207 333.028C184.588 333.05 183.986 332.827 183.532 332.405C183.079 331.984 182.811 331.399 182.788 330.781C182.765 330.162 182.989 329.559 183.411 329.106C183.832 328.652 184.417 328.385 185.035 328.362L259.771 322.837C260.389 322.792 260.999 322.993 261.468 323.398C261.936 323.802 262.225 324.376 262.271 324.994C262.316 325.611 262.115 326.221 261.71 326.69C261.306 327.159 260.732 327.448 260.115 327.493L185.379 333.018L185.207 333.028Z" fill="#BFBFBF"/>
<mask id="mask2_93_361" style="mask-type:luminance" maskUnits="userSpaceOnUse" x="182" y="322" width="81" height="12">
<path d="M185.207 333.029C184.588 333.051 183.986 332.828 183.532 332.406C183.078 331.985 182.811 331.4 182.788 330.782C182.765 330.163 182.989 329.56 183.411 329.107C183.832 328.653 184.416 328.386 185.035 328.363L259.771 322.838C260.388 322.793 260.999 322.994 261.467 323.399C261.936 323.803 262.225 324.377 262.271 324.995C262.316 325.612 262.115 326.222 261.71 326.691C261.306 327.16 260.732 327.449 260.114 327.494L185.378 333.019L185.207 333.029Z" fill="white"/>
</mask>
<g mask="url(#mask2_93_361)">
<g opacity="0.4">
<path d="M261.974 324.093C261.793 324.446 261.524 324.746 261.193 324.963C260.862 325.181 260.48 325.309 260.085 325.336L185.349 330.86H185.177C184.972 330.977 184.741 331.04 184.505 331.043C184.269 331.046 184.036 330.989 183.829 330.877C183.621 330.766 183.444 330.603 183.316 330.405C183.188 330.207 183.113 329.98 183.097 329.744C183.081 329.509 183.124 329.273 183.224 329.06C183.324 328.846 183.476 328.661 183.667 328.522C183.858 328.383 184.081 328.295 184.315 328.266C184.549 328.237 184.787 328.268 185.006 328.355L259.742 322.831C260.196 322.799 260.651 322.902 261.047 323.126C261.444 323.351 261.766 323.687 261.974 324.093Z" fill="white"/>
</g>
</g>
<path d="M185.207 333.028C184.588 333.05 183.986 332.827 183.532 332.405C183.079 331.984 182.811 331.399 182.788 330.781C182.765 330.162 182.989 329.559 183.411 329.106C183.832 328.652 184.417 328.385 185.035 328.362L259.771 322.837C260.389 322.792 260.999 322.993 261.468 323.398C261.936 323.802 262.225 324.376 262.271 324.994C262.316 325.611 262.115 326.221 261.71 326.69C261.306 327.159 260.732 327.448 260.115 327.493L185.379 333.018L185.207 333.028Z" stroke="#263238" stroke-linecap="round" stroke-linejoin="round"/>
<path d="M186.54 342.038C185.921 342.061 185.318 341.837 184.865 341.415C184.411 340.994 184.143 340.41 184.121 339.791C184.098 339.172 184.322 338.57 184.743 338.116C185.165 337.663 185.749 337.395 186.368 337.372L258.518 332.03C259.136 331.984 259.746 332.186 260.215 332.59C260.684 332.994 260.972 333.568 261.018 334.186C261.063 334.803 260.862 335.413 260.458 335.882C260.053 336.351 259.479 336.64 258.862 336.685L186.711 342.028L186.54 342.038Z" fill="#BFBFBF"/>
<mask id="mask3_93_361" style="mask-type:luminance" maskUnits="userSpaceOnUse" x="184" y="332" width="78" height="11">
<path d="M186.54 342.037C185.921 342.06 185.319 341.836 184.865 341.414C184.412 340.993 184.144 340.408 184.121 339.79C184.098 339.171 184.322 338.569 184.744 338.115C185.165 337.661 185.75 337.394 186.368 337.371L258.519 332.028C259.136 331.983 259.746 332.184 260.215 332.589C260.684 332.993 260.973 333.567 261.018 334.185C261.064 334.802 260.862 335.412 260.458 335.881C260.054 336.35 259.48 336.639 258.862 336.684L186.712 342.027L186.54 342.037Z" fill="white"/>
</mask>
<g mask="url(#mask3_93_361)">
<g opacity="0.4">
<path d="M260.699 333.284C260.518 333.637 260.249 333.937 259.918 334.154C259.587 334.372 259.205 334.5 258.81 334.527L186.66 339.889H186.538C186.333 340.006 186.102 340.069 185.866 340.072C185.63 340.075 185.398 340.018 185.19 339.907C184.982 339.795 184.806 339.633 184.678 339.435C184.55 339.237 184.474 339.009 184.458 338.774C184.442 338.538 184.486 338.303 184.585 338.089C184.685 337.875 184.838 337.69 185.028 337.552C185.219 337.413 185.442 337.325 185.676 337.296C185.91 337.266 186.148 337.297 186.367 337.385L258.517 332.042C258.961 332.022 259.401 332.128 259.787 332.348C260.173 332.568 260.489 332.893 260.699 333.284Z" fill="white"/>
</g>
</g>
<path d="M186.54 342.038C185.921 342.061 185.318 341.837 184.865 341.415C184.411 340.994 184.143 340.41 184.121 339.791C184.098 339.172 184.322 338.57 184.743 338.116C185.165 337.663 185.749 337.395 186.368 337.372L258.518 332.03C259.136 331.984 259.746 332.186 260.215 332.59C260.684 332.994 260.972 333.568 261.018 334.186C261.063 334.803 260.862 335.413 260.458 335.882C260.053 336.351 259.479 336.64 258.862 336.685L186.711 342.028L186.54 342.038Z" stroke="#263238" stroke-linecap="round" stroke-linejoin="round"/>
<path d="M187.762 351.048C187.143 351.069 186.541 350.844 186.089 350.422C185.636 349.999 185.37 349.415 185.348 348.796C185.327 348.177 185.552 347.575 185.974 347.122C186.397 346.67 186.982 346.403 187.6 346.382L257.186 341.241C257.491 341.219 257.798 341.257 258.089 341.353C258.38 341.449 258.65 341.602 258.882 341.802C259.114 342.002 259.304 342.246 259.442 342.52C259.58 342.794 259.663 343.092 259.685 343.398C259.708 343.703 259.67 344.011 259.574 344.302C259.477 344.593 259.325 344.862 259.125 345.094C258.924 345.326 258.68 345.517 258.407 345.654C258.133 345.792 257.835 345.875 257.529 345.897L187.944 351.048H187.762Z" fill="#BFBFBF"/>
<mask id="mask4_93_361" style="mask-type:luminance" maskUnits="userSpaceOnUse" x="185" y="341" width="75" height="11">
<path d="M187.762 351.043C187.143 351.065 186.541 350.839 186.089 350.417C185.636 349.995 185.37 349.41 185.348 348.791C185.327 348.172 185.552 347.57 185.975 347.118C186.397 346.665 186.982 346.399 187.6 346.377L257.186 341.237C257.491 341.214 257.799 341.252 258.09 341.348C258.381 341.444 258.65 341.597 258.882 341.797C259.114 341.997 259.305 342.241 259.442 342.515C259.58 342.789 259.663 343.087 259.685 343.393C259.708 343.698 259.67 344.006 259.574 344.297C259.478 344.588 259.325 344.857 259.125 345.089C258.925 345.321 258.681 345.512 258.407 345.649C258.133 345.787 257.835 345.87 257.529 345.892L187.944 351.043H187.762Z" fill="white"/>
</mask>
<g mask="url(#mask4_93_361)">
<g opacity="0.4">
<path d="M259.418 342.492C259.24 342.846 258.971 343.148 258.64 343.366C258.308 343.584 257.925 343.711 257.529 343.734L187.944 348.885H187.762C187.557 348.999 187.326 349.06 187.091 349.062C186.857 349.063 186.625 349.005 186.419 348.893C186.212 348.781 186.037 348.619 185.91 348.421C185.783 348.224 185.708 347.997 185.692 347.763C185.676 347.528 185.72 347.294 185.819 347.081C185.918 346.868 186.069 346.683 186.258 346.544C186.448 346.405 186.669 346.316 186.902 346.286C187.135 346.255 187.372 346.284 187.591 346.37L257.176 341.229C257.632 341.197 258.088 341.299 258.487 341.524C258.885 341.748 259.209 342.085 259.418 342.492Z" fill="white"/>
</g>
</g>
<path d="M187.762 351.048C187.143 351.069 186.541 350.844 186.089 350.422C185.636 349.999 185.37 349.415 185.348 348.796C185.327 348.177 185.552 347.575 185.974 347.122C186.397 346.67 186.982 346.403 187.6 346.382L257.186 341.241C257.491 341.219 257.798 341.257 258.089 341.353C258.38 341.449 258.65 341.602 258.882 341.802C259.114 342.002 259.304 342.246 259.442 342.52C259.58 342.794 259.663 343.092 259.685 343.398C259.708 343.703 259.67 344.011 259.574 344.302C259.477 344.593 259.325 344.862 259.125 345.094C258.924 345.326 258.68 345.517 258.407 345.654C258.133 345.792 257.835 345.875 257.529 345.897L187.944 351.048H187.762Z" stroke="#263238" stroke-linecap="round" stroke-linejoin="round"/>
<path d="M189.044 360.087C188.426 360.109 187.823 359.885 187.37 359.464C186.916 359.043 186.648 358.458 186.626 357.84C186.603 357.221 186.827 356.618 187.248 356.165C187.67 355.711 188.254 355.443 188.873 355.421L255.903 350.462C256.52 350.416 257.13 350.618 257.599 351.022C258.068 351.427 258.357 352.001 258.402 352.618C258.448 353.236 258.246 353.846 257.842 354.314C257.438 354.783 256.864 355.072 256.246 355.118L189.216 360.087H189.044Z" fill="#BFBFBF"/>
<mask id="mask5_93_361" style="mask-type:luminance" maskUnits="userSpaceOnUse" x="186" y="350" width="73" height="11">
<path d="M189.045 360.082C188.426 360.104 187.823 359.88 187.37 359.459C186.916 359.038 186.649 358.453 186.626 357.834C186.603 357.216 186.827 356.613 187.248 356.16C187.67 355.706 188.254 355.438 188.873 355.416L255.903 350.457C256.52 350.411 257.131 350.613 257.599 351.017C258.068 351.422 258.357 351.996 258.403 352.613C258.448 353.23 258.247 353.841 257.842 354.309C257.438 354.778 256.864 355.067 256.246 355.113L189.216 360.082H189.045Z" fill="white"/>
</mask>
<g mask="url(#mask5_93_361)">
<g opacity="0.4">
<path d="M258.145 351.684C257.964 352.037 257.695 352.338 257.364 352.558C257.034 352.777 256.652 352.907 256.256 352.937L189.216 357.895H189.044C188.839 358.012 188.608 358.075 188.372 358.078C188.136 358.081 187.903 358.024 187.696 357.913C187.488 357.801 187.311 357.639 187.183 357.441C187.055 357.243 186.98 357.015 186.964 356.78C186.948 356.544 186.991 356.309 187.091 356.095C187.191 355.881 187.343 355.696 187.534 355.558C187.725 355.419 187.948 355.331 188.182 355.301C188.416 355.272 188.654 355.303 188.873 355.391L255.903 350.432C256.358 350.4 256.812 350.501 257.21 350.723C257.609 350.946 257.933 351.28 258.145 351.684Z" fill="white"/>
</g>
</g>
<path d="M189.044 360.087C188.426 360.109 187.823 359.885 187.37 359.464C186.916 359.043 186.648 358.458 186.626 357.84C186.603 357.221 186.827 356.618 187.248 356.165C187.67 355.711 188.254 355.443 188.873 355.421L255.903 350.462C256.52 350.416 257.13 350.618 257.599 351.022C258.068 351.427 258.357 352.001 258.402 352.618C258.448 353.236 258.246 353.846 257.842 354.314C257.438 354.783 256.864 355.072 256.246 355.118L189.216 360.087H189.044Z" stroke="#263238" stroke-linecap="round" stroke-linejoin="round"/>
<path d="M272.093 288.035L269.527 316.657L263.528 321.181H181.601L175.592 316.657L173.037 288.035L174.815 283.5H270.305L272.093 288.035Z" fill="#FFD500"/>
<mask id="mask6_93_361" style="mask-type:luminance" maskUnits="userSpaceOnUse" x="173" y="283" width="100" height="39">
<path d="M272.094 288.035L269.528 316.657L263.529 321.181H181.602L175.593 316.657L173.038 288.035L174.816 283.5H270.306L272.094 288.035Z" fill="white"/>
</mask>
<g mask="url(#mask6_93_361)">
<path opacity="0.2" d="M269.528 316.656L263.529 321.181H181.602L175.593 316.656H269.528Z" fill="black" fill-opacity="0.7"/>
<path opacity="0.4" d="M272.094 288.035H173.038L174.816 283.5H270.306L272.094 288.035Z" fill="white"/>
</g>
<path d="M272.093 288.035L269.527 316.657L263.528 321.181H181.601L175.592 316.657L173.037 288.035L174.815 283.5H270.305L272.093 288.035Z" stroke="#263238" stroke-linecap="round" stroke-linejoin="round"/>
<path d="M173.037 288.036H209.718" stroke="#263238" stroke-linecap="round" stroke-linejoin="round"/>
<path d="M215.474 288.036H224.705" stroke="#263238" stroke-linecap="round" stroke-linejoin="round"/>
<path d="M231.28 288.036H233.33" stroke="#263238" stroke-linecap="round" stroke-linejoin="round"/>
<path d="M272.092 288.036H263.063" stroke="#263238" stroke-linecap="round" stroke-linejoin="round"/>
<path d="M269.527 316.658H233.33" stroke="#263238" stroke-linecap="round" stroke-linejoin="round"/>
<path d="M227.382 316.658H215.474" stroke="#263238" stroke-linecap="round" stroke-linejoin="round"/>
<path d="M206.234 316.658H203.77" stroke="#263238" stroke-linecap="round" stroke-linejoin="round"/>
<path d="M175.592 316.658H185.429" stroke="#263238" stroke-linecap="round" stroke-linejoin="round"/>
<path opacity="0.4" d="M201.517 362.317C204.921 365.448 213.061 367.66 222.564 367.66C232.068 367.66 240.198 365.448 243.612 362.317H201.517Z" fill="white"/>
<path opacity="0.2" d="M226.938 377.254H218.151C217.847 377.251 217.551 377.152 217.306 376.97C217.061 376.789 216.88 376.535 216.788 376.244L215.556 372.457H229.564L228.332 376.244C228.24 376.541 228.055 376.799 227.803 376.981C227.552 377.163 227.248 377.259 226.938 377.254Z" fill="white"/>
<path opacity="0.2" d="M215.556 370.992H229.564L231.129 369.801H214L215.556 370.992Z" fill="white"/>
</svg>
