<svg width="76" height="20" viewBox="0 0 76 20" fill="none" xmlns="http://www.w3.org/2000/svg">
<rect width="76" height="20" rx="4" fill="black"/>
<g clip-path="url(#clip0_1032_7457)">
<path d="M19.9392 6H18.6044V12.7689H19.9392V6Z" fill="white"/>
<path d="M17.0711 6.37876H15.7363V13.1475H17.0711V6.37876Z" fill="white"/>
<path d="M14.203 6.80162H12.8681V13.5716H14.203V6.80162Z" fill="white"/>
<path d="M11.3348 7.22917H10L10 14H11.3348L11.3348 7.22917Z" fill="white"/>
<path d="M55.1935 9.60631L53.0442 7.21671H51.7878V12.7495H53.0996V9.21946L55.0618 11.3109H55.3043L57.2327 9.21946V12.7495H58.5446V7.21671H57.2881L55.1935 9.60631Z" fill="white"/>
<path d="M64.7945 7.21671L61.543 10.8128V7.21671H60.2311V12.7495H61.433L64.6846 9.15338V12.7495H65.9964V7.21671H64.7945Z" fill="white"/>
<path d="M44.7217 9.24122C44.7217 10.1221 45.2034 10.816 45.9428 11.107L44.5563 12.7495H46.162L47.4233 11.2553H48.7882V12.7495H50.1V7.21671H46.7602C45.5149 7.21671 44.7217 8.06858 44.7217 9.24122ZM48.789 8.43528V10.0713H47.0034C46.4077 10.0713 46.0882 9.73929 46.0882 9.25251C46.0882 8.76572 46.4189 8.43367 47.0034 8.43367L48.789 8.43528Z" fill="white"/>
<path d="M38.6255 8.32326C38.5453 10.2261 38.1438 11.4543 37.3578 11.4543H37.1611V12.7825L37.3707 12.7938C38.9467 12.8817 39.8178 11.4987 39.9607 8.478H42.0337V12.7495H43.3431V7.21671H38.6697L38.6255 8.32326Z" fill="white"/>
<path d="M33.6872 7.1394C31.9129 7.1394 30.6364 8.36765 30.6364 9.98276C30.6364 11.6535 32.0253 12.8382 33.6872 12.8382C35.4182 12.8382 36.763 11.5874 36.763 9.98276C36.763 8.37813 35.4182 7.1394 33.6872 7.1394ZM33.6872 11.51C32.6845 11.51 32.0012 10.8572 32.0012 9.98276C32.0012 9.08655 32.6853 8.45147 33.6872 8.45147C34.6892 8.45147 35.3957 9.11557 35.3957 9.98276C35.3957 10.8499 34.6796 11.51 33.6872 11.51Z" fill="white"/>
<path d="M29.2451 7.22714H24.615L24.5709 8.3337C24.505 9.92784 24.0891 11.4438 23.3031 11.4656L22.9395 11.4769V14L24.2626 13.9974V12.7502H28.8589V13.9974H30.1932V11.4656H29.2451V7.22714ZM27.9332 11.4656H25.1337C25.6073 10.7467 25.861 9.70621 25.9052 8.48924H27.9332V11.4656Z" fill="white"/>
</g>
<defs>
<clipPath id="clip0_1032_7457">
<rect width="56" height="8" fill="white" transform="translate(10 6)"/>
</clipPath>
</defs>
</svg>
