<svg width="20" height="20" viewBox="0 0 20 20" fill="none" xmlns="http://www.w3.org/2000/svg">
<path fill-rule="evenodd" clip-rule="evenodd" d="M5.76102 4.32498C5.45301 4.34525 5.15477 4.44126 4.89277 4.60448C4.63077 4.7677 4.41313 4.99307 4.25915 5.2606L1.82165 9.4981C1.63724 9.81894 1.5519 10.1872 1.57637 10.5564C1.60084 10.9257 1.73402 11.2794 1.95915 11.5731L4.93227 15.4531C5.1201 15.6981 5.36549 15.8929 5.64668 16.0202C5.92786 16.1475 6.23614 16.2035 6.54415 16.1831L16.9416 15.4962C17.4377 15.4635 17.9005 15.2351 18.2282 14.8612C18.5559 14.4873 18.7217 13.9986 18.6891 13.5025L18.1535 5.3856C18.1373 5.13991 18.0729 4.89981 17.9639 4.67902C17.8549 4.45823 17.7034 4.26107 17.5183 4.0988C17.3331 3.93653 17.1177 3.81233 16.8845 3.73328C16.6513 3.65423 16.4048 3.62189 16.1591 3.6381L5.76102 4.32498ZM4.92415 11.1862C5.07246 11.1765 5.21739 11.1376 5.35068 11.0718C5.48396 11.006 5.60298 10.9146 5.70095 10.8028C5.79892 10.6911 5.87391 10.5611 5.92164 10.4203C5.96937 10.2796 5.98891 10.1308 5.97915 9.98248C5.96938 9.83416 5.93049 9.68923 5.86471 9.55594C5.79893 9.42266 5.70755 9.30364 5.59577 9.20567C5.48399 9.10771 5.35401 9.03272 5.21325 8.98498C5.07249 8.93725 4.92371 8.91771 4.7754 8.92748C4.47587 8.9472 4.19644 9.08511 3.99859 9.31085C3.80074 9.5366 3.70067 9.8317 3.7204 10.1312C3.74012 10.4308 3.87803 10.7102 4.10377 10.908C4.32952 11.1059 4.62462 11.206 4.92415 11.1862Z" fill="url(#paint0_linear_1032_7436)"/>
<path fill-rule="evenodd" clip-rule="evenodd" d="M5.76102 4.32498C5.45301 4.34525 5.15477 4.44126 4.89277 4.60448C4.63077 4.7677 4.41313 4.99307 4.25915 5.2606L1.82165 9.4981C1.63724 9.81894 1.5519 10.1872 1.57637 10.5564C1.60084 10.9257 1.73402 11.2794 1.95915 11.5731L4.93227 15.4531C5.1201 15.6981 5.36549 15.8929 5.64668 16.0202C5.92786 16.1475 6.23614 16.2035 6.54415 16.1831L16.9416 15.4962C17.4377 15.4635 17.9005 15.2351 18.2282 14.8612C18.5559 14.4873 18.7217 13.9986 18.6891 13.5025L18.1535 5.3856C18.1373 5.13991 18.0729 4.89981 17.9639 4.67902C17.8549 4.45823 17.7034 4.26107 17.5183 4.0988C17.3331 3.93653 17.1177 3.81233 16.8845 3.73328C16.6513 3.65423 16.4048 3.62189 16.1591 3.6381L5.76102 4.32498ZM4.92415 11.1862C5.07246 11.1765 5.21739 11.1376 5.35068 11.0718C5.48396 11.006 5.60298 10.9146 5.70095 10.8028C5.79892 10.6911 5.87391 10.5611 5.92164 10.4203C5.96937 10.2796 5.98891 10.1308 5.97915 9.98248C5.96938 9.83416 5.93049 9.68923 5.86471 9.55594C5.79893 9.42266 5.70755 9.30364 5.59577 9.20567C5.48399 9.10771 5.35401 9.03272 5.21325 8.98498C5.07249 8.93725 4.92371 8.91771 4.7754 8.92748C4.47587 8.9472 4.19644 9.08511 3.99859 9.31085C3.80074 9.5366 3.70067 9.8317 3.7204 10.1312C3.74012 10.4308 3.87803 10.7102 4.10377 10.908C4.32952 11.1059 4.62462 11.206 4.92415 11.1862Z" fill="url(#paint1_linear_1032_7436)"/>
<path fill-rule="evenodd" clip-rule="evenodd" d="M5.76102 4.32498C5.45301 4.34525 5.15477 4.44126 4.89277 4.60448C4.63077 4.7677 4.41313 4.99307 4.25915 5.2606L1.82165 9.4981C1.63724 9.81894 1.5519 10.1872 1.57637 10.5564C1.60084 10.9257 1.73402 11.2794 1.95915 11.5731L4.93227 15.4531C5.1201 15.6981 5.36549 15.8929 5.64668 16.0202C5.92786 16.1475 6.23614 16.2035 6.54415 16.1831L16.9416 15.4962C17.4377 15.4635 17.9005 15.2351 18.2282 14.8612C18.5559 14.4873 18.7217 13.9986 18.6891 13.5025L18.1535 5.3856C18.1373 5.13991 18.0729 4.89981 17.9639 4.67902C17.8549 4.45823 17.7034 4.26107 17.5183 4.0988C17.3331 3.93653 17.1177 3.81233 16.8845 3.73328C16.6513 3.65423 16.4048 3.62189 16.1591 3.6381L5.76102 4.32498ZM4.92415 11.1862C5.07246 11.1765 5.21739 11.1376 5.35068 11.0718C5.48396 11.006 5.60298 10.9146 5.70095 10.8028C5.79892 10.6911 5.87391 10.5611 5.92164 10.4203C5.96937 10.2796 5.98891 10.1308 5.97915 9.98248C5.96938 9.83416 5.93049 9.68923 5.86471 9.55594C5.79893 9.42266 5.70755 9.30364 5.59577 9.20567C5.48399 9.10771 5.35401 9.03272 5.21325 8.98498C5.07249 8.93725 4.92371 8.91771 4.7754 8.92748C4.47587 8.9472 4.19644 9.08511 3.99859 9.31085C3.80074 9.5366 3.70067 9.8317 3.7204 10.1312C3.74012 10.4308 3.87803 10.7102 4.10377 10.908C4.32952 11.1059 4.62462 11.206 4.92415 11.1862Z" fill="url(#paint2_linear_1032_7436)"/>
<path d="M12.0498 9.69941L10.1816 8.70566L10.2779 10.0469L12.146 11.0407L16.2073 7.60379C16.0339 7.28302 15.8235 6.98368 15.5804 6.71191L12.0491 9.69941H12.0498Z" fill="white"/>
<path d="M7.36195 10.1543C7.54257 12.735 9.7957 14.6806 12.3932 14.5012C14.9901 14.3212 16.9482 12.0825 16.7676 9.50121C16.7488 9.21371 16.7013 8.93871 16.6351 8.66996L15.6769 9.48371C15.6769 9.51371 15.6832 9.54933 15.6832 9.57933C15.8213 11.5612 14.3144 13.2856 12.3207 13.4231C10.3263 13.5606 8.5907 12.0643 8.45195 10.0825C8.31382 8.10058 9.82007 6.37621 11.8144 6.23871C12.5424 6.18755 13.2688 6.35653 13.8994 6.72371L14.7669 5.99308C13.8831 5.37872 12.8157 5.08498 11.7419 5.16058C9.1332 5.33433 7.17507 7.57371 7.36195 10.1543Z" fill="white"/>
<defs>
<linearGradient id="paint0_linear_1032_7436" x1="2.81165" y1="11.875" x2="13.3923" y2="0.996851" gradientUnits="userSpaceOnUse">
<stop stop-color="#F2EA00"/>
<stop offset="0.361" stop-color="#03D31D"/>
<stop offset="0.679" stop-color="#00ABED"/>
<stop offset="0.977" stop-color="#0087DE"/>
</linearGradient>
<linearGradient id="paint1_linear_1032_7436" x1="17.526" y1="14.3731" x2="10.4098" y2="10.4456" gradientUnits="userSpaceOnUse">
<stop stop-color="#28983A"/>
<stop offset="0.852" stop-color="#28973C" stop-opacity="0"/>
</linearGradient>
<linearGradient id="paint2_linear_1032_7436" x1="7.11977" y1="5.29623" x2="10.2648" y2="9.2981" gradientUnits="userSpaceOnUse">
<stop stop-color="#1AD5DC"/>
<stop offset="1" stop-color="#1AD5DC" stop-opacity="0"/>
</linearGradient>
</defs>
</svg>
