<svg width="14" height="14" viewBox="0 0 14 14" fill="none" xmlns="http://www.w3.org/2000/svg">
<path d="M12.7313 9.65391C13.2875 10.0255 13.4094 10.8227 13.0094 11.3536C12.7812 11.6573 12.5226 11.9369 12.2375 12.188C11.1219 13.1723 9.55 13.4505 8.1625 12.9102C6.57023 12.2898 5.11971 11.3542 3.89802 10.1593C2.67634 8.9645 1.70868 7.53513 1.05313 5.95703C0.484377 4.58203 0.728127 3.00391 1.6875 1.86641C1.93125 1.57547 2.20313 1.31016 2.50313 1.07578C3.02813 0.660158 3.81875 0.772658 4.20938 1.31641C4.77801 2.10279 5.14012 3.01935 5.2625 3.98203C5.30313 4.28828 5.22188 4.60078 5.0375 4.84797L4.39688 5.70391C5.30332 7.35029 6.67511 8.69283 8.34063 9.5636L9.18438 8.90422C9.42813 8.71391 9.7375 8.62609 10.0438 8.65734C11.0094 8.76016 11.9344 9.10391 12.7313 9.65391Z" fill="black"/>
</svg>
