<svg width="16" height="16" viewBox="0 0 16 16" fill="none" xmlns="http://www.w3.org/2000/svg">
<path d="M15.5 8.00028C15.5 10.3003 14.4156 12.5128 12.6 13.9253C10.7594 15.3565 8.29688 15.8503 6.04688 15.244C3.35313 14.519 1.23125 12.2753 0.659376 9.54403C0.0784389 6.75965 1.15625 3.82215 3.40031 2.07528C5.65344 0.325279 8.8 0.0127788 11.35 1.28778C13.8688 2.54715 15.5 5.18465 15.5 8.00028ZM11.6125 13.1003C13.2531 11.9378 14.25 10.0128 14.25 8.00028C14.25 5.17215 12.2719 2.6284 9.525 1.93778C6.7625 1.24403 3.80313 2.5659 2.47188 5.08465C1.13438 7.61278 1.73125 10.8128 3.87813 12.6972C6.025 14.5815 9.28125 14.7565 11.6125 13.1003Z" fill="black"/>
<path d="M13.625 8.00002C13.625 8.68127 13.5031 9.3594 13.2594 9.99689C12.2372 12.6844 9.24686 14.1938 6.47812 13.4156C3.70937 12.6406 1.94687 9.79377 2.46874 6.97189C2.99062 4.14377 5.66561 2.13752 8.52186 2.40002C11.3781 2.66252 13.625 5.1344 13.625 8.00002ZM11.625 8.31252C12.0281 8.31252 12.0281 7.68752 11.625 7.68752H8.31249V4.37502C8.31249 3.9719 7.68749 3.9719 7.68749 4.37502V8.00002C7.68749 8.1719 7.82811 8.31252 7.99999 8.31252H11.625Z" fill="black"/>
</svg>
