<svg width="18" height="18" viewBox="0 0 18 18" fill="none" xmlns="http://www.w3.org/2000/svg">
<path fill-rule="evenodd" clip-rule="evenodd" d="M9.00332 2.33268C7.86846 2.33229 6.75229 2.62161 5.76051 3.17324C4.76874 3.72486 3.9342 4.52054 3.33594 5.4849C2.73768 6.44926 2.3955 7.55038 2.34181 8.68398C2.28813 9.81757 2.52471 10.9461 3.02916 11.9627C3.27249 12.4527 3.26082 13.0518 3.20916 13.5177C3.15332 14.0227 3.02582 14.5602 2.88999 15.0368C2.82666 15.2577 2.76082 15.4702 2.69582 15.666H9.00332C10.7714 15.666 12.4671 14.9636 13.7174 13.7134C14.9676 12.4632 15.67 10.7675 15.67 8.99935C15.67 7.23124 14.9676 5.53555 13.7174 4.2853C12.4671 3.03506 10.7714 2.33268 9.00332 2.33268ZM0.73499 16.1785L0.736657 16.1735L0.746657 16.1502C0.806551 16.0039 0.863231 15.8564 0.916657 15.7077C1.02499 15.4118 1.16499 15.0093 1.28749 14.5802C1.40908 14.1724 1.4977 13.7555 1.55249 13.3335C1.57332 13.1477 1.57749 12.9943 1.56832 12.8768C1.56532 12.8325 1.55891 12.7885 1.54916 12.7452C1.54249 12.716 1.53666 12.7035 1.53666 12.7035C0.964946 11.5525 0.668268 10.2845 0.66999 8.99935C0.66999 4.39685 4.40082 0.666016 9.00332 0.666016C13.6058 0.666016 17.3367 4.39685 17.3367 8.99935C17.3367 13.6018 13.6058 17.3327 9.00332 17.3327H1.50332C1.3662 17.3326 1.23121 17.2988 1.11033 17.234C0.989436 17.1693 0.886382 17.0758 0.810303 16.9617C0.734224 16.8476 0.68747 16.7165 0.674187 16.5801C0.660904 16.4436 0.681503 16.306 0.734157 16.1793L0.73499 16.1785ZM4.83332 7.74935C4.83332 7.52834 4.92112 7.31637 5.0774 7.16009C5.23368 7.00381 5.44564 6.91602 5.66666 6.91602H12.3333C12.5543 6.91602 12.7663 7.00381 12.9226 7.16009C13.0789 7.31637 13.1667 7.52834 13.1667 7.74935C13.1667 7.97036 13.0789 8.18232 12.9226 8.3386C12.7663 8.49488 12.5543 8.58268 12.3333 8.58268H5.66666C5.44564 8.58268 5.23368 8.49488 5.0774 8.3386C4.92112 8.18232 4.83332 7.97036 4.83332 7.74935ZM4.83332 11.0827C4.83332 10.8617 4.92112 10.6497 5.0774 10.4934C5.23368 10.3371 5.44564 10.2493 5.66666 10.2493H8.16666C8.38767 10.2493 8.59963 10.3371 8.75591 10.4934C8.91219 10.6497 8.99999 10.8617 8.99999 11.0827C8.99999 11.3037 8.91219 11.5157 8.75591 11.6719C8.59963 11.8282 8.38767 11.916 8.16666 11.916H5.66666C5.44564 11.916 5.23368 11.8282 5.0774 11.6719C4.92112 11.5157 4.83332 11.3037 4.83332 11.0827Z" fill="#333333"/>
</svg>
