<svg width="18" height="16" viewBox="0 0 18 16" fill="none" xmlns="http://www.w3.org/2000/svg">
<path fill-rule="evenodd" clip-rule="evenodd" d="M5.91669 2.16693C3.85669 2.16693 2.33335 4.14526 2.33335 6.13359C2.33335 7.08526 2.70835 8.04359 3.34252 8.97776C3.97585 9.91109 4.83919 10.7753 5.73335 11.5194C6.51481 12.165 7.34136 12.754 8.20669 13.2819C8.53002 13.4803 8.80335 13.6344 9.00002 13.7403C9.19669 13.6344 9.47002 13.4803 9.79335 13.2819C10.6587 12.754 11.4852 12.165 12.2667 11.5194C13.1609 10.7753 14.0234 9.91109 14.6575 8.97776C15.2925 8.04359 15.6667 7.08609 15.6667 6.13359C15.6667 4.14526 14.1434 2.16693 12.0834 2.16693C10.88 2.16693 10.1009 2.75859 9.63085 3.30276C9.55262 3.39339 9.45578 3.4661 9.34692 3.51594C9.23807 3.56578 9.11975 3.59158 9.00002 3.59158C8.88029 3.59158 8.76197 3.56578 8.65312 3.51594C8.54426 3.4661 8.44742 3.39339 8.36919 3.30276C7.89919 2.75859 7.12002 2.16693 5.91669 2.16693ZM0.666687 6.13359C0.666687 3.4886 2.69335 0.500261 5.91669 0.500261C7.27502 0.500261 8.29002 1.01026 9.00002 1.59609C9.86538 0.876834 10.9582 0.488454 12.0834 0.500261C15.3067 0.500261 17.3334 3.4886 17.3334 6.13359C17.3334 7.52776 16.7867 8.80859 16.0367 9.91443C15.285 11.0211 14.2975 11.9978 13.3334 12.8003C12.4896 13.4978 11.597 14.1342 10.6625 14.7044C10.295 14.9294 9.98169 15.1061 9.75252 15.2278C9.65801 15.2787 9.56244 15.3276 9.46585 15.3744C9.40399 15.4038 9.34087 15.4305 9.27669 15.4544C9.26085 15.4594 9.23502 15.4678 9.20169 15.4761C9.06944 15.5082 8.93143 15.5082 8.79919 15.4761C8.74755 15.4639 8.69625 15.4471 8.64752 15.4261C8.60929 15.4099 8.5715 15.3926 8.53419 15.3744C8.4376 15.3276 8.34203 15.2787 8.24752 15.2278C7.93925 15.0621 7.63579 14.8875 7.33752 14.7044C6.403 14.1342 5.51045 13.4978 4.66669 12.8003C3.70252 11.9969 2.71502 11.0211 1.96419 9.91443C1.21335 8.80943 0.666687 7.52776 0.666687 6.13359Z" fill="#333333"/>
</svg>
