<svg width="18" height="14" viewBox="0 0 18 14" fill="none" xmlns="http://www.w3.org/2000/svg">
<path d="M16.1558 8.35768C14.5391 10.0585 11.9 12.2077 8.99998 12.2077V13.4577C12.4591 13.4577 15.4183 10.9477 17.0616 9.21935L16.1558 8.35768ZM8.99998 12.2077C6.09998 12.2077 3.46081 10.0585 1.84415 8.35768L0.938313 9.21935C2.58165 10.9477 5.54165 13.4577 8.99998 13.4577V12.2077ZM1.84415 5.64102C3.46081 3.94018 6.09998 1.79102 8.99998 1.79102V0.541016C5.54081 0.541016 2.58165 3.05102 0.938313 4.77935L1.84415 5.64102ZM8.99998 1.79102C11.9 1.79102 14.5391 3.94018 16.1558 5.64102L17.0616 4.77935C15.4183 3.05102 12.4583 0.541016 8.99998 0.541016V1.79102ZM1.84415 8.35768C1.48987 7.99429 1.29158 7.50686 1.29158 6.99935C1.29158 6.49184 1.48987 6.00441 1.84415 5.64102L0.938313 4.77935C0.362952 5.37516 0.0413818 6.17108 0.0413818 6.99935C0.0413818 7.82762 0.362952 8.62354 0.938313 9.21935L1.84415 8.35768ZM17.0616 9.21935C17.637 8.62354 17.9577 7.82762 17.9577 6.99935C17.9577 6.17108 17.637 5.37516 17.0616 4.77935L16.1558 5.64102C16.8925 6.41602 16.8925 7.58268 16.1558 8.35768L17.0616 9.21935ZM10.875 6.99935C10.875 7.49663 10.6774 7.97354 10.3258 8.32517C9.97417 8.67681 9.49726 8.87435 8.99998 8.87435V10.1243C9.82878 10.1243 10.6236 9.79511 11.2097 9.20906C11.7957 8.62301 12.125 7.82815 12.125 6.99935H10.875ZM8.99998 8.87435C8.5027 8.87435 8.02579 8.67681 7.67415 8.32517C7.32252 7.97354 7.12498 7.49663 7.12498 6.99935H5.87498C5.87498 7.82815 6.20422 8.62301 6.79027 9.20906C7.37632 9.79511 8.17118 10.1243 8.99998 10.1243V8.87435ZM7.12498 6.99935C7.12498 6.50207 7.32252 6.02516 7.67415 5.67352C8.02579 5.32189 8.5027 5.12435 8.99998 5.12435V3.87435C8.17118 3.87435 7.37632 4.20359 6.79027 4.78964C6.20422 5.37569 5.87498 6.17055 5.87498 6.99935H7.12498ZM8.99998 5.12435C9.49726 5.12435 9.97417 5.32189 10.3258 5.67352C10.6774 6.02516 10.875 6.50207 10.875 6.99935H12.125C12.125 6.17055 11.7957 5.37569 11.2097 4.78964C10.6236 4.20359 9.82878 3.87435 8.99998 3.87435V5.12435Z" fill="#333333"/>
</svg>
